<svg width="48" height="68" viewBox="0 0 48 68" fill="none" xmlns="http://www.w3.org/2000/svg"><rect width="48" height="68" rx="4" fill="#fff"/><g filter="url(#filter0_i)"><rect x="2" y="2" width="44" height="64" rx="2" fill="#A90029"/></g><g opacity=".3"><mask id="mask0" mask-type="alpha" maskUnits="userSpaceOnUse" x="2" y="2" width="44" height="64"><rect x="2" y="2" width="44" height="64" rx="2" fill="#000"/></mask><g mask="url(#mask0)"><path fill-rule="evenodd" clip-rule="evenodd" d="M44 2V7L42 4.5L44 2Z" fill="#121318"/><path fill-rule="evenodd" clip-rule="evenodd" d="M46 2V4.5L44 2H46Z" fill="#121318"/><path fill-rule="evenodd" clip-rule="evenodd" d="M46 4.5V7H44L46 4.5Z" fill="#121318"/><path fill-rule="evenodd" clip-rule="evenodd" d="M40 2V7L38 4.5L40 2Z" fill="#121318"/><path fill-rule="evenodd" clip-rule="evenodd" d="M42 2V4.5L40 2H42Z" fill="#121318"/><path fill-rule="evenodd" clip-rule="evenodd" d="M42 4.5V7H40L42 4.5Z" fill="#121318"/><path fill-rule="evenodd" clip-rule="evenodd" d="M36 2V7L34 4.5L36 2Z" fill="#121318"/><path fill-rule="evenodd" clip-rule="evenodd" d="M38 2V4.5L36 2H38Z" fill="#121318"/><path fill-rule="evenodd" clip-rule="evenodd" d="M38 4.5V7H36L38 4.5Z" fill="#121318"/><path fill-rule="evenodd" clip-rule="evenodd" d="M32 2V7L30 4.5L32 2Z" fill="#121318"/><path fill-rule="evenodd" clip-rule="evenodd" d="M34 2V4.5L32 2H34Z" fill="#121318"/><path fill-rule="evenodd" clip-rule="evenodd" d="M34 4.5V7H32L34 4.5Z" fill="#121318"/><path fill-rule="evenodd" clip-rule="evenodd" d="M28 2V7L26 4.5L28 2Z" fill="#121318"/><path fill-rule="evenodd" clip-rule="evenodd" d="M30 2V4.5L28 2H30Z" fill="#121318"/><path fill-rule="evenodd" clip-rule="evenodd" d="M30 4.5V7H28L30 4.5Z" fill="#121318"/><path fill-rule="evenodd" clip-rule="evenodd" d="M24 2V7L22 4.5L24 2Z" fill="#121318"/><path fill-rule="evenodd" clip-rule="evenodd" d="M26 2V4.5L24 2H26Z" fill="#121318"/><path fill-rule="evenodd" clip-rule="evenodd" d="M26 4.5V7H24L26 4.5Z" fill="#121318"/><path fill-rule="evenodd" clip-rule="evenodd" d="M20 2V7L18 4.5L20 2Z" fill="#121318"/><path fill-rule="evenodd" clip-rule="evenodd" d="M22 2V4.5L20 2H22Z" fill="#121318"/><path fill-rule="evenodd" clip-rule="evenodd" d="M22 4.5V7H20L22 4.5Z" fill="#121318"/><path fill-rule="evenodd" clip-rule="evenodd" d="M16 2V7L14 4.5L16 2Z" fill="#121318"/><path fill-rule="evenodd" clip-rule="evenodd" d="M18 2V4.5L16 2H18Z" fill="#121318"/><path fill-rule="evenodd" clip-rule="evenodd" d="M18 4.5V7H16L18 4.5Z" fill="#121318"/><path fill-rule="evenodd" clip-rule="evenodd" d="M12 2V7L10 4.5L12 2Z" fill="#121318"/><path fill-rule="evenodd" clip-rule="evenodd" d="M14 2V4.5L12 2H14Z" fill="#121318"/><path fill-rule="evenodd" clip-rule="evenodd" d="M14 4.5V7H12L14 4.5Z" fill="#121318"/><path fill-rule="evenodd" clip-rule="evenodd" d="M8 2V7L6 4.5L8 2Z" fill="#121318"/><path fill-rule="evenodd" clip-rule="evenodd" d="M10 2V4.5L8 2H10Z" fill="#121318"/><path fill-rule="evenodd" clip-rule="evenodd" d="M10 4.5V7H8L10 4.5Z" fill="#121318"/><path fill-rule="evenodd" clip-rule="evenodd" d="M4 2V7L2 4.5L4 2Z" fill="#121318"/><path fill-rule="evenodd" clip-rule="evenodd" d="M6 2V4.5L4 2H6Z" fill="#121318"/><path fill-rule="evenodd" clip-rule="evenodd" d="M6 4.5V7H4L6 4.5Z" fill="#121318"/><path fill-rule="evenodd" clip-rule="evenodd" d="M44 7V12L42 9.5L44 7Z" fill="#121318"/><path fill-rule="evenodd" clip-rule="evenodd" d="M46 7V9.5L44 7H46Z" fill="#121318"/><path fill-rule="evenodd" clip-rule="evenodd" d="M46 9.5V12H44L46 9.5Z" fill="#121318"/><path fill-rule="evenodd" clip-rule="evenodd" d="M40 7V12L38 9.5L40 7Z" fill="#121318"/><path fill-rule="evenodd" clip-rule="evenodd" d="M42 7V9.5L40 7H42Z" fill="#121318"/><path fill-rule="evenodd" clip-rule="evenodd" d="M42 9.5V12H40L42 9.5Z" fill="#121318"/><path fill-rule="evenodd" clip-rule="evenodd" d="M36 7V12L34 9.5L36 7Z" fill="#121318"/><path fill-rule="evenodd" clip-rule="evenodd" d="M38 7V9.5L36 7H38Z" fill="#121318"/><path fill-rule="evenodd" clip-rule="evenodd" d="M38 9.5V12H36L38 9.5Z" fill="#121318"/><path fill-rule="evenodd" clip-rule="evenodd" d="M32 7V12L30 9.5L32 7Z" fill="#121318"/><path fill-rule="evenodd" clip-rule="evenodd" d="M34 7V9.5L32 7H34Z" fill="#121318"/><path fill-rule="evenodd" clip-rule="evenodd" d="M34 9.5V12H32L34 9.5Z" fill="#121318"/><path fill-rule="evenodd" clip-rule="evenodd" d="M28 7V12L26 9.5L28 7Z" fill="#121318"/><path fill-rule="evenodd" clip-rule="evenodd" d="M30 7V9.5L28 7H30Z" fill="#121318"/><path fill-rule="evenodd" clip-rule="evenodd" d="M30 9.5V12H28L30 9.5Z" fill="#121318"/><path fill-rule="evenodd" clip-rule="evenodd" d="M24 7V12L22 9.5L24 7Z" fill="#121318"/><path fill-rule="evenodd" clip-rule="evenodd" d="M26 7V9.5L24 7H26Z" fill="#121318"/><path fill-rule="evenodd" clip-rule="evenodd" d="M26 9.5V12H24L26 9.5Z" fill="#121318"/><path fill-rule="evenodd" clip-rule="evenodd" d="M20 7V12L18 9.5L20 7Z" fill="#121318"/><path fill-rule="evenodd" clip-rule="evenodd" d="M22 7V9.5L20 7H22Z" fill="#121318"/><path fill-rule="evenodd" clip-rule="evenodd" d="M22 9.5V12H20L22 9.5Z" fill="#121318"/><path fill-rule="evenodd" clip-rule="evenodd" d="M16 7V12L14 9.5L16 7Z" fill="#121318"/><path fill-rule="evenodd" clip-rule="evenodd" d="M18 7V9.5L16 7H18Z" fill="#121318"/><path fill-rule="evenodd" clip-rule="evenodd" d="M18 9.5V12H16L18 9.5Z" fill="#121318"/><path fill-rule="evenodd" clip-rule="evenodd" d="M12 7V12L10 9.5L12 7Z" fill="#121318"/><path fill-rule="evenodd" clip-rule="evenodd" d="M14 7V9.5L12 7H14Z" fill="#121318"/><path fill-rule="evenodd" clip-rule="evenodd" d="M14 9.5V12H12L14 9.5Z" fill="#121318"/><path fill-rule="evenodd" clip-rule="evenodd" d="M8 7V12L6 9.5L8 7Z" fill="#121318"/><path fill-rule="evenodd" clip-rule="evenodd" d="M10 7V9.5L8 7H10Z" fill="#121318"/><path fill-rule="evenodd" clip-rule="evenodd" d="M10 9.5V12H8L10 9.5Z" fill="#121318"/><path fill-rule="evenodd" clip-rule="evenodd" d="M4 7V12L2 9.5L4 7Z" fill="#121318"/><path fill-rule="evenodd" clip-rule="evenodd" d="M6 7V9.5L4 7H6Z" fill="#121318"/><path fill-rule="evenodd" clip-rule="evenodd" d="M6 9.5V12H4L6 9.5Z" fill="#121318"/><path fill-rule="evenodd" clip-rule="evenodd" d="M44 12V17L42 14.5L44 12Z" fill="#121318"/><path fill-rule="evenodd" clip-rule="evenodd" d="M46 12V14.5L44 12H46Z" fill="#121318"/><path fill-rule="evenodd" clip-rule="evenodd" d="M46 14.5V17H44L46 14.5Z" fill="#121318"/><path fill-rule="evenodd" clip-rule="evenodd" d="M40 12V17L38 14.5L40 12Z" fill="#121318"/><path fill-rule="evenodd" clip-rule="evenodd" d="M42 12V14.5L40 12H42Z" fill="#121318"/><path fill-rule="evenodd" clip-rule="evenodd" d="M42 14.5V17H40L42 14.5Z" fill="#121318"/><path fill-rule="evenodd" clip-rule="evenodd" d="M36 12V17L34 14.5L36 12Z" fill="#121318"/><path fill-rule="evenodd" clip-rule="evenodd" d="M38 12V14.5L36 12H38Z" fill="#121318"/><path fill-rule="evenodd" clip-rule="evenodd" d="M38 14.5V17H36L38 14.5Z" fill="#121318"/><path fill-rule="evenodd" clip-rule="evenodd" d="M32 12V17L30 14.5L32 12Z" fill="#121318"/><path fill-rule="evenodd" clip-rule="evenodd" d="M34 12V14.5L32 12H34Z" fill="#121318"/><path fill-rule="evenodd" clip-rule="evenodd" d="M34 14.5V17H32L34 14.5Z" fill="#121318"/><path fill-rule="evenodd" clip-rule="evenodd" d="M28 12V17L26 14.5L28 12Z" fill="#121318"/><path fill-rule="evenodd" clip-rule="evenodd" d="M30 12V14.5L28 12H30Z" fill="#121318"/><path fill-rule="evenodd" clip-rule="evenodd" d="M30 14.5V17H28L30 14.5Z" fill="#121318"/><path fill-rule="evenodd" clip-rule="evenodd" d="M24 12V17L22 14.5L24 12Z" fill="#121318"/><path fill-rule="evenodd" clip-rule="evenodd" d="M26 12V14.5L24 12H26Z" fill="#121318"/><path fill-rule="evenodd" clip-rule="evenodd" d="M26 14.5V17H24L26 14.5Z" fill="#121318"/><path fill-rule="evenodd" clip-rule="evenodd" d="M20 12V17L18 14.5L20 12Z" fill="#121318"/><path fill-rule="evenodd" clip-rule="evenodd" d="M22 12V14.5L20 12H22Z" fill="#121318"/><path fill-rule="evenodd" clip-rule="evenodd" d="M22 14.5V17H20L22 14.5Z" fill="#121318"/><path fill-rule="evenodd" clip-rule="evenodd" d="M16 12V17L14 14.5L16 12Z" fill="#121318"/><path fill-rule="evenodd" clip-rule="evenodd" d="M18 12V14.5L16 12H18Z" fill="#121318"/><path fill-rule="evenodd" clip-rule="evenodd" d="M18 14.5V17H16L18 14.5Z" fill="#121318"/><path fill-rule="evenodd" clip-rule="evenodd" d="M12 12V17L10 14.5L12 12Z" fill="#121318"/><path fill-rule="evenodd" clip-rule="evenodd" d="M14 12V14.5L12 12H14Z" fill="#121318"/><path fill-rule="evenodd" clip-rule="evenodd" d="M14 14.5V17H12L14 14.5Z" fill="#121318"/><path fill-rule="evenodd" clip-rule="evenodd" d="M8 12V17L6 14.5L8 12Z" fill="#121318"/><path fill-rule="evenodd" clip-rule="evenodd" d="M10 12V14.5L8 12H10Z" fill="#121318"/><path fill-rule="evenodd" clip-rule="evenodd" d="M10 14.5V17H8L10 14.5Z" fill="#121318"/><path fill-rule="evenodd" clip-rule="evenodd" d="M4 12V17L2 14.5L4 12Z" fill="#121318"/><path fill-rule="evenodd" clip-rule="evenodd" d="M6 12V14.5L4 12H6Z" fill="#121318"/><path fill-rule="evenodd" clip-rule="evenodd" d="M6 14.5V17H4L6 14.5Z" fill="#121318"/><path fill-rule="evenodd" clip-rule="evenodd" d="M44 17V22L42 19.5L44 17Z" fill="#121318"/><path fill-rule="evenodd" clip-rule="evenodd" d="M46 17V19.5L44 17H46Z" fill="#121318"/><path fill-rule="evenodd" clip-rule="evenodd" d="M46 19.5V22H44L46 19.5Z" fill="#121318"/><path fill-rule="evenodd" clip-rule="evenodd" d="M40 17V22L38 19.5L40 17Z" fill="#121318"/><path fill-rule="evenodd" clip-rule="evenodd" d="M42 17V19.5L40 17H42Z" fill="#121318"/><path fill-rule="evenodd" clip-rule="evenodd" d="M42 19.5V22H40L42 19.5Z" fill="#121318"/><path fill-rule="evenodd" clip-rule="evenodd" d="M36 17V22L34 19.5L36 17Z" fill="#121318"/><path fill-rule="evenodd" clip-rule="evenodd" d="M38 17V19.5L36 17H38Z" fill="#121318"/><path fill-rule="evenodd" clip-rule="evenodd" d="M38 19.5V22H36L38 19.5Z" fill="#121318"/><path fill-rule="evenodd" clip-rule="evenodd" d="M32 17V22L30 19.5L32 17Z" fill="#121318"/><path fill-rule="evenodd" clip-rule="evenodd" d="M34 17V19.5L32 17H34Z" fill="#121318"/><path fill-rule="evenodd" clip-rule="evenodd" d="M34 19.5V22H32L34 19.5Z" fill="#121318"/><path fill-rule="evenodd" clip-rule="evenodd" d="M28 17V22L26 19.5L28 17Z" fill="#121318"/><path fill-rule="evenodd" clip-rule="evenodd" d="M30 17V19.5L28 17H30Z" fill="#121318"/><path fill-rule="evenodd" clip-rule="evenodd" d="M30 19.5V22H28L30 19.5Z" fill="#121318"/><path fill-rule="evenodd" clip-rule="evenodd" d="M24 17V22L22 19.5L24 17Z" fill="#121318"/><path fill-rule="evenodd" clip-rule="evenodd" d="M26 17V19.5L24 17H26Z" fill="#121318"/><path fill-rule="evenodd" clip-rule="evenodd" d="M26 19.5V22H24L26 19.5Z" fill="#121318"/><path fill-rule="evenodd" clip-rule="evenodd" d="M20 17V22L18 19.5L20 17Z" fill="#121318"/><path fill-rule="evenodd" clip-rule="evenodd" d="M22 17V19.5L20 17H22Z" fill="#121318"/><path fill-rule="evenodd" clip-rule="evenodd" d="M22 19.5V22H20L22 19.5Z" fill="#121318"/><path fill-rule="evenodd" clip-rule="evenodd" d="M16 17V22L14 19.5L16 17Z" fill="#121318"/><path fill-rule="evenodd" clip-rule="evenodd" d="M18 17V19.5L16 17H18Z" fill="#121318"/><path fill-rule="evenodd" clip-rule="evenodd" d="M18 19.5V22H16L18 19.5Z" fill="#121318"/><path fill-rule="evenodd" clip-rule="evenodd" d="M12 17V22L10 19.5L12 17Z" fill="#121318"/><path fill-rule="evenodd" clip-rule="evenodd" d="M14 17V19.5L12 17H14Z" fill="#121318"/><path fill-rule="evenodd" clip-rule="evenodd" d="M14 19.5V22H12L14 19.5Z" fill="#121318"/><path fill-rule="evenodd" clip-rule="evenodd" d="M8 17V22L6 19.5L8 17Z" fill="#121318"/><path fill-rule="evenodd" clip-rule="evenodd" d="M10 17V19.5L8 17H10Z" fill="#121318"/><path fill-rule="evenodd" clip-rule="evenodd" d="M10 19.5V22H8L10 19.5Z" fill="#121318"/><path fill-rule="evenodd" clip-rule="evenodd" d="M4 17V22L2 19.5L4 17Z" fill="#121318"/><path fill-rule="evenodd" clip-rule="evenodd" d="M6 17V19.5L4 17H6Z" fill="#121318"/><path fill-rule="evenodd" clip-rule="evenodd" d="M6 19.5V22H4L6 19.5Z" fill="#121318"/><path fill-rule="evenodd" clip-rule="evenodd" d="M44 22V27L42 24.5L44 22Z" fill="#121318"/><path fill-rule="evenodd" clip-rule="evenodd" d="M46 22V24.5L44 22H46Z" fill="#121318"/><path fill-rule="evenodd" clip-rule="evenodd" d="M46 24.5V27H44L46 24.5Z" fill="#121318"/><path fill-rule="evenodd" clip-rule="evenodd" d="M40 22V27L38 24.5L40 22Z" fill="#121318"/><path fill-rule="evenodd" clip-rule="evenodd" d="M42 22V24.5L40 22H42Z" fill="#121318"/><path fill-rule="evenodd" clip-rule="evenodd" d="M42 24.5V27H40L42 24.5Z" fill="#121318"/><path fill-rule="evenodd" clip-rule="evenodd" d="M36 22V27L34 24.5L36 22Z" fill="#121318"/><path fill-rule="evenodd" clip-rule="evenodd" d="M38 22V24.5L36 22H38Z" fill="#121318"/><path fill-rule="evenodd" clip-rule="evenodd" d="M38 24.5V27H36L38 24.5Z" fill="#121318"/><path fill-rule="evenodd" clip-rule="evenodd" d="M32 22V27L30 24.5L32 22Z" fill="#121318"/><path fill-rule="evenodd" clip-rule="evenodd" d="M34 22V24.5L32 22H34Z" fill="#121318"/><path fill-rule="evenodd" clip-rule="evenodd" d="M34 24.5V27H32L34 24.5Z" fill="#121318"/><path fill-rule="evenodd" clip-rule="evenodd" d="M28 22V27L26 24.5L28 22Z" fill="#121318"/><path fill-rule="evenodd" clip-rule="evenodd" d="M30 22V24.5L28 22H30Z" fill="#121318"/><path fill-rule="evenodd" clip-rule="evenodd" d="M30 24.5V27H28L30 24.5Z" fill="#121318"/><path fill-rule="evenodd" clip-rule="evenodd" d="M24 22V27L22 24.5L24 22Z" fill="#121318"/><path fill-rule="evenodd" clip-rule="evenodd" d="M26 22V24.5L24 22H26Z" fill="#121318"/><path fill-rule="evenodd" clip-rule="evenodd" d="M26 24.5V27H24L26 24.5Z" fill="#121318"/><path fill-rule="evenodd" clip-rule="evenodd" d="M20 22V27L18 24.5L20 22Z" fill="#121318"/><path fill-rule="evenodd" clip-rule="evenodd" d="M22 22V24.5L20 22H22Z" fill="#121318"/><path fill-rule="evenodd" clip-rule="evenodd" d="M22 24.5V27H20L22 24.5Z" fill="#121318"/><path fill-rule="evenodd" clip-rule="evenodd" d="M16 22V27L14 24.5L16 22Z" fill="#121318"/><path fill-rule="evenodd" clip-rule="evenodd" d="M18 22V24.5L16 22H18Z" fill="#121318"/><path fill-rule="evenodd" clip-rule="evenodd" d="M18 24.5V27H16L18 24.5Z" fill="#121318"/><path fill-rule="evenodd" clip-rule="evenodd" d="M12 22V27L10 24.5L12 22Z" fill="#121318"/><path fill-rule="evenodd" clip-rule="evenodd" d="M14 22V24.5L12 22H14Z" fill="#121318"/><path fill-rule="evenodd" clip-rule="evenodd" d="M14 24.5V27H12L14 24.5Z" fill="#121318"/><path fill-rule="evenodd" clip-rule="evenodd" d="M8 22V27L6 24.5L8 22Z" fill="#121318"/><path fill-rule="evenodd" clip-rule="evenodd" d="M10 22V24.5L8 22H10Z" fill="#121318"/><path fill-rule="evenodd" clip-rule="evenodd" d="M10 24.5V27H8L10 24.5Z" fill="#121318"/><path fill-rule="evenodd" clip-rule="evenodd" d="M4 22V27L2 24.5L4 22Z" fill="#121318"/><path fill-rule="evenodd" clip-rule="evenodd" d="M6 22V24.5L4 22H6Z" fill="#121318"/><path fill-rule="evenodd" clip-rule="evenodd" d="M6 24.5V27H4L6 24.5Z" fill="#121318"/><path fill-rule="evenodd" clip-rule="evenodd" d="M44 27V32L42 29.5L44 27Z" fill="#121318"/><path fill-rule="evenodd" clip-rule="evenodd" d="M46 27V29.5L44 27H46Z" fill="#121318"/><path fill-rule="evenodd" clip-rule="evenodd" d="M46 29.5V32H44L46 29.5Z" fill="#121318"/><path fill-rule="evenodd" clip-rule="evenodd" d="M40 27V32L38 29.5L40 27Z" fill="#121318"/><path fill-rule="evenodd" clip-rule="evenodd" d="M42 27V29.5L40 27H42Z" fill="#121318"/><path fill-rule="evenodd" clip-rule="evenodd" d="M42 29.5V32H40L42 29.5Z" fill="#121318"/><path fill-rule="evenodd" clip-rule="evenodd" d="M36 27V32L34 29.5L36 27Z" fill="#121318"/><path fill-rule="evenodd" clip-rule="evenodd" d="M38 27V29.5L36 27H38Z" fill="#121318"/><path fill-rule="evenodd" clip-rule="evenodd" d="M38 29.5V32H36L38 29.5Z" fill="#121318"/><path fill-rule="evenodd" clip-rule="evenodd" d="M32 27V32L30 29.5L32 27Z" fill="#121318"/><path fill-rule="evenodd" clip-rule="evenodd" d="M34 27V29.5L32 27H34Z" fill="#121318"/><path fill-rule="evenodd" clip-rule="evenodd" d="M34 29.5V32H32L34 29.5Z" fill="#121318"/><path fill-rule="evenodd" clip-rule="evenodd" d="M28 27V32L26 29.5L28 27Z" fill="#121318"/><path fill-rule="evenodd" clip-rule="evenodd" d="M30 27V29.5L28 27H30Z" fill="#121318"/><path fill-rule="evenodd" clip-rule="evenodd" d="M30 29.5V32H28L30 29.5Z" fill="#121318"/><path fill-rule="evenodd" clip-rule="evenodd" d="M24 27V32L22 29.5L24 27Z" fill="#121318"/><path fill-rule="evenodd" clip-rule="evenodd" d="M26 27V29.5L24 27H26Z" fill="#121318"/><path fill-rule="evenodd" clip-rule="evenodd" d="M26 29.5V32H24L26 29.5Z" fill="#121318"/><path fill-rule="evenodd" clip-rule="evenodd" d="M20 27V32L18 29.5L20 27Z" fill="#121318"/><path fill-rule="evenodd" clip-rule="evenodd" d="M22 27V29.5L20 27H22Z" fill="#121318"/><path fill-rule="evenodd" clip-rule="evenodd" d="M22 29.5V32H20L22 29.5Z" fill="#121318"/><path fill-rule="evenodd" clip-rule="evenodd" d="M16 27V32L14 29.5L16 27Z" fill="#121318"/><path fill-rule="evenodd" clip-rule="evenodd" d="M18 27V29.5L16 27H18Z" fill="#121318"/><path fill-rule="evenodd" clip-rule="evenodd" d="M18 29.5V32H16L18 29.5Z" fill="#121318"/><path fill-rule="evenodd" clip-rule="evenodd" d="M12 27V32L10 29.5L12 27Z" fill="#121318"/><path fill-rule="evenodd" clip-rule="evenodd" d="M14 27V29.5L12 27H14Z" fill="#121318"/><path fill-rule="evenodd" clip-rule="evenodd" d="M14 29.5V32H12L14 29.5Z" fill="#121318"/><path fill-rule="evenodd" clip-rule="evenodd" d="M8 27V32L6 29.5L8 27Z" fill="#121318"/><path fill-rule="evenodd" clip-rule="evenodd" d="M10 27V29.5L8 27H10Z" fill="#121318"/><path fill-rule="evenodd" clip-rule="evenodd" d="M10 29.5V32H8L10 29.5Z" fill="#121318"/><path fill-rule="evenodd" clip-rule="evenodd" d="M4 27V32L2 29.5L4 27Z" fill="#121318"/><path fill-rule="evenodd" clip-rule="evenodd" d="M6 27V29.5L4 27H6Z" fill="#121318"/><path fill-rule="evenodd" clip-rule="evenodd" d="M6 29.5V32H4L6 29.5Z" fill="#121318"/><path fill-rule="evenodd" clip-rule="evenodd" d="M44 32V37L42 34.5L44 32Z" fill="#121318"/><path fill-rule="evenodd" clip-rule="evenodd" d="M46 32V34.5L44 32H46Z" fill="#121318"/><path fill-rule="evenodd" clip-rule="evenodd" d="M46 34.5V37H44L46 34.5Z" fill="#121318"/><path fill-rule="evenodd" clip-rule="evenodd" d="M40 32V37L38 34.5L40 32Z" fill="#121318"/><path fill-rule="evenodd" clip-rule="evenodd" d="M42 32V34.5L40 32H42Z" fill="#121318"/><path fill-rule="evenodd" clip-rule="evenodd" d="M42 34.5V37H40L42 34.5Z" fill="#121318"/><path fill-rule="evenodd" clip-rule="evenodd" d="M36 32V37L34 34.5L36 32Z" fill="#121318"/><path fill-rule="evenodd" clip-rule="evenodd" d="M38 32V34.5L36 32H38Z" fill="#121318"/><path fill-rule="evenodd" clip-rule="evenodd" d="M38 34.5V37H36L38 34.5Z" fill="#121318"/><path fill-rule="evenodd" clip-rule="evenodd" d="M32 32V37L30 34.5L32 32Z" fill="#121318"/><path fill-rule="evenodd" clip-rule="evenodd" d="M34 32V34.5L32 32H34Z" fill="#121318"/><path fill-rule="evenodd" clip-rule="evenodd" d="M34 34.5V37H32L34 34.5Z" fill="#121318"/><path fill-rule="evenodd" clip-rule="evenodd" d="M28 32V37L26 34.5L28 32Z" fill="#121318"/><path fill-rule="evenodd" clip-rule="evenodd" d="M30 32V34.5L28 32H30Z" fill="#121318"/><path fill-rule="evenodd" clip-rule="evenodd" d="M30 34.5V37H28L30 34.5Z" fill="#121318"/><path fill-rule="evenodd" clip-rule="evenodd" d="M24 32V37L22 34.5L24 32Z" fill="#121318"/><path fill-rule="evenodd" clip-rule="evenodd" d="M26 32V34.5L24 32H26Z" fill="#121318"/><path fill-rule="evenodd" clip-rule="evenodd" d="M26 34.5V37H24L26 34.5Z" fill="#121318"/><path fill-rule="evenodd" clip-rule="evenodd" d="M20 32V37L18 34.5L20 32Z" fill="#121318"/><path fill-rule="evenodd" clip-rule="evenodd" d="M22 32V34.5L20 32H22Z" fill="#121318"/><path fill-rule="evenodd" clip-rule="evenodd" d="M22 34.5V37H20L22 34.5Z" fill="#121318"/><path fill-rule="evenodd" clip-rule="evenodd" d="M16 32V37L14 34.5L16 32Z" fill="#121318"/><path fill-rule="evenodd" clip-rule="evenodd" d="M18 32V34.5L16 32H18Z" fill="#121318"/><path fill-rule="evenodd" clip-rule="evenodd" d="M18 34.5V37H16L18 34.5Z" fill="#121318"/><path fill-rule="evenodd" clip-rule="evenodd" d="M12 32V37L10 34.5L12 32Z" fill="#121318"/><path fill-rule="evenodd" clip-rule="evenodd" d="M14 32V34.5L12 32H14Z" fill="#121318"/><path fill-rule="evenodd" clip-rule="evenodd" d="M14 34.5V37H12L14 34.5Z" fill="#121318"/><path fill-rule="evenodd" clip-rule="evenodd" d="M8 32V37L6 34.5L8 32Z" fill="#121318"/><path fill-rule="evenodd" clip-rule="evenodd" d="M10 32V34.5L8 32H10Z" fill="#121318"/><path fill-rule="evenodd" clip-rule="evenodd" d="M10 34.5V37H8L10 34.5Z" fill="#121318"/><path fill-rule="evenodd" clip-rule="evenodd" d="M4 32V37L2 34.5L4 32Z" fill="#121318"/><path fill-rule="evenodd" clip-rule="evenodd" d="M6 32V34.5L4 32H6Z" fill="#121318"/><path fill-rule="evenodd" clip-rule="evenodd" d="M6 34.5V37H4L6 34.5Z" fill="#121318"/><path fill-rule="evenodd" clip-rule="evenodd" d="M44 37V42L42 39.5L44 37Z" fill="#121318"/><path fill-rule="evenodd" clip-rule="evenodd" d="M46 37V39.5L44 37H46Z" fill="#121318"/><path fill-rule="evenodd" clip-rule="evenodd" d="M46 39.5V42H44L46 39.5Z" fill="#121318"/><path fill-rule="evenodd" clip-rule="evenodd" d="M40 37V42L38 39.5L40 37Z" fill="#121318"/><path fill-rule="evenodd" clip-rule="evenodd" d="M42 37V39.5L40 37H42Z" fill="#121318"/><path fill-rule="evenodd" clip-rule="evenodd" d="M42 39.5V42H40L42 39.5Z" fill="#121318"/><path fill-rule="evenodd" clip-rule="evenodd" d="M36 37V42L34 39.5L36 37Z" fill="#121318"/><path fill-rule="evenodd" clip-rule="evenodd" d="M38 37V39.5L36 37H38Z" fill="#121318"/><path fill-rule="evenodd" clip-rule="evenodd" d="M38 39.5V42H36L38 39.5Z" fill="#121318"/><path fill-rule="evenodd" clip-rule="evenodd" d="M32 37V42L30 39.5L32 37Z" fill="#121318"/><path fill-rule="evenodd" clip-rule="evenodd" d="M34 37V39.5L32 37H34Z" fill="#121318"/><path fill-rule="evenodd" clip-rule="evenodd" d="M34 39.5V42H32L34 39.5Z" fill="#121318"/><path fill-rule="evenodd" clip-rule="evenodd" d="M28 37V42L26 39.5L28 37Z" fill="#121318"/><path fill-rule="evenodd" clip-rule="evenodd" d="M30 37V39.5L28 37H30Z" fill="#121318"/><path fill-rule="evenodd" clip-rule="evenodd" d="M30 39.5V42H28L30 39.5Z" fill="#121318"/><path fill-rule="evenodd" clip-rule="evenodd" d="M24 37V42L22 39.5L24 37Z" fill="#121318"/><path fill-rule="evenodd" clip-rule="evenodd" d="M26 37V39.5L24 37H26Z" fill="#121318"/><path fill-rule="evenodd" clip-rule="evenodd" d="M26 39.5V42H24L26 39.5Z" fill="#121318"/><path fill-rule="evenodd" clip-rule="evenodd" d="M20 37V42L18 39.5L20 37Z" fill="#121318"/><path fill-rule="evenodd" clip-rule="evenodd" d="M22 37V39.5L20 37H22Z" fill="#121318"/><path fill-rule="evenodd" clip-rule="evenodd" d="M22 39.5V42H20L22 39.5Z" fill="#121318"/><path fill-rule="evenodd" clip-rule="evenodd" d="M16 37V42L14 39.5L16 37Z" fill="#121318"/><path fill-rule="evenodd" clip-rule="evenodd" d="M18 37V39.5L16 37H18Z" fill="#121318"/><path fill-rule="evenodd" clip-rule="evenodd" d="M18 39.5V42H16L18 39.5Z" fill="#121318"/><path fill-rule="evenodd" clip-rule="evenodd" d="M12 37V42L10 39.5L12 37Z" fill="#121318"/><path fill-rule="evenodd" clip-rule="evenodd" d="M14 37V39.5L12 37H14Z" fill="#121318"/><path fill-rule="evenodd" clip-rule="evenodd" d="M14 39.5V42H12L14 39.5Z" fill="#121318"/><path fill-rule="evenodd" clip-rule="evenodd" d="M8 37V42L6 39.5L8 37Z" fill="#121318"/><path fill-rule="evenodd" clip-rule="evenodd" d="M10 37V39.5L8 37H10Z" fill="#121318"/><path fill-rule="evenodd" clip-rule="evenodd" d="M10 39.5V42H8L10 39.5Z" fill="#121318"/><path fill-rule="evenodd" clip-rule="evenodd" d="M4 37V42L2 39.5L4 37Z" fill="#121318"/><path fill-rule="evenodd" clip-rule="evenodd" d="M6 37V39.5L4 37H6Z" fill="#121318"/><path fill-rule="evenodd" clip-rule="evenodd" d="M6 39.5V42H4L6 39.5Z" fill="#121318"/><path fill-rule="evenodd" clip-rule="evenodd" d="M44 42V47L42 44.5L44 42Z" fill="#121318"/><path fill-rule="evenodd" clip-rule="evenodd" d="M46 42V44.5L44 42H46Z" fill="#121318"/><path fill-rule="evenodd" clip-rule="evenodd" d="M46 44.5V47H44L46 44.5Z" fill="#121318"/><path fill-rule="evenodd" clip-rule="evenodd" d="M40 42V47L38 44.5L40 42Z" fill="#121318"/><path fill-rule="evenodd" clip-rule="evenodd" d="M42 42V44.5L40 42H42Z" fill="#121318"/><path fill-rule="evenodd" clip-rule="evenodd" d="M42 44.5V47H40L42 44.5Z" fill="#121318"/><path fill-rule="evenodd" clip-rule="evenodd" d="M36 42V47L34 44.5L36 42Z" fill="#121318"/><path fill-rule="evenodd" clip-rule="evenodd" d="M38 42V44.5L36 42H38Z" fill="#121318"/><path fill-rule="evenodd" clip-rule="evenodd" d="M38 44.5V47H36L38 44.5Z" fill="#121318"/><path fill-rule="evenodd" clip-rule="evenodd" d="M32 42V47L30 44.5L32 42Z" fill="#121318"/><path fill-rule="evenodd" clip-rule="evenodd" d="M34 42V44.5L32 42H34Z" fill="#121318"/><path fill-rule="evenodd" clip-rule="evenodd" d="M34 44.5V47H32L34 44.5Z" fill="#121318"/><path fill-rule="evenodd" clip-rule="evenodd" d="M28 42V47L26 44.5L28 42Z" fill="#121318"/><path fill-rule="evenodd" clip-rule="evenodd" d="M30 42V44.5L28 42H30Z" fill="#121318"/><path fill-rule="evenodd" clip-rule="evenodd" d="M30 44.5V47H28L30 44.5Z" fill="#121318"/><path fill-rule="evenodd" clip-rule="evenodd" d="M24 42V47L22 44.5L24 42Z" fill="#121318"/><path fill-rule="evenodd" clip-rule="evenodd" d="M26 42V44.5L24 42H26Z" fill="#121318"/><path fill-rule="evenodd" clip-rule="evenodd" d="M26 44.5V47H24L26 44.5Z" fill="#121318"/><path fill-rule="evenodd" clip-rule="evenodd" d="M20 42V47L18 44.5L20 42Z" fill="#121318"/><path fill-rule="evenodd" clip-rule="evenodd" d="M22 42V44.5L20 42H22Z" fill="#121318"/><path fill-rule="evenodd" clip-rule="evenodd" d="M22 44.5V47H20L22 44.5Z" fill="#121318"/><path fill-rule="evenodd" clip-rule="evenodd" d="M16 42V47L14 44.5L16 42Z" fill="#121318"/><path fill-rule="evenodd" clip-rule="evenodd" d="M18 42V44.5L16 42H18Z" fill="#121318"/><path fill-rule="evenodd" clip-rule="evenodd" d="M18 44.5V47H16L18 44.5Z" fill="#121318"/><path fill-rule="evenodd" clip-rule="evenodd" d="M12 42V47L10 44.5L12 42Z" fill="#121318"/><path fill-rule="evenodd" clip-rule="evenodd" d="M14 42V44.5L12 42H14Z" fill="#121318"/><path fill-rule="evenodd" clip-rule="evenodd" d="M14 44.5V47H12L14 44.5Z" fill="#121318"/><path fill-rule="evenodd" clip-rule="evenodd" d="M8 42V47L6 44.5L8 42Z" fill="#121318"/><path fill-rule="evenodd" clip-rule="evenodd" d="M10 42V44.5L8 42H10Z" fill="#121318"/><path fill-rule="evenodd" clip-rule="evenodd" d="M10 44.5V47H8L10 44.5Z" fill="#121318"/><path fill-rule="evenodd" clip-rule="evenodd" d="M4 42V47L2 44.5L4 42Z" fill="#121318"/><path fill-rule="evenodd" clip-rule="evenodd" d="M6 42V44.5L4 42H6Z" fill="#121318"/><path fill-rule="evenodd" clip-rule="evenodd" d="M6 44.5V47H4L6 44.5Z" fill="#121318"/><path fill-rule="evenodd" clip-rule="evenodd" d="M44 47V52L42 49.5L44 47Z" fill="#121318"/><path fill-rule="evenodd" clip-rule="evenodd" d="M46 47V49.5L44 47H46Z" fill="#121318"/><path fill-rule="evenodd" clip-rule="evenodd" d="M46 49.5V52H44L46 49.5Z" fill="#121318"/><path fill-rule="evenodd" clip-rule="evenodd" d="M40 47V52L38 49.5L40 47Z" fill="#121318"/><path fill-rule="evenodd" clip-rule="evenodd" d="M42 47V49.5L40 47H42Z" fill="#121318"/><path fill-rule="evenodd" clip-rule="evenodd" d="M42 49.5V52H40L42 49.5Z" fill="#121318"/><path fill-rule="evenodd" clip-rule="evenodd" d="M36 47V52L34 49.5L36 47Z" fill="#121318"/><path fill-rule="evenodd" clip-rule="evenodd" d="M38 47V49.5L36 47H38Z" fill="#121318"/><path fill-rule="evenodd" clip-rule="evenodd" d="M38 49.5V52H36L38 49.5Z" fill="#121318"/><path fill-rule="evenodd" clip-rule="evenodd" d="M32 47V52L30 49.5L32 47Z" fill="#121318"/><path fill-rule="evenodd" clip-rule="evenodd" d="M34 47V49.5L32 47H34Z" fill="#121318"/><path fill-rule="evenodd" clip-rule="evenodd" d="M34 49.5V52H32L34 49.5Z" fill="#121318"/><path fill-rule="evenodd" clip-rule="evenodd" d="M28 47V52L26 49.5L28 47Z" fill="#121318"/><path fill-rule="evenodd" clip-rule="evenodd" d="M30 47V49.5L28 47H30Z" fill="#121318"/><path fill-rule="evenodd" clip-rule="evenodd" d="M30 49.5V52H28L30 49.5Z" fill="#121318"/><path fill-rule="evenodd" clip-rule="evenodd" d="M24 47V52L22 49.5L24 47Z" fill="#121318"/><path fill-rule="evenodd" clip-rule="evenodd" d="M26 47V49.5L24 47H26Z" fill="#121318"/><path fill-rule="evenodd" clip-rule="evenodd" d="M26 49.5V52H24L26 49.5Z" fill="#121318"/><path fill-rule="evenodd" clip-rule="evenodd" d="M20 47V52L18 49.5L20 47Z" fill="#121318"/><path fill-rule="evenodd" clip-rule="evenodd" d="M22 47V49.5L20 47H22Z" fill="#121318"/><path fill-rule="evenodd" clip-rule="evenodd" d="M22 49.5V52H20L22 49.5Z" fill="#121318"/><path fill-rule="evenodd" clip-rule="evenodd" d="M16 47V52L14 49.5L16 47Z" fill="#121318"/><path fill-rule="evenodd" clip-rule="evenodd" d="M18 47V49.5L16 47H18Z" fill="#121318"/><path fill-rule="evenodd" clip-rule="evenodd" d="M18 49.5V52H16L18 49.5Z" fill="#121318"/><path fill-rule="evenodd" clip-rule="evenodd" d="M12 47V52L10 49.5L12 47Z" fill="#121318"/><path fill-rule="evenodd" clip-rule="evenodd" d="M14 47V49.5L12 47H14Z" fill="#121318"/><path fill-rule="evenodd" clip-rule="evenodd" d="M14 49.5V52H12L14 49.5Z" fill="#121318"/><path fill-rule="evenodd" clip-rule="evenodd" d="M8 47V52L6 49.5L8 47Z" fill="#121318"/><path fill-rule="evenodd" clip-rule="evenodd" d="M10 47V49.5L8 47H10Z" fill="#121318"/><path fill-rule="evenodd" clip-rule="evenodd" d="M10 49.5V52H8L10 49.5Z" fill="#121318"/><path fill-rule="evenodd" clip-rule="evenodd" d="M4 47V52L2 49.5L4 47Z" fill="#121318"/><path fill-rule="evenodd" clip-rule="evenodd" d="M6 47V49.5L4 47H6Z" fill="#121318"/><path fill-rule="evenodd" clip-rule="evenodd" d="M6 49.5V52H4L6 49.5Z" fill="#121318"/><path fill-rule="evenodd" clip-rule="evenodd" d="M44 52V57L42 54.5L44 52Z" fill="#121318"/><path fill-rule="evenodd" clip-rule="evenodd" d="M46 52V54.5L44 52H46Z" fill="#121318"/><path fill-rule="evenodd" clip-rule="evenodd" d="M46 54.5V57H44L46 54.5Z" fill="#121318"/><path fill-rule="evenodd" clip-rule="evenodd" d="M40 52V57L38 54.5L40 52Z" fill="#121318"/><path fill-rule="evenodd" clip-rule="evenodd" d="M42 52V54.5L40 52H42Z" fill="#121318"/><path fill-rule="evenodd" clip-rule="evenodd" d="M42 54.5V57H40L42 54.5Z" fill="#121318"/><path fill-rule="evenodd" clip-rule="evenodd" d="M36 52V57L34 54.5L36 52Z" fill="#121318"/><path fill-rule="evenodd" clip-rule="evenodd" d="M38 52V54.5L36 52H38Z" fill="#121318"/><path fill-rule="evenodd" clip-rule="evenodd" d="M38 54.5V57H36L38 54.5Z" fill="#121318"/><path fill-rule="evenodd" clip-rule="evenodd" d="M32 52V57L30 54.5L32 52Z" fill="#121318"/><path fill-rule="evenodd" clip-rule="evenodd" d="M34 52V54.5L32 52H34Z" fill="#121318"/><path fill-rule="evenodd" clip-rule="evenodd" d="M34 54.5V57H32L34 54.5Z" fill="#121318"/><path fill-rule="evenodd" clip-rule="evenodd" d="M28 52V57L26 54.5L28 52Z" fill="#121318"/><path fill-rule="evenodd" clip-rule="evenodd" d="M30 52V54.5L28 52H30Z" fill="#121318"/><path fill-rule="evenodd" clip-rule="evenodd" d="M30 54.5V57H28L30 54.5Z" fill="#121318"/><path fill-rule="evenodd" clip-rule="evenodd" d="M24 52V57L22 54.5L24 52Z" fill="#121318"/><path fill-rule="evenodd" clip-rule="evenodd" d="M26 52V54.5L24 52H26Z" fill="#121318"/><path fill-rule="evenodd" clip-rule="evenodd" d="M26 54.5V57H24L26 54.5Z" fill="#121318"/><path fill-rule="evenodd" clip-rule="evenodd" d="M20 52V57L18 54.5L20 52Z" fill="#121318"/><path fill-rule="evenodd" clip-rule="evenodd" d="M22 52V54.5L20 52H22Z" fill="#121318"/><path fill-rule="evenodd" clip-rule="evenodd" d="M22 54.5V57H20L22 54.5Z" fill="#121318"/><path fill-rule="evenodd" clip-rule="evenodd" d="M16 52V57L14 54.5L16 52Z" fill="#121318"/><path fill-rule="evenodd" clip-rule="evenodd" d="M18 52V54.5L16 52H18Z" fill="#121318"/><path fill-rule="evenodd" clip-rule="evenodd" d="M18 54.5V57H16L18 54.5Z" fill="#121318"/><path fill-rule="evenodd" clip-rule="evenodd" d="M12 52V57L10 54.5L12 52Z" fill="#121318"/><path fill-rule="evenodd" clip-rule="evenodd" d="M14 52V54.5L12 52H14Z" fill="#121318"/><path fill-rule="evenodd" clip-rule="evenodd" d="M14 54.5V57H12L14 54.5Z" fill="#121318"/><path fill-rule="evenodd" clip-rule="evenodd" d="M8 52V57L6 54.5L8 52Z" fill="#121318"/><path fill-rule="evenodd" clip-rule="evenodd" d="M10 52V54.5L8 52H10Z" fill="#121318"/><path fill-rule="evenodd" clip-rule="evenodd" d="M10 54.5V57H8L10 54.5Z" fill="#121318"/><path fill-rule="evenodd" clip-rule="evenodd" d="M4 52V57L2 54.5L4 52Z" fill="#121318"/><path fill-rule="evenodd" clip-rule="evenodd" d="M6 52V54.5L4 52H6Z" fill="#121318"/><path fill-rule="evenodd" clip-rule="evenodd" d="M6 54.5V57H4L6 54.5Z" fill="#121318"/><path fill-rule="evenodd" clip-rule="evenodd" d="M44 57V62L42 59.5L44 57Z" fill="#121318"/><path fill-rule="evenodd" clip-rule="evenodd" d="M46 57V59.5L44 57H46Z" fill="#121318"/><path fill-rule="evenodd" clip-rule="evenodd" d="M46 59.5V62H44L46 59.5Z" fill="#121318"/><path fill-rule="evenodd" clip-rule="evenodd" d="M40 57V62L38 59.5L40 57Z" fill="#121318"/><path fill-rule="evenodd" clip-rule="evenodd" d="M42 57V59.5L40 57H42Z" fill="#121318"/><path fill-rule="evenodd" clip-rule="evenodd" d="M42 59.5V62H40L42 59.5Z" fill="#121318"/><path fill-rule="evenodd" clip-rule="evenodd" d="M36 57V62L34 59.5L36 57Z" fill="#121318"/><path fill-rule="evenodd" clip-rule="evenodd" d="M38 57V59.5L36 57H38Z" fill="#121318"/><path fill-rule="evenodd" clip-rule="evenodd" d="M38 59.5V62H36L38 59.5Z" fill="#121318"/><path fill-rule="evenodd" clip-rule="evenodd" d="M32 57V62L30 59.5L32 57Z" fill="#121318"/><path fill-rule="evenodd" clip-rule="evenodd" d="M34 57V59.5L32 57H34Z" fill="#121318"/><path fill-rule="evenodd" clip-rule="evenodd" d="M34 59.5V62H32L34 59.5Z" fill="#121318"/><path fill-rule="evenodd" clip-rule="evenodd" d="M28 57V62L26 59.5L28 57Z" fill="#121318"/><path fill-rule="evenodd" clip-rule="evenodd" d="M30 57V59.5L28 57H30Z" fill="#121318"/><path fill-rule="evenodd" clip-rule="evenodd" d="M30 59.5V62H28L30 59.5Z" fill="#121318"/><path fill-rule="evenodd" clip-rule="evenodd" d="M24 57V62L22 59.5L24 57Z" fill="#121318"/><path fill-rule="evenodd" clip-rule="evenodd" d="M26 57V59.5L24 57H26Z" fill="#121318"/><path fill-rule="evenodd" clip-rule="evenodd" d="M26 59.5V62H24L26 59.5Z" fill="#121318"/><path fill-rule="evenodd" clip-rule="evenodd" d="M20 57V62L18 59.5L20 57Z" fill="#121318"/><path fill-rule="evenodd" clip-rule="evenodd" d="M22 57V59.5L20 57H22Z" fill="#121318"/><path fill-rule="evenodd" clip-rule="evenodd" d="M22 59.5V62H20L22 59.5Z" fill="#121318"/><path fill-rule="evenodd" clip-rule="evenodd" d="M16 57V62L14 59.5L16 57Z" fill="#121318"/><path fill-rule="evenodd" clip-rule="evenodd" d="M18 57V59.5L16 57H18Z" fill="#121318"/><path fill-rule="evenodd" clip-rule="evenodd" d="M18 59.5V62H16L18 59.5Z" fill="#121318"/><path fill-rule="evenodd" clip-rule="evenodd" d="M12 57V62L10 59.5L12 57Z" fill="#121318"/><path fill-rule="evenodd" clip-rule="evenodd" d="M14 57V59.5L12 57H14Z" fill="#121318"/><path fill-rule="evenodd" clip-rule="evenodd" d="M14 59.5V62H12L14 59.5Z" fill="#121318"/><path fill-rule="evenodd" clip-rule="evenodd" d="M8 57V62L6 59.5L8 57Z" fill="#121318"/><path fill-rule="evenodd" clip-rule="evenodd" d="M10 57V59.5L8 57H10Z" fill="#121318"/><path fill-rule="evenodd" clip-rule="evenodd" d="M10 59.5V62H8L10 59.5Z" fill="#121318"/><path fill-rule="evenodd" clip-rule="evenodd" d="M4 57V62L2 59.5L4 57Z" fill="#121318"/><path fill-rule="evenodd" clip-rule="evenodd" d="M6 57V59.5L4 57H6Z" fill="#121318"/><path fill-rule="evenodd" clip-rule="evenodd" d="M6 59.5V62H4L6 59.5Z" fill="#121318"/><path fill-rule="evenodd" clip-rule="evenodd" d="M44 62V67L42 64.5L44 62Z" fill="#121318"/><path fill-rule="evenodd" clip-rule="evenodd" d="M46 62V64.5L44 62H46Z" fill="#121318"/><path fill-rule="evenodd" clip-rule="evenodd" d="M46 64.5V67H44L46 64.5Z" fill="#121318"/><path fill-rule="evenodd" clip-rule="evenodd" d="M40 62V67L38 64.5L40 62Z" fill="#121318"/><path fill-rule="evenodd" clip-rule="evenodd" d="M42 62V64.5L40 62H42Z" fill="#121318"/><path fill-rule="evenodd" clip-rule="evenodd" d="M42 64.5V67H40L42 64.5Z" fill="#121318"/><path fill-rule="evenodd" clip-rule="evenodd" d="M36 62V67L34 64.5L36 62Z" fill="#121318"/><path fill-rule="evenodd" clip-rule="evenodd" d="M38 62V64.5L36 62H38Z" fill="#121318"/><path fill-rule="evenodd" clip-rule="evenodd" d="M38 64.5V67H36L38 64.5Z" fill="#121318"/><path fill-rule="evenodd" clip-rule="evenodd" d="M32 62V67L30 64.5L32 62Z" fill="#121318"/><path fill-rule="evenodd" clip-rule="evenodd" d="M34 62V64.5L32 62H34Z" fill="#121318"/><path fill-rule="evenodd" clip-rule="evenodd" d="M34 64.5V67H32L34 64.5Z" fill="#121318"/><path fill-rule="evenodd" clip-rule="evenodd" d="M28 62V67L26 64.5L28 62Z" fill="#121318"/><path fill-rule="evenodd" clip-rule="evenodd" d="M30 62V64.5L28 62H30Z" fill="#121318"/><path fill-rule="evenodd" clip-rule="evenodd" d="M30 64.5V67H28L30 64.5Z" fill="#121318"/><path fill-rule="evenodd" clip-rule="evenodd" d="M24 62V67L22 64.5L24 62Z" fill="#121318"/><path fill-rule="evenodd" clip-rule="evenodd" d="M26 62V64.5L24 62H26Z" fill="#121318"/><path fill-rule="evenodd" clip-rule="evenodd" d="M26 64.5V67H24L26 64.5Z" fill="#121318"/><path fill-rule="evenodd" clip-rule="evenodd" d="M20 62V67L18 64.5L20 62Z" fill="#121318"/><path fill-rule="evenodd" clip-rule="evenodd" d="M22 62V64.5L20 62H22Z" fill="#121318"/><path fill-rule="evenodd" clip-rule="evenodd" d="M22 64.5V67H20L22 64.5Z" fill="#121318"/><path fill-rule="evenodd" clip-rule="evenodd" d="M16 62V67L14 64.5L16 62Z" fill="#121318"/><path fill-rule="evenodd" clip-rule="evenodd" d="M18 62V64.5L16 62H18Z" fill="#121318"/><path fill-rule="evenodd" clip-rule="evenodd" d="M18 64.5V67H16L18 64.5Z" fill="#121318"/><path fill-rule="evenodd" clip-rule="evenodd" d="M12 62V67L10 64.5L12 62Z" fill="#121318"/><path fill-rule="evenodd" clip-rule="evenodd" d="M14 62V64.5L12 62H14Z" fill="#121318"/><path fill-rule="evenodd" clip-rule="evenodd" d="M14 64.5V67H12L14 64.5Z" fill="#121318"/><path fill-rule="evenodd" clip-rule="evenodd" d="M8 62V67L6 64.5L8 62Z" fill="#121318"/><path fill-rule="evenodd" clip-rule="evenodd" d="M10 62V64.5L8 62H10Z" fill="#121318"/><path fill-rule="evenodd" clip-rule="evenodd" d="M10 64.5V67H8L10 64.5Z" fill="#121318"/><path fill-rule="evenodd" clip-rule="evenodd" d="M4 62V67L2 64.5L4 62Z" fill="#121318"/><path fill-rule="evenodd" clip-rule="evenodd" d="M6 62V64.5L4 62H6Z" fill="#121318"/><path fill-rule="evenodd" clip-rule="evenodd" d="M6 64.5V67H4L6 64.5Z" fill="#121318"/></g></g><defs><filter id="filter0_i" x="2" y="2" width="44" height="64" filterUnits="userSpaceOnUse" color-interpolation-filters="sRGB"><feFlood flood-opacity="0" result="BackgroundImageFix"/><feBlend mode="normal" in="SourceGraphic" in2="BackgroundImageFix" result="shape"/><feColorMatrix in="SourceAlpha" type="matrix" values="0 0 0 0 0 0 0 0 0 0 0 0 0 0 0 0 0 0 127 0" result="hardAlpha"/><feOffset/><feGaussianBlur stdDeviation="12"/><feComposite in2="hardAlpha" operator="arithmetic" k2="-1" k3="1"/><feColorMatrix type="matrix" values="0 0 0 0 0 0 0 0 0 0 0 0 0 0 0 0 0 0 0.65 0"/><feBlend mode="normal" in2="shape" result="effect1_innerShadow"/></filter></defs></svg>