<svg width="50" height="70" viewBox="0 0 50 70" fill="none" xmlns="http://www.w3.org/2000/svg"><rect x=".75" y=".75" width="48.5" height="68.5" rx="4.25" fill="#fff" stroke="#000" stroke-width=".5"/><path d="M36.627 26.2147C36.3921 25.8781 35.9355 25.7008 35.347 25.7008C34.818 25.7008 34.3317 26.0953 33.7763 26.8393C33.6477 27.0036 33.4767 27.0833 33.3404 27.122C33.3404 26.9922 33.3404 26.8724 33.3404 26.7697C33.3404 26.7697 33.3395 26.3699 33.6695 26.1267C34.4366 25.5879 34.8434 25.1163 34.8434 24.6032C34.8434 24.0324 34.6607 23.5897 34.3136 23.3619C34.0485 23.188 33.4925 22.9565 32.9983 23.0071C32.504 22.9565 31.9482 23.188 31.6831 23.3619C31.3358 23.5896 31.1533 24.0324 31.1533 24.6032C31.1533 25.1164 31.5599 25.588 32.3269 26.1267C32.657 26.3699 32.6561 26.7697 32.6561 26.7697C32.6561 26.8738 32.6561 26.9956 32.6561 27.1276C32.5205 27.0884 32.3511 27.0087 32.2236 26.8458C31.6683 26.1017 31.1819 25.7073 30.6528 25.7073C30.0644 25.7073 29.6078 25.8846 29.3731 26.2212C29.1937 26.4784 28.9551 27.0176 29.0073 27.497C28.9551 27.9763 29.1936 28.5155 29.3731 28.7726C29.6078 29.1093 30.0644 29.2865 30.6528 29.2865C31.1819 29.2865 31.6682 28.8922 32.2236 28.148C32.3511 27.9852 32.5206 27.9055 32.6561 27.8664C32.6561 28.0597 32.6561 28.5759 32.6561 28.8434C32.5107 29.9833 32.3567 30.1986 31.2816 30.6666C31.0236 30.7669 30.908 30.7444 30.908 30.7444C30.908 30.7444 30.9761 31 31.0859 31C31.7419 30.724 32.9998 30.7476 32.9998 30.7476C32.9998 30.7476 34.2581 30.724 34.914 31C35.0238 31 35.0918 30.7444 35.0918 30.7444C35.0918 30.7444 34.9764 30.7669 34.7184 30.6666C33.6411 30.1977 33.4886 29.9825 33.3428 28.8367H33.3403C33.3403 28.566 33.3403 28.0532 33.3403 27.859C33.4766 27.8976 33.6477 27.9773 33.7762 28.1416C34.3316 28.8857 34.8179 29.2802 35.3469 29.2802C35.9354 29.2802 36.392 29.1029 36.6269 28.7663C36.8061 28.5092 37.0448 27.9698 36.9927 27.4905C37.0449 27.011 36.8062 26.4718 36.627 26.2147Z" fill="#000"/><path d="M44.627 19.2147C44.3921 18.8781 43.9355 18.7008 43.347 18.7008C42.818 18.7008 42.3317 19.0953 41.7763 19.8393C41.6477 20.0036 41.4767 20.0833 41.3404 20.122C41.3404 19.9922 41.3404 19.8724 41.3404 19.7697C41.3404 19.7697 41.3395 19.3699 41.6695 19.1267C42.4366 18.5879 42.8434 18.1163 42.8434 17.6032C42.8434 17.0324 42.6607 16.5897 42.3136 16.3619C42.0485 16.188 41.4925 15.9565 40.9983 16.0071C40.504 15.9565 39.9482 16.188 39.6831 16.3619C39.3358 16.5896 39.1533 17.0324 39.1533 17.6032C39.1533 18.1164 39.5599 18.588 40.3269 19.1267C40.657 19.3699 40.6561 19.7697 40.6561 19.7697C40.6561 19.8738 40.6561 19.9956 40.6561 20.1276C40.5205 20.0884 40.3511 20.0087 40.2236 19.8458C39.6683 19.1017 39.1819 18.7073 38.6528 18.7073C38.0644 18.7073 37.6078 18.8846 37.3731 19.2212C37.1937 19.4784 36.9551 20.0176 37.0073 20.497C36.9551 20.9763 37.1936 21.5155 37.3731 21.7726C37.6078 22.1093 38.0644 22.2865 38.6528 22.2865C39.1819 22.2865 39.6682 21.8922 40.2236 21.148C40.3511 20.9852 40.5206 20.9055 40.6561 20.8664C40.6561 21.0597 40.6561 21.5759 40.6561 21.8434C40.5107 22.9833 40.3567 23.1986 39.2816 23.6666C39.0236 23.7669 38.908 23.7444 38.908 23.7444C38.908 23.7444 38.9761 24 39.0859 24C39.7419 23.724 40.9998 23.7476 40.9998 23.7476C40.9998 23.7476 42.2581 23.724 42.914 24C43.0238 24 43.0918 23.7444 43.0918 23.7444C43.0918 23.7444 42.9764 23.7669 42.7184 23.6666C41.6411 23.1977 41.4886 22.9825 41.3428 21.8367H41.3403C41.3403 21.566 41.3403 21.0532 41.3403 20.859C41.4766 20.8976 41.6477 20.9773 41.7762 21.1416C42.3316 21.8857 42.8179 22.2802 43.3469 22.2802C43.9354 22.2802 44.392 22.1029 44.6269 21.7663C44.8061 21.5092 45.0448 20.9698 44.9927 20.4905C45.0449 20.011 44.8062 19.4718 44.627 19.2147Z" fill="#000"/><path d="M28.627 19.2147C28.3921 18.8781 27.9355 18.7008 27.347 18.7008C26.818 18.7008 26.3317 19.0953 25.7763 19.8393C25.6477 20.0036 25.4767 20.0833 25.3404 20.122C25.3404 19.9922 25.3404 19.8724 25.3404 19.7697C25.3404 19.7697 25.3395 19.3699 25.6695 19.1267C26.4366 18.5879 26.8434 18.1163 26.8434 17.6032C26.8434 17.0324 26.6607 16.5897 26.3136 16.3619C26.0485 16.188 25.4925 15.9565 24.9983 16.0071C24.504 15.9565 23.9482 16.188 23.6831 16.3619C23.3358 16.5896 23.1533 17.0324 23.1533 17.6032C23.1533 18.1164 23.5599 18.588 24.3269 19.1267C24.657 19.3699 24.6561 19.7697 24.6561 19.7697C24.6561 19.8738 24.6561 19.9956 24.6561 20.1276C24.5205 20.0884 24.3511 20.0087 24.2236 19.8458C23.6683 19.1017 23.1819 18.7073 22.6528 18.7073C22.0644 18.7073 21.6078 18.8846 21.3731 19.2212C21.1937 19.4784 20.9551 20.0176 21.0073 20.497C20.9551 20.9763 21.1936 21.5155 21.3731 21.7726C21.6078 22.1093 22.0644 22.2865 22.6528 22.2865C23.1819 22.2865 23.6682 21.8922 24.2236 21.148C24.3511 20.9852 24.5206 20.9055 24.6561 20.8664C24.6561 21.0597 24.6561 21.5759 24.6561 21.8434C24.5107 22.9833 24.3567 23.1986 23.2816 23.6666C23.0236 23.7669 22.908 23.7444 22.908 23.7444C22.908 23.7444 22.9761 24 23.0859 24C23.7419 23.724 24.9998 23.7476 24.9998 23.7476C24.9998 23.7476 26.2581 23.724 26.914 24C27.0238 24 27.0918 23.7444 27.0918 23.7444C27.0918 23.7444 26.9764 23.7669 26.7184 23.6666C25.6411 23.1977 25.4886 22.9825 25.3428 21.8367H25.3403C25.3403 21.566 25.3403 21.0532 25.3403 20.859C25.4766 20.8976 25.6477 20.9773 25.7762 21.1416C26.3316 21.8857 26.8179 22.2802 27.3469 22.2802C27.9354 22.2802 28.392 22.1029 28.6269 21.7663C28.8061 21.5092 29.0448 20.9698 28.9927 20.4905C29.0449 20.011 28.8062 19.4718 28.627 19.2147Z" fill="#000"/><path d="M44.627 32.2147C44.3921 31.8781 43.9355 31.7008 43.347 31.7008C42.818 31.7008 42.3317 32.0953 41.7763 32.8393C41.6477 33.0036 41.4767 33.0833 41.3404 33.122C41.3404 32.9922 41.3404 32.8724 41.3404 32.7697C41.3404 32.7697 41.3395 32.3699 41.6695 32.1267C42.4366 31.5879 42.8434 31.1163 42.8434 30.6032C42.8434 30.0324 42.6607 29.5897 42.3136 29.3619C42.0485 29.188 41.4925 28.9565 40.9983 29.0071C40.504 28.9565 39.9482 29.188 39.6831 29.3619C39.3358 29.5896 39.1533 30.0324 39.1533 30.6032C39.1533 31.1164 39.5599 31.588 40.3269 32.1267C40.657 32.3699 40.6561 32.7697 40.6561 32.7697C40.6561 32.8738 40.6561 32.9956 40.6561 33.1276C40.5205 33.0884 40.3511 33.0087 40.2236 32.8458C39.6683 32.1017 39.1819 31.7073 38.6528 31.7073C38.0644 31.7073 37.6078 31.8846 37.3731 32.2212C37.1937 32.4784 36.9551 33.0176 37.0073 33.497C36.9551 33.9763 37.1936 34.5155 37.3731 34.7726C37.6078 35.1093 38.0644 35.2865 38.6528 35.2865C39.1819 35.2865 39.6682 34.8922 40.2236 34.148C40.3511 33.9852 40.5206 33.9055 40.6561 33.8664C40.6561 34.0597 40.6561 34.5759 40.6561 34.8434C40.5107 35.9833 40.3567 36.1986 39.2816 36.6666C39.0236 36.7669 38.908 36.7444 38.908 36.7444C38.908 36.7444 38.9761 37 39.0859 37C39.7419 36.724 40.9998 36.7476 40.9998 36.7476C40.9998 36.7476 42.2581 36.724 42.914 37C43.0238 37 43.0918 36.7444 43.0918 36.7444C43.0918 36.7444 42.9764 36.7669 42.7184 36.6666C41.6411 36.1977 41.4886 35.9825 41.3428 34.8367H41.3403C41.3403 34.566 41.3403 34.0532 41.3403 33.859C41.4766 33.8976 41.6477 33.9773 41.7762 34.1416C42.3316 34.8857 42.8179 35.2802 43.3469 35.2802C43.9354 35.2802 44.392 35.1029 44.6269 34.7663C44.8061 34.5092 45.0448 33.9698 44.9927 33.4905C45.0449 33.011 44.8062 32.4718 44.627 32.2147Z" fill="#000"/><path d="M28.627 32.2147C28.3921 31.8781 27.9355 31.7008 27.347 31.7008C26.818 31.7008 26.3317 32.0953 25.7763 32.8393C25.6477 33.0036 25.4767 33.0833 25.3404 33.122C25.3404 32.9922 25.3404 32.8724 25.3404 32.7697C25.3404 32.7697 25.3395 32.3699 25.6695 32.1267C26.4366 31.5879 26.8434 31.1163 26.8434 30.6032C26.8434 30.0324 26.6607 29.5897 26.3136 29.3619C26.0485 29.188 25.4925 28.9565 24.9983 29.0071C24.504 28.9565 23.9482 29.188 23.6831 29.3619C23.3358 29.5896 23.1533 30.0324 23.1533 30.6032C23.1533 31.1164 23.5599 31.588 24.3269 32.1267C24.657 32.3699 24.6561 32.7697 24.6561 32.7697C24.6561 32.8738 24.6561 32.9956 24.6561 33.1276C24.5205 33.0884 24.3511 33.0087 24.2236 32.8458C23.6683 32.1017 23.1819 31.7073 22.6528 31.7073C22.0644 31.7073 21.6078 31.8846 21.3731 32.2212C21.1937 32.4784 20.9551 33.0176 21.0073 33.497C20.9551 33.9763 21.1936 34.5155 21.3731 34.7726C21.6078 35.1093 22.0644 35.2865 22.6528 35.2865C23.1819 35.2865 23.6682 34.8922 24.2236 34.148C24.3511 33.9852 24.5206 33.9055 24.6561 33.8664C24.6561 34.0597 24.6561 34.5759 24.6561 34.8434C24.5107 35.9833 24.3567 36.1986 23.2816 36.6666C23.0236 36.7669 22.908 36.7444 22.908 36.7444C22.908 36.7444 22.9761 37 23.0859 37C23.7419 36.724 24.9998 36.7476 24.9998 36.7476C24.9998 36.7476 26.2581 36.724 26.914 37C27.0238 37 27.0918 36.7444 27.0918 36.7444C27.0918 36.7444 26.9764 36.7669 26.7184 36.6666C25.6411 36.1977 25.4886 35.9825 25.3428 34.8367H25.3403C25.3403 34.566 25.3403 34.0532 25.3403 33.859C25.4766 33.8976 25.6477 33.9773 25.7762 34.1416C26.3316 34.8857 26.8179 35.2802 27.3469 35.2802C27.9354 35.2802 28.392 35.1029 28.6269 34.7663C28.8061 34.5092 29.0448 33.9698 28.9927 33.4905C29.0449 33.011 28.8062 32.4718 28.627 32.2147Z" fill="#000"/><path d="M36.627 52.2147C36.3921 51.8781 35.9355 51.7008 35.347 51.7008C34.818 51.7008 34.3317 52.0953 33.7763 52.8393C33.6477 53.0036 33.4767 53.0833 33.3404 53.122C33.3404 52.9922 33.3404 52.8724 33.3404 52.7697C33.3404 52.7697 33.3395 52.3699 33.6695 52.1267C34.4366 51.5879 34.8434 51.1163 34.8434 50.6032C34.8434 50.0324 34.6607 49.5897 34.3136 49.3619C34.0485 49.188 33.4925 48.9565 32.9983 49.0071C32.504 48.9565 31.9482 49.188 31.6831 49.3619C31.3358 49.5896 31.1533 50.0324 31.1533 50.6032C31.1533 51.1164 31.5599 51.588 32.3269 52.1267C32.657 52.3699 32.6561 52.7697 32.6561 52.7697C32.6561 52.8738 32.6561 52.9956 32.6561 53.1276C32.5205 53.0884 32.3511 53.0087 32.2236 52.8458C31.6683 52.1017 31.1819 51.7073 30.6528 51.7073C30.0644 51.7073 29.6078 51.8846 29.3731 52.2212C29.1937 52.4784 28.9551 53.0176 29.0073 53.497C28.9551 53.9763 29.1936 54.5155 29.3731 54.7726C29.6078 55.1093 30.0644 55.2865 30.6528 55.2865C31.1819 55.2865 31.6682 54.8922 32.2236 54.148C32.3511 53.9852 32.5206 53.9055 32.6561 53.8664C32.6561 54.0597 32.6561 54.5759 32.6561 54.8434C32.5107 55.9833 32.3567 56.1986 31.2816 56.6666C31.0236 56.7669 30.908 56.7444 30.908 56.7444C30.908 56.7444 30.9761 57 31.0859 57C31.7419 56.724 32.9998 56.7476 32.9998 56.7476C32.9998 56.7476 34.2581 56.724 34.914 57C35.0238 57 35.0918 56.7444 35.0918 56.7444C35.0918 56.7444 34.9764 56.7669 34.7184 56.6666C33.6411 56.1977 33.4886 55.9825 33.3428 54.8367H33.3403C33.3403 54.566 33.3403 54.0532 33.3403 53.859C33.4766 53.8976 33.6477 53.9773 33.7762 54.1416C34.3316 54.8857 34.8179 55.2802 35.3469 55.2802C35.9354 55.2802 36.392 55.1029 36.6269 54.7663C36.8061 54.5092 37.0448 53.9698 36.9927 53.4905C37.0449 53.011 36.8062 52.4718 36.627 52.2147Z" fill="#000"/><path d="M44.627 45.2147C44.3921 44.8781 43.9355 44.7008 43.347 44.7008C42.818 44.7008 42.3317 45.0953 41.7763 45.8393C41.6477 46.0036 41.4767 46.0833 41.3404 46.122C41.3404 45.9922 41.3404 45.8724 41.3404 45.7697C41.3404 45.7697 41.3395 45.3699 41.6695 45.1267C42.4366 44.5879 42.8434 44.1163 42.8434 43.6032C42.8434 43.0324 42.6607 42.5897 42.3136 42.3619C42.0485 42.188 41.4925 41.9565 40.9983 42.0071C40.504 41.9565 39.9482 42.188 39.6831 42.3619C39.3358 42.5896 39.1533 43.0324 39.1533 43.6032C39.1533 44.1164 39.5599 44.588 40.3269 45.1267C40.657 45.3699 40.6561 45.7697 40.6561 45.7697C40.6561 45.8738 40.6561 45.9956 40.6561 46.1276C40.5205 46.0884 40.3511 46.0087 40.2236 45.8458C39.6683 45.1017 39.1819 44.7073 38.6528 44.7073C38.0644 44.7073 37.6078 44.8846 37.3731 45.2212C37.1937 45.4784 36.9551 46.0176 37.0073 46.497C36.9551 46.9763 37.1936 47.5155 37.3731 47.7726C37.6078 48.1093 38.0644 48.2865 38.6528 48.2865C39.1819 48.2865 39.6682 47.8922 40.2236 47.148C40.3511 46.9852 40.5206 46.9055 40.6561 46.8664C40.6561 47.0597 40.6561 47.5759 40.6561 47.8434C40.5107 48.9833 40.3567 49.1986 39.2816 49.6666C39.0236 49.7669 38.908 49.7444 38.908 49.7444C38.908 49.7444 38.9761 50 39.0859 50C39.7419 49.724 40.9998 49.7476 40.9998 49.7476C40.9998 49.7476 42.2581 49.724 42.914 50C43.0238 50 43.0918 49.7444 43.0918 49.7444C43.0918 49.7444 42.9764 49.7669 42.7184 49.6666C41.6411 49.1977 41.4886 48.9825 41.3428 47.8367H41.3403C41.3403 47.566 41.3403 47.0532 41.3403 46.859C41.4766 46.8976 41.6477 46.9773 41.7762 47.1416C42.3316 47.8857 42.8179 48.2802 43.3469 48.2802C43.9354 48.2802 44.392 48.1029 44.6269 47.7663C44.8061 47.5092 45.0448 46.9698 44.9927 46.4905C45.0449 46.011 44.8062 45.4718 44.627 45.2147Z" fill="#000"/><path d="M28.627 45.2147C28.3921 44.8781 27.9355 44.7008 27.347 44.7008C26.818 44.7008 26.3317 45.0953 25.7763 45.8393C25.6477 46.0036 25.4767 46.0833 25.3404 46.122C25.3404 45.9922 25.3404 45.8724 25.3404 45.7697C25.3404 45.7697 25.3395 45.3699 25.6695 45.1267C26.4366 44.5879 26.8434 44.1163 26.8434 43.6032C26.8434 43.0324 26.6607 42.5897 26.3136 42.3619C26.0485 42.188 25.4925 41.9565 24.9983 42.0071C24.504 41.9565 23.9482 42.188 23.6831 42.3619C23.3358 42.5896 23.1533 43.0324 23.1533 43.6032C23.1533 44.1164 23.5599 44.588 24.3269 45.1267C24.657 45.3699 24.6561 45.7697 24.6561 45.7697C24.6561 45.8738 24.6561 45.9956 24.6561 46.1276C24.5205 46.0884 24.3511 46.0087 24.2236 45.8458C23.6683 45.1017 23.1819 44.7073 22.6528 44.7073C22.0644 44.7073 21.6078 44.8846 21.3731 45.2212C21.1937 45.4784 20.9551 46.0176 21.0073 46.497C20.9551 46.9763 21.1936 47.5155 21.3731 47.7726C21.6078 48.1093 22.0644 48.2865 22.6528 48.2865C23.1819 48.2865 23.6682 47.8922 24.2236 47.148C24.3511 46.9852 24.5206 46.9055 24.6561 46.8664C24.6561 47.0597 24.6561 47.5759 24.6561 47.8434C24.5107 48.9833 24.3567 49.1986 23.2816 49.6666C23.0236 49.7669 22.908 49.7444 22.908 49.7444C22.908 49.7444 22.9761 50 23.0859 50C23.7419 49.724 24.9998 49.7476 24.9998 49.7476C24.9998 49.7476 26.2581 49.724 26.914 50C27.0238 50 27.0918 49.7444 27.0918 49.7444C27.0918 49.7444 26.9764 49.7669 26.7184 49.6666C25.6411 49.1977 25.4886 48.9825 25.3428 47.8367H25.3403C25.3403 47.566 25.3403 47.0532 25.3403 46.859C25.4766 46.8976 25.6477 46.9773 25.7762 47.1416C26.3316 47.8857 26.8179 48.2802 27.3469 48.2802C27.9354 48.2802 28.392 48.1029 28.6269 47.7663C28.8061 47.5092 29.0448 46.9698 28.9927 46.4905C29.0449 46.011 28.8062 45.4718 28.627 45.2147Z" fill="#000"/><path d="M44.627 58.2147C44.3921 57.8781 43.9355 57.7008 43.347 57.7008C42.818 57.7008 42.3317 58.0953 41.7763 58.8393C41.6477 59.0036 41.4767 59.0833 41.3404 59.122C41.3404 58.9922 41.3404 58.8724 41.3404 58.7697C41.3404 58.7697 41.3395 58.3699 41.6695 58.1267C42.4366 57.5879 42.8434 57.1163 42.8434 56.6032C42.8434 56.0324 42.6607 55.5897 42.3136 55.3619C42.0485 55.188 41.4925 54.9565 40.9983 55.0071C40.504 54.9565 39.9482 55.188 39.6831 55.3619C39.3358 55.5896 39.1533 56.0324 39.1533 56.6032C39.1533 57.1164 39.5599 57.588 40.3269 58.1267C40.657 58.3699 40.6561 58.7697 40.6561 58.7697C40.6561 58.8738 40.6561 58.9956 40.6561 59.1276C40.5205 59.0884 40.3511 59.0087 40.2236 58.8458C39.6683 58.1017 39.1819 57.7073 38.6528 57.7073C38.0644 57.7073 37.6078 57.8846 37.3731 58.2212C37.1937 58.4784 36.9551 59.0176 37.0073 59.497C36.9551 59.9763 37.1936 60.5155 37.3731 60.7726C37.6078 61.1093 38.0644 61.2865 38.6528 61.2865C39.1819 61.2865 39.6682 60.8922 40.2236 60.148C40.3511 59.9852 40.5206 59.9055 40.6561 59.8664C40.6561 60.0597 40.6561 60.5759 40.6561 60.8434C40.5107 61.9833 40.3567 62.1986 39.2816 62.6666C39.0236 62.7669 38.908 62.7444 38.908 62.7444C38.908 62.7444 38.9761 63 39.0859 63C39.7419 62.724 40.9998 62.7476 40.9998 62.7476C40.9998 62.7476 42.2581 62.724 42.914 63C43.0238 63 43.0918 62.7444 43.0918 62.7444C43.0918 62.7444 42.9764 62.7669 42.7184 62.6666C41.6411 62.1977 41.4886 61.9825 41.3428 60.8367H41.3403C41.3403 60.566 41.3403 60.0532 41.3403 59.859C41.4766 59.8976 41.6477 59.9773 41.7762 60.1416C42.3316 60.8857 42.8179 61.2802 43.3469 61.2802C43.9354 61.2802 44.392 61.1029 44.6269 60.7663C44.8061 60.5092 45.0448 59.9698 44.9927 59.4905C45.0449 59.011 44.8062 58.4718 44.627 58.2147Z" fill="#000"/><path d="M28.627 58.2147C28.3921 57.8781 27.9355 57.7008 27.347 57.7008C26.818 57.7008 26.3317 58.0953 25.7763 58.8393C25.6477 59.0036 25.4767 59.0833 25.3404 59.122C25.3404 58.9922 25.3404 58.8724 25.3404 58.7697C25.3404 58.7697 25.3395 58.3699 25.6695 58.1267C26.4366 57.5879 26.8434 57.1163 26.8434 56.6032C26.8434 56.0324 26.6607 55.5897 26.3136 55.3619C26.0485 55.188 25.4925 54.9565 24.9983 55.0071C24.504 54.9565 23.9482 55.188 23.6831 55.3619C23.3358 55.5896 23.1533 56.0324 23.1533 56.6032C23.1533 57.1164 23.5599 57.588 24.3269 58.1267C24.657 58.3699 24.6561 58.7697 24.6561 58.7697C24.6561 58.8738 24.6561 58.9956 24.6561 59.1276C24.5205 59.0884 24.3511 59.0087 24.2236 58.8458C23.6683 58.1017 23.1819 57.7073 22.6528 57.7073C22.0644 57.7073 21.6078 57.8846 21.3731 58.2212C21.1937 58.4784 20.9551 59.0176 21.0073 59.497C20.9551 59.9763 21.1936 60.5155 21.3731 60.7726C21.6078 61.1093 22.0644 61.2865 22.6528 61.2865C23.1819 61.2865 23.6682 60.8922 24.2236 60.148C24.3511 59.9852 24.5206 59.9055 24.6561 59.8664C24.6561 60.0597 24.6561 60.5759 24.6561 60.8434C24.5107 61.9833 24.3567 62.1986 23.2816 62.6666C23.0236 62.7669 22.908 62.7444 22.908 62.7444C22.908 62.7444 22.9761 63 23.0859 63C23.7419 62.724 24.9998 62.7476 24.9998 62.7476C24.9998 62.7476 26.2581 62.724 26.914 63C27.0238 63 27.0918 62.7444 27.0918 62.7444C27.0918 62.7444 26.9764 62.7669 26.7184 62.6666C25.6411 62.1977 25.4886 61.9825 25.3428 60.8367H25.3403C25.3403 60.566 25.3403 60.0532 25.3403 59.859C25.4766 59.8976 25.6477 59.9773 25.7762 60.1416C26.3316 60.8857 26.8179 61.2802 27.3469 61.2802C27.9354 61.2802 28.392 61.1029 28.6269 60.7663C28.8061 60.5092 29.0448 59.9698 28.9927 59.4905C29.0449 59.011 28.8062 58.4718 28.627 58.2147Z" fill="#000"/><rect opacity=".3" x="19.2" y="13.2" width="27.6" height="53.6" rx="1.8" stroke="#333" stroke-width=".4"/><path d="M2.72617 15.9629L4.42246 15.6641V6.83984H2.34824L2.26035 5.93457L5.29258 5.1084H7.05918V15.6641L8.74668 15.9629L8.5709 17H2.90195L2.72617 15.9629ZM12.4926 17.1934C11.0102 17.1934 9.89687 16.8066 9.15273 16.0332C8.40859 15.2539 8.03652 14.0615 8.03652 12.4561V11.5332C8.03652 9.39453 8.44961 7.75684 9.27578 6.62012C10.102 5.4834 11.2826 4.91504 12.8178 4.91504C14.4232 4.91504 15.5922 5.30176 16.3246 6.0752C17.057 6.84863 17.4232 8.04395 17.4232 9.66113V10.5752C17.4232 12.8193 17.0248 14.4834 16.2279 15.5674C15.4311 16.6514 14.1859 17.1934 12.4926 17.1934ZM14.7514 10.127C14.7514 8.83789 14.602 7.86523 14.3031 7.20898C14.0043 6.55273 13.4799 6.22461 12.7299 6.22461C12.0209 6.22461 11.5053 6.57617 11.183 7.2793C10.8666 7.97656 10.7084 9.13086 10.7084 10.7422V11.9727C10.7084 13.3027 10.8666 14.2871 11.183 14.9258C11.4994 15.5645 12.0092 15.8838 12.7123 15.8838C13.4389 15.8838 13.9604 15.5264 14.2768 14.8115C14.5932 14.0967 14.7514 12.9453 14.7514 11.3574V10.127Z" fill="#000"/><path d="M15.4405 24.822C15.0882 24.3171 14.4032 24.0512 13.5206 24.0512C12.7269 24.0512 11.9976 24.643 11.1644 25.7589C10.9715 26.0054 10.715 26.125 10.5106 26.183C10.5106 25.9883 10.5106 25.8087 10.5106 25.6545C10.5106 25.6545 10.5092 25.0549 11.0042 24.69C12.155 23.8819 12.7651 23.1745 12.7651 22.4049C12.7651 21.5486 12.491 20.8845 11.9703 20.5429C11.5728 20.282 10.7388 19.9347 9.99738 20.0106C9.25598 19.9347 8.42228 20.282 8.0247 20.5429C7.50372 20.8844 7.22996 21.5486 7.22996 22.4049C7.22996 23.1746 7.8398 23.8821 8.99038 24.69C9.48552 25.0549 9.48414 25.6545 9.48414 25.6545C9.48414 25.8107 9.48414 25.9934 9.48414 26.1913C9.28072 26.1326 9.02659 26.0131 8.83533 25.7687C8.00245 24.6526 7.2728 24.061 6.47917 24.061C5.59655 24.061 4.91167 24.3269 4.5597 24.8318C4.2905 25.2176 3.93272 26.0263 4.01094 26.7454C3.93272 27.4644 4.29036 28.2733 4.5597 28.6589C4.91167 29.164 5.59655 29.4298 6.47917 29.4298C7.2728 29.4298 8.00231 28.8383 8.83533 27.722C9.02672 27.4778 9.28086 27.3582 9.48414 27.2997C9.48414 27.5896 9.48414 28.3639 9.48414 28.7651C9.26607 30.475 9.03502 30.7978 7.42233 31.4999C7.03539 31.6503 6.86196 31.6167 6.86196 31.6167C6.86196 31.6167 6.96422 32 7.12881 32C8.11287 31.586 9.99973 31.6214 9.99973 31.6214C9.99973 31.6214 11.8871 31.586 12.8709 32C13.0356 32 13.1378 31.6167 13.1378 31.6167C13.1378 31.6167 12.9646 31.6503 12.5775 31.4999C10.9617 30.7965 10.733 30.4737 10.5142 28.755H10.5105C10.5105 28.349 10.5105 27.5798 10.5105 27.2885C10.7149 27.3465 10.9715 27.466 11.1643 27.7124C11.9974 28.8286 12.7268 29.4202 13.5204 29.4202C14.4031 29.4202 15.0881 29.1543 15.4403 28.6494C15.7091 28.2638 16.0671 27.4548 15.9891 26.7358C16.0673 26.0166 15.7092 25.2077 15.4405 24.822Z" fill="#000"/></svg>