<svg width="50" height="70" viewBox="0 0 50 70" fill="none" xmlns="http://www.w3.org/2000/svg"><rect x=".75" y=".75" width="48.5" height="68.5" rx="4.25" fill="#fff" stroke="#000" stroke-width=".5"/><path fill-rule="evenodd" clip-rule="evenodd" d="M33 31L37 27L33 23L29 27L33 31Z" fill="#CE1311"/><path fill-rule="evenodd" clip-rule="evenodd" d="M41 24L45 20L41 16L37 20L41 24Z" fill="#CE1311"/><path fill-rule="evenodd" clip-rule="evenodd" d="M25 24L29 20L25 16L21 20L25 24Z" fill="#CE1311"/><path fill-rule="evenodd" clip-rule="evenodd" d="M41 37L45 33L41 29L37 33L41 37Z" fill="#CE1311"/><path fill-rule="evenodd" clip-rule="evenodd" d="M25 37L29 33L25 29L21 33L25 37Z" fill="#CE1311"/><path fill-rule="evenodd" clip-rule="evenodd" d="M33 57L37 53L33 49L29 53L33 57Z" fill="#CE1311"/><path fill-rule="evenodd" clip-rule="evenodd" d="M41 50L45 46L41 42L37 46L41 50Z" fill="#CE1311"/><path fill-rule="evenodd" clip-rule="evenodd" d="M25 50L29 46L25 42L21 46L25 50Z" fill="#CE1311"/><path fill-rule="evenodd" clip-rule="evenodd" d="M41 63L45 59L41 55L37 59L41 63Z" fill="#CE1311"/><path fill-rule="evenodd" clip-rule="evenodd" d="M25 63L29 59L25 55L21 59L25 63Z" fill="#CE1311"/><rect opacity=".3" x="19.2" y="13.2" width="27.6" height="53.6" rx="1.8" stroke="#333" stroke-width=".4"/><path d="M2.72617 15.9629L4.42246 15.6641V6.83984H2.34824L2.26035 5.93457L5.29258 5.1084H7.05918V15.6641L8.74668 15.9629L8.5709 17H2.90195L2.72617 15.9629ZM12.4926 17.1934C11.0102 17.1934 9.89687 16.8066 9.15273 16.0332C8.40859 15.2539 8.03652 14.0615 8.03652 12.4561V11.5332C8.03652 9.39453 8.44961 7.75684 9.27578 6.62012C10.102 5.4834 11.2826 4.91504 12.8178 4.91504C14.4232 4.91504 15.5922 5.30176 16.3246 6.0752C17.057 6.84863 17.4232 8.04395 17.4232 9.66113V10.5752C17.4232 12.8193 17.0248 14.4834 16.2279 15.5674C15.4311 16.6514 14.1859 17.1934 12.4926 17.1934ZM14.7514 10.127C14.7514 8.83789 14.602 7.86523 14.3031 7.20898C14.0043 6.55273 13.4799 6.22461 12.7299 6.22461C12.0209 6.22461 11.5053 6.57617 11.183 7.2793C10.8666 7.97656 10.7084 9.13086 10.7084 10.7422V11.9727C10.7084 13.3027 10.8666 14.2871 11.183 14.9258C11.4994 15.5645 12.0092 15.8838 12.7123 15.8838C13.4389 15.8838 13.9604 15.5264 14.2768 14.8115C14.5932 14.0967 14.7514 12.9453 14.7514 11.3574V10.127Z" fill="#CE1311"/><path fill-rule="evenodd" clip-rule="evenodd" d="M10 32L16 26L10 20L4 26L10 32Z" fill="#CE1311"/></svg>