<svg width="50" height="70" viewBox="0 0 50 70" fill="none" xmlns="http://www.w3.org/2000/svg"><rect x=".75" y=".75" width="48.5" height="68.5" rx="4.25" fill="#fff" stroke="#000" stroke-width=".5"/><path d="M37 25.4404C37 28.3291 32.9999 31 32.9999 31C32.9999 31 29 28.3291 29 25.4404C29 24.0926 29.9722 23 31.1714 23C31.9393 23 32.6139 23.4478 32.9999 24.1238C33.386 23.4478 34.0608 23 34.8285 23C36.0278 23 37 24.0926 37 25.4404Z" fill="#CE1311"/><path d="M45 18.4404C45 21.3291 40.9999 24 40.9999 24C40.9999 24 37 21.3291 37 18.4404C37 17.0926 37.9722 16 39.1714 16C39.9393 16 40.6139 16.4478 40.9999 17.1238C41.386 16.4478 42.0608 16 42.8285 16C44.0278 16 45 17.0926 45 18.4404Z" fill="#CE1311"/><path d="M29 18.4404C29 21.3291 24.9999 24 24.9999 24C24.9999 24 21 21.3291 21 18.4404C21 17.0926 21.9722 16 23.1714 16C23.9393 16 24.6139 16.4478 24.9999 17.1238C25.386 16.4478 26.0608 16 26.8285 16C28.0278 16 29 17.0926 29 18.4404Z" fill="#CE1311"/><path d="M45 31.4404C45 34.3291 40.9999 37 40.9999 37C40.9999 37 37 34.3291 37 31.4404C37 30.0926 37.9722 29 39.1714 29C39.9393 29 40.6139 29.4478 40.9999 30.1238C41.386 29.4478 42.0608 29 42.8285 29C44.0278 29 45 30.0926 45 31.4404Z" fill="#CE1311"/><path d="M29 31.4404C29 34.3291 24.9999 37 24.9999 37C24.9999 37 21 34.3291 21 31.4404C21 30.0926 21.9722 29 23.1714 29C23.9393 29 24.6139 29.4478 24.9999 30.1238C25.386 29.4478 26.0608 29 26.8285 29C28.0278 29 29 30.0926 29 31.4404Z" fill="#CE1311"/><path d="M37 51.4404C37 54.3291 32.9999 57 32.9999 57C32.9999 57 29 54.3291 29 51.4404C29 50.0926 29.9722 49 31.1714 49C31.9393 49 32.6139 49.4478 32.9999 50.1238C33.386 49.4478 34.0608 49 34.8285 49C36.0278 49 37 50.0926 37 51.4404Z" fill="#CE1311"/><path d="M45 44.4404C45 47.3291 40.9999 50 40.9999 50C40.9999 50 37 47.3291 37 44.4404C37 43.0926 37.9722 42 39.1714 42C39.9393 42 40.6139 42.4478 40.9999 43.1238C41.386 42.4478 42.0608 42 42.8285 42C44.0278 42 45 43.0926 45 44.4404Z" fill="#CE1311"/><path d="M29 44.4404C29 47.3291 24.9999 50 24.9999 50C24.9999 50 21 47.3291 21 44.4404C21 43.0926 21.9722 42 23.1714 42C23.9393 42 24.6139 42.4478 24.9999 43.1238C25.386 42.4478 26.0608 42 26.8285 42C28.0278 42 29 43.0926 29 44.4404Z" fill="#CE1311"/><path d="M45 57.4404C45 60.3291 40.9999 63 40.9999 63C40.9999 63 37 60.3291 37 57.4404C37 56.0926 37.9722 55 39.1714 55C39.9393 55 40.6139 55.4478 40.9999 56.1238C41.386 55.4478 42.0608 55 42.8285 55C44.0278 55 45 56.0926 45 57.4404Z" fill="#CE1311"/><path d="M29 57.4404C29 60.3291 24.9999 63 24.9999 63C24.9999 63 21 60.3291 21 57.4404C21 56.0926 21.9722 55 23.1714 55C23.9393 55 24.6139 55.4478 24.9999 56.1238C25.386 55.4478 26.0608 55 26.8285 55C28.0278 55 29 56.0926 29 57.4404Z" fill="#CE1311"/><rect opacity=".3" x="19.2" y="13.2" width="27.6" height="53.6" rx="1.8" stroke="#333" stroke-width=".4"/><path d="M2.72617 15.9629L4.42246 15.6641V6.83984H2.34824L2.26035 5.93457L5.29258 5.1084H7.05918V15.6641L8.74668 15.9629L8.5709 17H2.90195L2.72617 15.9629ZM12.4926 17.1934C11.0102 17.1934 9.89687 16.8066 9.15273 16.0332C8.40859 15.2539 8.03652 14.0615 8.03652 12.4561V11.5332C8.03652 9.39453 8.44961 7.75684 9.27578 6.62012C10.102 5.4834 11.2826 4.91504 12.8178 4.91504C14.4232 4.91504 15.5922 5.30176 16.3246 6.0752C17.057 6.84863 17.4232 8.04395 17.4232 9.66113V10.5752C17.4232 12.8193 17.0248 14.4834 16.2279 15.5674C15.4311 16.6514 14.1859 17.1934 12.4926 17.1934ZM14.7514 10.127C14.7514 8.83789 14.602 7.86523 14.3031 7.20898C14.0043 6.55273 13.4799 6.22461 12.7299 6.22461C12.0209 6.22461 11.5053 6.57617 11.183 7.2793C10.8666 7.97656 10.7084 9.13086 10.7084 10.7422V11.9727C10.7084 13.3027 10.8666 14.2871 11.183 14.9258C11.4994 15.5645 12.0092 15.8838 12.7123 15.8838C13.4389 15.8838 13.9604 15.5264 14.2768 14.8115C14.5932 14.0967 14.7514 12.9453 14.7514 11.3574V10.127Z" fill="#CE1311"/><path d="M16 23.6606C16 27.9937 9.99988 32 9.99988 32C9.99988 32 4 27.9937 4 23.6606C4 21.6388 5.45824 20 7.25716 20C8.40892 20 9.42088 20.6717 9.99988 21.6856C10.579 20.6717 11.5912 20 12.7427 20C14.5416 20 16 21.6388 16 23.6606Z" fill="#CE1311"/></svg>