<svg width="50" height="70" viewBox="0 0 50 70" fill="none" xmlns="http://www.w3.org/2000/svg"><rect x=".75" y=".75" width="48.5" height="68.5" rx="4.25" fill="#fff" stroke="#000" stroke-width=".5"/><path d="M33 23C33 23 29 25.9729 29 28.0411C29 28.1768 29.0091 28.2978 29.026 28.406C29.2735 30.0792 31.2484 30.3362 32.818 29.0224C32.3308 29.924 31.5454 31 31.5454 31H34.4545C34.4545 31 33.6693 29.9242 33.182 29.0227C34.8593 30.4265 37 30.0362 37 28.041C37 25.9729 33 23 33 23Z" fill="#000"/><path d="M41 16C41 16 37 18.9729 37 21.0411C37 21.1768 37.0091 21.2978 37.026 21.406C37.2735 23.0792 39.2484 23.3362 40.818 22.0224C40.3308 22.924 39.5454 24 39.5454 24H42.4545C42.4545 24 41.6693 22.9242 41.182 22.0227C42.8593 23.4265 45 23.0362 45 21.041C45 18.9729 41 16 41 16Z" fill="#000"/><path d="M25 16C25 16 21 18.9729 21 21.0411C21 21.1768 21.0091 21.2978 21.026 21.406C21.2735 23.0792 23.2484 23.3362 24.818 22.0224C24.3308 22.924 23.5454 24 23.5454 24H26.4545C26.4545 24 25.6693 22.9242 25.182 22.0227C26.8593 23.4265 29 23.0362 29 21.041C29 18.9729 25 16 25 16Z" fill="#000"/><path d="M41 29C41 29 37 31.9729 37 34.0411C37 34.1768 37.0091 34.2978 37.026 34.406C37.2735 36.0792 39.2484 36.3362 40.818 35.0224C40.3308 35.924 39.5454 37 39.5454 37H42.4545C42.4545 37 41.6693 35.9242 41.182 35.0227C42.8593 36.4265 45 36.0362 45 34.041C45 31.9729 41 29 41 29Z" fill="#000"/><path d="M25 29C25 29 21 31.9729 21 34.0411C21 34.1768 21.0091 34.2978 21.026 34.406C21.2735 36.0792 23.2484 36.3362 24.818 35.0224C24.3308 35.924 23.5454 37 23.5454 37H26.4545C26.4545 37 25.6693 35.9242 25.182 35.0227C26.8593 36.4265 29 36.0362 29 34.041C29 31.9729 25 29 25 29Z" fill="#000"/><path d="M33 49C33 49 29 51.9729 29 54.0411C29 54.1768 29.0091 54.2978 29.026 54.406C29.2735 56.0792 31.2484 56.3362 32.818 55.0224C32.3308 55.924 31.5454 57 31.5454 57H34.4545C34.4545 57 33.6693 55.9242 33.182 55.0227C34.8593 56.4265 37 56.0362 37 54.041C37 51.9729 33 49 33 49Z" fill="#000"/><path d="M41 42C41 42 37 44.9729 37 47.0411C37 47.1768 37.0091 47.2978 37.026 47.406C37.2735 49.0792 39.2484 49.3362 40.818 48.0224C40.3308 48.924 39.5454 50 39.5454 50H42.4545C42.4545 50 41.6693 48.9242 41.182 48.0227C42.8593 49.4265 45 49.0362 45 47.041C45 44.9729 41 42 41 42Z" fill="#000"/><path d="M25 42C25 42 21 44.9729 21 47.0411C21 47.1768 21.0091 47.2978 21.026 47.406C21.2735 49.0792 23.2484 49.3362 24.818 48.0224C24.3308 48.924 23.5454 50 23.5454 50H26.4545C26.4545 50 25.6693 48.9242 25.182 48.0227C26.8593 49.4265 29 49.0362 29 47.041C29 44.9729 25 42 25 42Z" fill="#000"/><path d="M41 55C41 55 37 57.9729 37 60.0411C37 60.1768 37.0091 60.2978 37.026 60.406C37.2735 62.0792 39.2484 62.3362 40.818 61.0224C40.3308 61.924 39.5454 63 39.5454 63H42.4545C42.4545 63 41.6693 61.9242 41.182 61.0227C42.8593 62.4265 45 62.0362 45 60.041C45 57.9729 41 55 41 55Z" fill="#000"/><path d="M25 55C25 55 21 57.9729 21 60.0411C21 60.1768 21.0091 60.2978 21.026 60.406C21.2735 62.0792 23.2484 62.3362 24.818 61.0224C24.3308 61.924 23.5454 63 23.5454 63H26.4545C26.4545 63 25.6693 61.9242 25.182 61.0227C26.8593 62.4265 29 62.0362 29 60.041C29 57.9729 25 55 25 55Z" fill="#000"/><rect opacity=".3" x="19.2" y="13.2" width="27.6" height="53.6" rx="1.8" stroke="#333" stroke-width=".4"/><path d="M2.72617 15.9629L4.42246 15.6641V6.83984H2.34824L2.26035 5.93457L5.29258 5.1084H7.05918V15.6641L8.74668 15.9629L8.5709 17H2.90195L2.72617 15.9629ZM12.4926 17.1934C11.0102 17.1934 9.89687 16.8066 9.15273 16.0332C8.40859 15.2539 8.03652 14.0615 8.03652 12.4561V11.5332C8.03652 9.39453 8.44961 7.75684 9.27578 6.62012C10.102 5.4834 11.2826 4.91504 12.8178 4.91504C14.4232 4.91504 15.5922 5.30176 16.3246 6.0752C17.057 6.84863 17.4232 8.04395 17.4232 9.66113V10.5752C17.4232 12.8193 17.0248 14.4834 16.2279 15.5674C15.4311 16.6514 14.1859 17.1934 12.4926 17.1934ZM14.7514 10.127C14.7514 8.83789 14.602 7.86523 14.3031 7.20898C14.0043 6.55273 13.4799 6.22461 12.7299 6.22461C12.0209 6.22461 11.5053 6.57617 11.183 7.2793C10.8666 7.97656 10.7084 9.13086 10.7084 10.7422V11.9727C10.7084 13.3027 10.8666 14.2871 11.183 14.9258C11.4994 15.5645 12.0092 15.8838 12.7123 15.8838C13.4389 15.8838 13.9604 15.5264 14.2768 14.8115C14.5932 14.0967 14.7514 12.9453 14.7514 11.3574V10.127Z" fill="#000"/><path d="M10 20C10 20 4 24.4593 4 27.5616C4 27.7652 4.01366 27.9467 4.03895 28.109C4.41022 30.6188 7.37255 31.0043 9.72695 29.0335C8.99625 30.386 7.81803 32 7.81803 32H12.1818C12.1818 32 11.0039 30.3864 10.273 29.0341C12.789 31.1398 16 30.5544 16 27.5614C16 24.4593 10 20 10 20Z" fill="#000"/></svg>