<svg width="50" height="70" viewBox="0 0 50 70" fill="none" xmlns="http://www.w3.org/2000/svg"><rect x=".75" y=".75" width="48.5" height="68.5" rx="4.25" fill="#fff" stroke="#000" stroke-width=".5"/><path d="M36.627 19.2147C36.3921 18.8781 35.9355 18.7008 35.347 18.7008C34.818 18.7008 34.3317 19.0953 33.7763 19.8393C33.6477 20.0036 33.4767 20.0833 33.3404 20.122C33.3404 19.9922 33.3404 19.8724 33.3404 19.7697C33.3404 19.7697 33.3395 19.3699 33.6695 19.1267C34.4366 18.5879 34.8434 18.1163 34.8434 17.6032C34.8434 17.0324 34.6607 16.5897 34.3136 16.3619C34.0485 16.188 33.4925 15.9565 32.9983 16.0071C32.504 15.9565 31.9482 16.188 31.6831 16.3619C31.3358 16.5896 31.1533 17.0324 31.1533 17.6032C31.1533 18.1164 31.5599 18.588 32.3269 19.1267C32.657 19.3699 32.6561 19.7697 32.6561 19.7697C32.6561 19.8738 32.6561 19.9956 32.6561 20.1276C32.5205 20.0884 32.3511 20.0087 32.2236 19.8458C31.6683 19.1017 31.1819 18.7073 30.6528 18.7073C30.0644 18.7073 29.6078 18.8846 29.3731 19.2212C29.1937 19.4784 28.9551 20.0176 29.0073 20.497C28.9551 20.9763 29.1936 21.5155 29.3731 21.7726C29.6078 22.1093 30.0644 22.2865 30.6528 22.2865C31.1819 22.2865 31.6682 21.8922 32.2236 21.148C32.3511 20.9852 32.5206 20.9055 32.6561 20.8664C32.6561 21.0597 32.6561 21.5759 32.6561 21.8434C32.5107 22.9833 32.3567 23.1986 31.2816 23.6666C31.0236 23.7669 30.908 23.7444 30.908 23.7444C30.908 23.7444 30.9761 24 31.0859 24C31.7419 23.724 32.9998 23.7476 32.9998 23.7476C32.9998 23.7476 34.2581 23.724 34.914 24C35.0238 24 35.0918 23.7444 35.0918 23.7444C35.0918 23.7444 34.9764 23.7669 34.7184 23.6666C33.6411 23.1977 33.4886 22.9825 33.3428 21.8367H33.3403C33.3403 21.566 33.3403 21.0532 33.3403 20.859C33.4766 20.8976 33.6477 20.9773 33.7762 21.1416C34.3316 21.8857 34.8179 22.2802 35.3469 22.2802C35.9354 22.2802 36.392 22.1029 36.6269 21.7663C36.8061 21.5092 37.0448 20.9698 36.9927 20.4905C37.0449 20.011 36.8062 19.4718 36.627 19.2147Z" fill="#000"/><path d="M36.627 58.2147C36.3921 57.8781 35.9355 57.7008 35.347 57.7008C34.818 57.7008 34.3317 58.0953 33.7763 58.8393C33.6477 59.0036 33.4767 59.0833 33.3404 59.122C33.3404 58.9922 33.3404 58.8724 33.3404 58.7697C33.3404 58.7697 33.3395 58.3699 33.6695 58.1267C34.4366 57.5879 34.8434 57.1163 34.8434 56.6032C34.8434 56.0324 34.6607 55.5897 34.3136 55.3619C34.0485 55.188 33.4925 54.9565 32.9983 55.0071C32.504 54.9565 31.9482 55.188 31.6831 55.3619C31.3358 55.5896 31.1533 56.0324 31.1533 56.6032C31.1533 57.1164 31.5599 57.588 32.3269 58.1267C32.657 58.3699 32.6561 58.7697 32.6561 58.7697C32.6561 58.8738 32.6561 58.9956 32.6561 59.1276C32.5205 59.0884 32.3511 59.0087 32.2236 58.8458C31.6683 58.1017 31.1819 57.7073 30.6528 57.7073C30.0644 57.7073 29.6078 57.8846 29.3731 58.2212C29.1937 58.4784 28.9551 59.0176 29.0073 59.497C28.9551 59.9763 29.1936 60.5155 29.3731 60.7726C29.6078 61.1093 30.0644 61.2865 30.6528 61.2865C31.1819 61.2865 31.6682 60.8922 32.2236 60.148C32.3511 59.9852 32.5206 59.9055 32.6561 59.8664C32.6561 60.0597 32.6561 60.5759 32.6561 60.8434C32.5107 61.9833 32.3567 62.1986 31.2816 62.6666C31.0236 62.7669 30.908 62.7444 30.908 62.7444C30.908 62.7444 30.9761 63 31.0859 63C31.7419 62.724 32.9998 62.7476 32.9998 62.7476C32.9998 62.7476 34.2581 62.724 34.914 63C35.0238 63 35.0918 62.7444 35.0918 62.7444C35.0918 62.7444 34.9764 62.7669 34.7184 62.6666C33.6411 62.1977 33.4886 61.9825 33.3428 60.8367H33.3403C33.3403 60.566 33.3403 60.0532 33.3403 59.859C33.4766 59.8976 33.6477 59.9773 33.7762 60.1416C34.3316 60.8857 34.8179 61.2802 35.3469 61.2802C35.9354 61.2802 36.392 61.1029 36.6269 60.7663C36.8061 60.5092 37.0448 59.9698 36.9927 59.4905C37.0449 59.011 36.8062 58.4718 36.627 58.2147Z" fill="#000"/><rect opacity=".3" x="19.2" y="13.2" width="27.6" height="53.6" rx="1.8" stroke="#333" stroke-width=".4"/><path d="M11.3975 7.85938C11.3975 7.32617 11.2568 6.92187 10.9756 6.64648C10.7002 6.36523 10.293 6.22461 9.75391 6.22461C9.4082 6.22461 9.08301 6.25391 8.77832 6.3125C8.47949 6.37109 8.21582 6.44434 7.9873 6.53223L7.45996 8.4043L6.0625 8.30762V5.83789C6.69531 5.54492 7.35156 5.31934 8.03125 5.16113C8.7168 4.99707 9.38184 4.91504 10.0264 4.91504C11.2861 4.91504 12.2676 5.17578 12.9707 5.69727C13.6797 6.21289 14.0342 6.94238 14.0342 7.88574C14.0342 8.4248 13.8848 8.97852 13.5859 9.54688C13.2871 10.1094 12.8887 10.6865 12.3906 11.2783C11.8926 11.8701 11.3242 12.4766 10.6855 13.0977C10.0469 13.7129 9.3877 14.3398 8.70801 14.9785L8.74316 15.0664H12.0566L12.7773 13.3701L14.1309 13.5723L13.9287 17H5.74609V15.374C6.56055 14.5713 7.31055 13.8271 7.99609 13.1416C8.6875 12.4561 9.28516 11.8115 9.78906 11.208C10.293 10.5986 10.6855 10.0215 10.9668 9.47656C11.2539 8.92578 11.3975 8.38672 11.3975 7.85938Z" fill="#000"/><path d="M15.4405 24.822C15.0882 24.3171 14.4032 24.0512 13.5206 24.0512C12.7269 24.0512 11.9976 24.643 11.1644 25.7589C10.9715 26.0054 10.715 26.125 10.5106 26.183C10.5106 25.9883 10.5106 25.8087 10.5106 25.6545C10.5106 25.6545 10.5092 25.0549 11.0042 24.69C12.155 23.8819 12.7651 23.1745 12.7651 22.4049C12.7651 21.5486 12.491 20.8845 11.9703 20.5429C11.5728 20.282 10.7388 19.9347 9.99738 20.0106C9.25598 19.9347 8.42228 20.282 8.0247 20.5429C7.50372 20.8844 7.22996 21.5486 7.22996 22.4049C7.22996 23.1746 7.8398 23.8821 8.99038 24.69C9.48552 25.0549 9.48414 25.6545 9.48414 25.6545C9.48414 25.8107 9.48414 25.9934 9.48414 26.1913C9.28072 26.1326 9.02659 26.0131 8.83533 25.7687C8.00245 24.6526 7.2728 24.061 6.47917 24.061C5.59655 24.061 4.91167 24.3269 4.5597 24.8318C4.2905 25.2176 3.93272 26.0263 4.01094 26.7454C3.93272 27.4644 4.29036 28.2733 4.5597 28.6589C4.91167 29.164 5.59655 29.4298 6.47917 29.4298C7.2728 29.4298 8.00231 28.8383 8.83533 27.722C9.02672 27.4778 9.28086 27.3582 9.48414 27.2997C9.48414 27.5896 9.48414 28.3639 9.48414 28.7651C9.26607 30.475 9.03502 30.7978 7.42233 31.4999C7.03539 31.6503 6.86196 31.6167 6.86196 31.6167C6.86196 31.6167 6.96422 32 7.12881 32C8.11287 31.586 9.99973 31.6214 9.99973 31.6214C9.99973 31.6214 11.8871 31.586 12.8709 32C13.0356 32 13.1378 31.6167 13.1378 31.6167C13.1378 31.6167 12.9646 31.6503 12.5775 31.4999C10.9617 30.7965 10.733 30.4737 10.5142 28.755H10.5105C10.5105 28.349 10.5105 27.5798 10.5105 27.2885C10.7149 27.3465 10.9715 27.466 11.1643 27.7124C11.9974 28.8286 12.7268 29.4202 13.5204 29.4202C14.4031 29.4202 15.0881 29.1543 15.4403 28.6494C15.7091 28.2638 16.0671 27.4548 15.9891 26.7358C16.0673 26.0166 15.7092 25.2077 15.4405 24.822Z" fill="#000"/></svg>