<svg width="50" height="70" viewBox="0 0 50 70" fill="none" xmlns="http://www.w3.org/2000/svg"><rect x=".75" y=".75" width="48.5" height="68.5" rx="4.25" fill="#fff" stroke="#000" stroke-width=".5"/><path d="M37 18.4404C37 21.3291 32.9999 24 32.9999 24C32.9999 24 29 21.3291 29 18.4404C29 17.0926 29.9722 16 31.1714 16C31.9393 16 32.6139 16.4478 32.9999 17.1238C33.386 16.4478 34.0608 16 34.8285 16C36.0278 16 37 17.0926 37 18.4404Z" fill="#CE1311"/><path d="M37 57.4404C37 60.3291 32.9999 63 32.9999 63C32.9999 63 29 60.3291 29 57.4404C29 56.0926 29.9722 55 31.1714 55C31.9393 55 32.6139 55.4478 32.9999 56.1238C33.386 55.4478 34.0608 55 34.8285 55C36.0278 55 37 56.0926 37 57.4404Z" fill="#CE1311"/><rect opacity=".3" x="19.2" y="13.2" width="27.6" height="53.6" rx="1.8" stroke="#333" stroke-width=".4"/><path d="M11.3975 7.85938C11.3975 7.32617 11.2568 6.92187 10.9756 6.64648C10.7002 6.36523 10.293 6.22461 9.75391 6.22461C9.4082 6.22461 9.08301 6.25391 8.77832 6.3125C8.47949 6.37109 8.21582 6.44434 7.9873 6.53223L7.45996 8.4043L6.0625 8.30762V5.83789C6.69531 5.54492 7.35156 5.31934 8.03125 5.16113C8.7168 4.99707 9.38184 4.91504 10.0264 4.91504C11.2861 4.91504 12.2676 5.17578 12.9707 5.69727C13.6797 6.21289 14.0342 6.94238 14.0342 7.88574C14.0342 8.4248 13.8848 8.97852 13.5859 9.54688C13.2871 10.1094 12.8887 10.6865 12.3906 11.2783C11.8926 11.8701 11.3242 12.4766 10.6855 13.0977C10.0469 13.7129 9.3877 14.3398 8.70801 14.9785L8.74316 15.0664H12.0566L12.7773 13.3701L14.1309 13.5723L13.9287 17H5.74609V15.374C6.56055 14.5713 7.31055 13.8271 7.99609 13.1416C8.6875 12.4561 9.28516 11.8115 9.78906 11.208C10.293 10.5986 10.6855 10.0215 10.9668 9.47656C11.2539 8.92578 11.3975 8.38672 11.3975 7.85938Z" fill="#CE1311"/><path d="M16 23.6606C16 27.9937 9.99988 32 9.99988 32C9.99988 32 4 27.9937 4 23.6606C4 21.6388 5.45824 20 7.25716 20C8.40892 20 9.42088 20.6717 9.99988 21.6856C10.579 20.6717 11.5912 20 12.7427 20C14.5416 20 16 21.6388 16 23.6606Z" fill="#CE1311"/></svg>