<svg width="50" height="70" viewBox="0 0 50 70" fill="none" xmlns="http://www.w3.org/2000/svg"><rect x=".75" y=".75" width="48.5" height="68.5" rx="4.25" fill="#fff" stroke="#000" stroke-width=".5"/><path d="M33 16C33 16 29 18.9729 29 21.0411C29 21.1768 29.0091 21.2978 29.026 21.406C29.2735 23.0792 31.2484 23.3362 32.818 22.0224C32.3308 22.924 31.5454 24 31.5454 24H34.4545C34.4545 24 33.6693 22.9242 33.182 22.0227C34.8593 23.4265 37 23.0362 37 21.041C37 18.9729 33 16 33 16Z" fill="#000"/><path d="M33 55C33 55 29 57.9729 29 60.0411C29 60.1768 29.0091 60.2978 29.026 60.406C29.2735 62.0792 31.2484 62.3362 32.818 61.0224C32.3308 61.924 31.5454 63 31.5454 63H34.4545C34.4545 63 33.6693 61.9242 33.182 61.0227C34.8593 62.4265 37 62.0362 37 60.041C37 57.9729 33 55 33 55Z" fill="#000"/><rect opacity=".3" x="19.2" y="13.2" width="27.6" height="53.6" rx="1.8" stroke="#333" stroke-width=".4"/><path d="M11.3975 7.85938C11.3975 7.32617 11.2568 6.92187 10.9756 6.64648C10.7002 6.36523 10.293 6.22461 9.75391 6.22461C9.4082 6.22461 9.08301 6.25391 8.77832 6.3125C8.47949 6.37109 8.21582 6.44434 7.9873 6.53223L7.45996 8.4043L6.0625 8.30762V5.83789C6.69531 5.54492 7.35156 5.31934 8.03125 5.16113C8.7168 4.99707 9.38184 4.91504 10.0264 4.91504C11.2861 4.91504 12.2676 5.17578 12.9707 5.69727C13.6797 6.21289 14.0342 6.94238 14.0342 7.88574C14.0342 8.4248 13.8848 8.97852 13.5859 9.54688C13.2871 10.1094 12.8887 10.6865 12.3906 11.2783C11.8926 11.8701 11.3242 12.4766 10.6855 13.0977C10.0469 13.7129 9.3877 14.3398 8.70801 14.9785L8.74316 15.0664H12.0566L12.7773 13.3701L14.1309 13.5723L13.9287 17H5.74609V15.374C6.56055 14.5713 7.31055 13.8271 7.99609 13.1416C8.6875 12.4561 9.28516 11.8115 9.78906 11.208C10.293 10.5986 10.6855 10.0215 10.9668 9.47656C11.2539 8.92578 11.3975 8.38672 11.3975 7.85938Z" fill="#000"/><path d="M10 20C10 20 4 24.4593 4 27.5616C4 27.7652 4.01366 27.9467 4.03895 28.109C4.41022 30.6188 7.37255 31.0043 9.72695 29.0335C8.99625 30.386 7.81803 32 7.81803 32H12.1818C12.1818 32 11.0039 30.3864 10.273 29.0341C12.789 31.1398 16 30.5544 16 27.5614C16 24.4593 10 20 10 20Z" fill="#000"/></svg>