<svg width="50" height="70" viewBox="0 0 50 70" fill="none" xmlns="http://www.w3.org/2000/svg"><rect x=".75" y=".75" width="48.5" height="68.5" rx="4.25" fill="#fff" stroke="#000" stroke-width=".5"/><path d="M36.627 19.2147C36.3921 18.8781 35.9355 18.7008 35.347 18.7008C34.818 18.7008 34.3317 19.0953 33.7763 19.8393C33.6477 20.0036 33.4767 20.0833 33.3404 20.122C33.3404 19.9922 33.3404 19.8724 33.3404 19.7697C33.3404 19.7697 33.3395 19.3699 33.6695 19.1267C34.4366 18.5879 34.8434 18.1163 34.8434 17.6032C34.8434 17.0324 34.6607 16.5897 34.3136 16.3619C34.0485 16.188 33.4925 15.9565 32.9983 16.0071C32.504 15.9565 31.9482 16.188 31.6831 16.3619C31.3358 16.5896 31.1533 17.0324 31.1533 17.6032C31.1533 18.1164 31.5599 18.588 32.3269 19.1267C32.657 19.3699 32.6561 19.7697 32.6561 19.7697C32.6561 19.8738 32.6561 19.9956 32.6561 20.1276C32.5205 20.0884 32.3511 20.0087 32.2236 19.8458C31.6683 19.1017 31.1819 18.7073 30.6528 18.7073C30.0644 18.7073 29.6078 18.8846 29.3731 19.2212C29.1937 19.4784 28.9551 20.0176 29.0073 20.497C28.9551 20.9763 29.1936 21.5155 29.3731 21.7726C29.6078 22.1093 30.0644 22.2865 30.6528 22.2865C31.1819 22.2865 31.6682 21.8922 32.2236 21.148C32.3511 20.9852 32.5206 20.9055 32.6561 20.8664C32.6561 21.0597 32.6561 21.5759 32.6561 21.8434C32.5107 22.9833 32.3567 23.1986 31.2816 23.6666C31.0236 23.7669 30.908 23.7444 30.908 23.7444C30.908 23.7444 30.9761 24 31.0859 24C31.7419 23.724 32.9998 23.7476 32.9998 23.7476C32.9998 23.7476 34.2581 23.724 34.914 24C35.0238 24 35.0918 23.7444 35.0918 23.7444C35.0918 23.7444 34.9764 23.7669 34.7184 23.6666C33.6411 23.1977 33.4886 22.9825 33.3428 21.8367H33.3403C33.3403 21.566 33.3403 21.0532 33.3403 20.859C33.4766 20.8976 33.6477 20.9773 33.7762 21.1416C34.3316 21.8857 34.8179 22.2802 35.3469 22.2802C35.9354 22.2802 36.392 22.1029 36.6269 21.7663C36.8061 21.5092 37.0448 20.9698 36.9927 20.4905C37.0449 20.011 36.8062 19.4718 36.627 19.2147Z" fill="#000"/><path d="M36.627 39.2147C36.3921 38.8781 35.9355 38.7008 35.347 38.7008C34.818 38.7008 34.3317 39.0953 33.7763 39.8393C33.6477 40.0036 33.4767 40.0833 33.3404 40.122C33.3404 39.9922 33.3404 39.8724 33.3404 39.7697C33.3404 39.7697 33.3395 39.3699 33.6695 39.1267C34.4366 38.5879 34.8434 38.1163 34.8434 37.6032C34.8434 37.0324 34.6607 36.5897 34.3136 36.3619C34.0485 36.188 33.4925 35.9565 32.9983 36.0071C32.504 35.9565 31.9482 36.188 31.6831 36.3619C31.3358 36.5896 31.1533 37.0324 31.1533 37.6032C31.1533 38.1164 31.5599 38.588 32.3269 39.1267C32.657 39.3699 32.6561 39.7697 32.6561 39.7697C32.6561 39.8738 32.6561 39.9956 32.6561 40.1276C32.5205 40.0884 32.3511 40.0087 32.2236 39.8458C31.6683 39.1017 31.1819 38.7073 30.6528 38.7073C30.0644 38.7073 29.6078 38.8846 29.3731 39.2212C29.1937 39.4784 28.9551 40.0176 29.0073 40.497C28.9551 40.9763 29.1936 41.5155 29.3731 41.7726C29.6078 42.1093 30.0644 42.2865 30.6528 42.2865C31.1819 42.2865 31.6682 41.8922 32.2236 41.148C32.3511 40.9852 32.5206 40.9055 32.6561 40.8664C32.6561 41.0597 32.6561 41.5759 32.6561 41.8434C32.5107 42.9833 32.3567 43.1986 31.2816 43.6666C31.0236 43.7669 30.908 43.7444 30.908 43.7444C30.908 43.7444 30.9761 44 31.0859 44C31.7419 43.724 32.9998 43.7476 32.9998 43.7476C32.9998 43.7476 34.2581 43.724 34.914 44C35.0238 44 35.0918 43.7444 35.0918 43.7444C35.0918 43.7444 34.9764 43.7669 34.7184 43.6666C33.6411 43.1977 33.4886 42.9825 33.3428 41.8367H33.3403C33.3403 41.566 33.3403 41.0532 33.3403 40.859C33.4766 40.8976 33.6477 40.9773 33.7762 41.1416C34.3316 41.8857 34.8179 42.2802 35.3469 42.2802C35.9354 42.2802 36.392 42.1029 36.6269 41.7663C36.8061 41.5092 37.0448 40.9698 36.9927 40.4905C37.0449 40.011 36.8062 39.4718 36.627 39.2147Z" fill="#000"/><path d="M36.627 58.2147C36.3921 57.8781 35.9355 57.7008 35.347 57.7008C34.818 57.7008 34.3317 58.0953 33.7763 58.8393C33.6477 59.0036 33.4767 59.0833 33.3404 59.122C33.3404 58.9922 33.3404 58.8724 33.3404 58.7697C33.3404 58.7697 33.3395 58.3699 33.6695 58.1267C34.4366 57.5879 34.8434 57.1163 34.8434 56.6032C34.8434 56.0324 34.6607 55.5897 34.3136 55.3619C34.0485 55.188 33.4925 54.9565 32.9983 55.0071C32.504 54.9565 31.9482 55.188 31.6831 55.3619C31.3358 55.5896 31.1533 56.0324 31.1533 56.6032C31.1533 57.1164 31.5599 57.588 32.3269 58.1267C32.657 58.3699 32.6561 58.7697 32.6561 58.7697C32.6561 58.8738 32.6561 58.9956 32.6561 59.1276C32.5205 59.0884 32.3511 59.0087 32.2236 58.8458C31.6683 58.1017 31.1819 57.7073 30.6528 57.7073C30.0644 57.7073 29.6078 57.8846 29.3731 58.2212C29.1937 58.4784 28.9551 59.0176 29.0073 59.497C28.9551 59.9763 29.1936 60.5155 29.3731 60.7726C29.6078 61.1093 30.0644 61.2865 30.6528 61.2865C31.1819 61.2865 31.6682 60.8922 32.2236 60.148C32.3511 59.9852 32.5206 59.9055 32.6561 59.8664C32.6561 60.0597 32.6561 60.5759 32.6561 60.8434C32.5107 61.9833 32.3567 62.1986 31.2816 62.6666C31.0236 62.7669 30.908 62.7444 30.908 62.7444C30.908 62.7444 30.9761 63 31.0859 63C31.7419 62.724 32.9998 62.7476 32.9998 62.7476C32.9998 62.7476 34.2581 62.724 34.914 63C35.0238 63 35.0918 62.7444 35.0918 62.7444C35.0918 62.7444 34.9764 62.7669 34.7184 62.6666C33.6411 62.1977 33.4886 61.9825 33.3428 60.8367H33.3403C33.3403 60.566 33.3403 60.0532 33.3403 59.859C33.4766 59.8976 33.6477 59.9773 33.7762 60.1416C34.3316 60.8857 34.8179 61.2802 35.3469 61.2802C35.9354 61.2802 36.392 61.1029 36.6269 60.7663C36.8061 60.5092 37.0448 59.9698 36.9927 59.4905C37.0449 59.011 36.8062 58.4718 36.627 58.2147Z" fill="#000"/><rect opacity=".3" x="19.2" y="13.2" width="27.6" height="53.6" rx="1.8" stroke="#333" stroke-width=".4"/><path d="M9.41113 17.1934C8.84277 17.1934 8.24512 17.1143 7.61816 16.9561C6.99707 16.792 6.45801 16.5957 6.00098 16.3672V13.9238L7.37207 13.8184L7.85547 15.5938C8.04297 15.6641 8.29199 15.7314 8.60254 15.7959C8.91309 15.8545 9.22656 15.8838 9.54297 15.8838C10.0996 15.8838 10.5361 15.6875 10.8525 15.2949C11.1689 14.8965 11.3271 14.3281 11.3271 13.5898C11.3271 12.8633 11.1455 12.3037 10.7822 11.9111C10.4189 11.5127 9.94727 11.3135 9.36719 11.3135H8.28613V10.0039H9.2793C9.82422 10.0039 10.2314 9.83105 10.501 9.48535C10.7705 9.13379 10.9053 8.62988 10.9053 7.97363C10.9053 7.39941 10.7764 6.96582 10.5186 6.67285C10.2607 6.37402 9.87402 6.22461 9.3584 6.22461C9.15332 6.22461 8.94238 6.24219 8.72559 6.27734C8.50879 6.30664 8.29785 6.35352 8.09277 6.41797L7.60059 8.20215L6.23828 8.09668V5.56543C6.71289 5.38379 7.25781 5.23145 7.87305 5.1084C8.48828 4.97949 9.08887 4.91504 9.6748 4.91504C10.9053 4.91504 11.8574 5.16406 12.5312 5.66211C13.2051 6.1543 13.542 6.85449 13.542 7.7627C13.542 8.36621 13.3809 8.91113 13.0586 9.39746C12.7422 9.88379 12.25 10.2705 11.582 10.5576C12.2793 10.751 12.8477 11.1084 13.2871 11.6299C13.7324 12.1455 13.9551 12.749 13.9551 13.4404C13.9551 14.6357 13.5391 15.5615 12.707 16.2178C11.875 16.8682 10.7764 17.1934 9.41113 17.1934Z" fill="#000"/><path d="M15.4405 24.822C15.0882 24.3171 14.4032 24.0512 13.5206 24.0512C12.7269 24.0512 11.9976 24.643 11.1644 25.7589C10.9715 26.0054 10.715 26.125 10.5106 26.183C10.5106 25.9883 10.5106 25.8087 10.5106 25.6545C10.5106 25.6545 10.5092 25.0549 11.0042 24.69C12.155 23.8819 12.7651 23.1745 12.7651 22.4049C12.7651 21.5486 12.491 20.8845 11.9703 20.5429C11.5728 20.282 10.7388 19.9347 9.99738 20.0106C9.25598 19.9347 8.42228 20.282 8.0247 20.5429C7.50372 20.8844 7.22996 21.5486 7.22996 22.4049C7.22996 23.1746 7.8398 23.8821 8.99038 24.69C9.48552 25.0549 9.48414 25.6545 9.48414 25.6545C9.48414 25.8107 9.48414 25.9934 9.48414 26.1913C9.28072 26.1326 9.02659 26.0131 8.83533 25.7687C8.00245 24.6526 7.2728 24.061 6.47917 24.061C5.59655 24.061 4.91167 24.3269 4.5597 24.8318C4.2905 25.2176 3.93272 26.0263 4.01094 26.7454C3.93272 27.4644 4.29036 28.2733 4.5597 28.6589C4.91167 29.164 5.59655 29.4298 6.47917 29.4298C7.2728 29.4298 8.00231 28.8383 8.83533 27.722C9.02672 27.4778 9.28086 27.3582 9.48414 27.2997C9.48414 27.5896 9.48414 28.3639 9.48414 28.7651C9.26607 30.475 9.03502 30.7978 7.42233 31.4999C7.03539 31.6503 6.86196 31.6167 6.86196 31.6167C6.86196 31.6167 6.96422 32 7.12881 32C8.11287 31.586 9.99973 31.6214 9.99973 31.6214C9.99973 31.6214 11.8871 31.586 12.8709 32C13.0356 32 13.1378 31.6167 13.1378 31.6167C13.1378 31.6167 12.9646 31.6503 12.5775 31.4999C10.9617 30.7965 10.733 30.4737 10.5142 28.755H10.5105C10.5105 28.349 10.5105 27.5798 10.5105 27.2885C10.7149 27.3465 10.9715 27.466 11.1643 27.7124C11.9974 28.8286 12.7268 29.4202 13.5204 29.4202C14.4031 29.4202 15.0881 29.1543 15.4403 28.6494C15.7091 28.2638 16.0671 27.4548 15.9891 26.7358C16.0673 26.0166 15.7092 25.2077 15.4405 24.822Z" fill="#000"/></svg>