<svg width="50" height="70" viewBox="0 0 50 70" fill="none" xmlns="http://www.w3.org/2000/svg"><rect x=".75" y=".75" width="48.5" height="68.5" rx="4.25" fill="#fff" stroke="#000" stroke-width=".5"/><path d="M37 18.4404C37 21.3291 32.9999 24 32.9999 24C32.9999 24 29 21.3291 29 18.4404C29 17.0926 29.9722 16 31.1714 16C31.9393 16 32.6139 16.4478 32.9999 17.1238C33.386 16.4478 34.0608 16 34.8285 16C36.0278 16 37 17.0926 37 18.4404Z" fill="#CE1311"/><path d="M37 38.4404C37 41.3291 32.9999 44 32.9999 44C32.9999 44 29 41.3291 29 38.4404C29 37.0926 29.9722 36 31.1714 36C31.9393 36 32.6139 36.4478 32.9999 37.1238C33.386 36.4478 34.0608 36 34.8285 36C36.0278 36 37 37.0926 37 38.4404Z" fill="#CE1311"/><path d="M37 57.4404C37 60.3291 32.9999 63 32.9999 63C32.9999 63 29 60.3291 29 57.4404C29 56.0926 29.9722 55 31.1714 55C31.9393 55 32.6139 55.4478 32.9999 56.1238C33.386 55.4478 34.0608 55 34.8285 55C36.0278 55 37 56.0926 37 57.4404Z" fill="#CE1311"/><rect opacity=".3" x="19.2" y="13.2" width="27.6" height="53.6" rx="1.8" stroke="#333" stroke-width=".4"/><path d="M9.41113 17.1934C8.84277 17.1934 8.24512 17.1143 7.61816 16.9561C6.99707 16.792 6.45801 16.5957 6.00098 16.3672V13.9238L7.37207 13.8184L7.85547 15.5938C8.04297 15.6641 8.29199 15.7314 8.60254 15.7959C8.91309 15.8545 9.22656 15.8838 9.54297 15.8838C10.0996 15.8838 10.5361 15.6875 10.8525 15.2949C11.1689 14.8965 11.3271 14.3281 11.3271 13.5898C11.3271 12.8633 11.1455 12.3037 10.7822 11.9111C10.4189 11.5127 9.94727 11.3135 9.36719 11.3135H8.28613V10.0039H9.2793C9.82422 10.0039 10.2314 9.83105 10.501 9.48535C10.7705 9.13379 10.9053 8.62988 10.9053 7.97363C10.9053 7.39941 10.7764 6.96582 10.5186 6.67285C10.2607 6.37402 9.87402 6.22461 9.3584 6.22461C9.15332 6.22461 8.94238 6.24219 8.72559 6.27734C8.50879 6.30664 8.29785 6.35352 8.09277 6.41797L7.60059 8.20215L6.23828 8.09668V5.56543C6.71289 5.38379 7.25781 5.23145 7.87305 5.1084C8.48828 4.97949 9.08887 4.91504 9.6748 4.91504C10.9053 4.91504 11.8574 5.16406 12.5312 5.66211C13.2051 6.1543 13.542 6.85449 13.542 7.7627C13.542 8.36621 13.3809 8.91113 13.0586 9.39746C12.7422 9.88379 12.25 10.2705 11.582 10.5576C12.2793 10.751 12.8477 11.1084 13.2871 11.6299C13.7324 12.1455 13.9551 12.749 13.9551 13.4404C13.9551 14.6357 13.5391 15.5615 12.707 16.2178C11.875 16.8682 10.7764 17.1934 9.41113 17.1934Z" fill="#CE1311"/><path d="M16 23.6606C16 27.9937 9.99988 32 9.99988 32C9.99988 32 4 27.9937 4 23.6606C4 21.6388 5.45824 20 7.25716 20C8.40892 20 9.42088 20.6717 9.99988 21.6856C10.579 20.6717 11.5912 20 12.7427 20C14.5416 20 16 21.6388 16 23.6606Z" fill="#CE1311"/></svg>