<svg width="50" height="70" viewBox="0 0 50 70" fill="none" xmlns="http://www.w3.org/2000/svg"><rect x=".75" y=".75" width="48.5" height="68.5" rx="4.25" fill="#fff" stroke="#000" stroke-width=".5"/><path d="M33 16C33 16 29 18.9729 29 21.0411C29 21.1768 29.0091 21.2978 29.026 21.406C29.2735 23.0792 31.2484 23.3362 32.818 22.0224C32.3308 22.924 31.5454 24 31.5454 24H34.4545C34.4545 24 33.6693 22.9242 33.182 22.0227C34.8593 23.4265 37 23.0362 37 21.041C37 18.9729 33 16 33 16Z" fill="#000"/><path d="M33 36C33 36 29 38.9729 29 41.0411C29 41.1768 29.0091 41.2978 29.026 41.406C29.2735 43.0792 31.2484 43.3362 32.818 42.0224C32.3308 42.924 31.5454 44 31.5454 44H34.4545C34.4545 44 33.6693 42.9242 33.182 42.0227C34.8593 43.4265 37 43.0362 37 41.041C37 38.9729 33 36 33 36Z" fill="#000"/><path d="M33 55C33 55 29 57.9729 29 60.0411C29 60.1768 29.0091 60.2978 29.026 60.406C29.2735 62.0792 31.2484 62.3362 32.818 61.0224C32.3308 61.924 31.5454 63 31.5454 63H34.4545C34.4545 63 33.6693 61.9242 33.182 61.0227C34.8593 62.4265 37 62.0362 37 60.041C37 57.9729 33 55 33 55Z" fill="#000"/><rect opacity=".3" x="19.2" y="13.2" width="27.6" height="53.6" rx="1.8" stroke="#333" stroke-width=".4"/><path d="M9.41113 17.1934C8.84277 17.1934 8.24512 17.1143 7.61816 16.9561C6.99707 16.792 6.45801 16.5957 6.00098 16.3672V13.9238L7.37207 13.8184L7.85547 15.5938C8.04297 15.6641 8.29199 15.7314 8.60254 15.7959C8.91309 15.8545 9.22656 15.8838 9.54297 15.8838C10.0996 15.8838 10.5361 15.6875 10.8525 15.2949C11.1689 14.8965 11.3271 14.3281 11.3271 13.5898C11.3271 12.8633 11.1455 12.3037 10.7822 11.9111C10.4189 11.5127 9.94727 11.3135 9.36719 11.3135H8.28613V10.0039H9.2793C9.82422 10.0039 10.2314 9.83105 10.501 9.48535C10.7705 9.13379 10.9053 8.62988 10.9053 7.97363C10.9053 7.39941 10.7764 6.96582 10.5186 6.67285C10.2607 6.37402 9.87402 6.22461 9.3584 6.22461C9.15332 6.22461 8.94238 6.24219 8.72559 6.27734C8.50879 6.30664 8.29785 6.35352 8.09277 6.41797L7.60059 8.20215L6.23828 8.09668V5.56543C6.71289 5.38379 7.25781 5.23145 7.87305 5.1084C8.48828 4.97949 9.08887 4.91504 9.6748 4.91504C10.9053 4.91504 11.8574 5.16406 12.5312 5.66211C13.2051 6.1543 13.542 6.85449 13.542 7.7627C13.542 8.36621 13.3809 8.91113 13.0586 9.39746C12.7422 9.88379 12.25 10.2705 11.582 10.5576C12.2793 10.751 12.8477 11.1084 13.2871 11.6299C13.7324 12.1455 13.9551 12.749 13.9551 13.4404C13.9551 14.6357 13.5391 15.5615 12.707 16.2178C11.875 16.8682 10.7764 17.1934 9.41113 17.1934Z" fill="#000"/><path d="M10 20C10 20 4 24.4593 4 27.5616C4 27.7652 4.01366 27.9467 4.03895 28.109C4.41022 30.6188 7.37255 31.0043 9.72695 29.0335C8.99625 30.386 7.81803 32 7.81803 32H12.1818C12.1818 32 11.0039 30.3864 10.273 29.0341C12.789 31.1398 16 30.5544 16 27.5614C16 24.4593 10 20 10 20Z" fill="#000"/></svg>