<svg width="50" height="70" viewBox="0 0 50 70" fill="none" xmlns="http://www.w3.org/2000/svg"><rect x=".75" y=".75" width="48.5" height="68.5" rx="4.25" fill="#fff" stroke="#000" stroke-width=".5"/><path fill-rule="evenodd" clip-rule="evenodd" d="M41 24L45 20L41 16L37 20L41 24Z" fill="#CE1311"/><path fill-rule="evenodd" clip-rule="evenodd" d="M25 24L29 20L25 16L21 20L25 24Z" fill="#CE1311"/><path fill-rule="evenodd" clip-rule="evenodd" d="M41 63L45 59L41 55L37 59L41 63Z" fill="#CE1311"/><path fill-rule="evenodd" clip-rule="evenodd" d="M25 63L29 59L25 55L21 59L25 63Z" fill="#CE1311"/><rect opacity=".3" x="19.2" y="13.2" width="27.6" height="53.6" rx="1.8" stroke="#333" stroke-width=".4"/><path d="M8.70801 15.9629L10.4922 15.6641V14.1699H5.64941L5.38574 13.0977L10.5537 5.1084H13.1377L8.06641 12.7725L8.11035 12.8604H10.4922V10.4434H13.1289V12.8604H14.377L14.5879 13.915L13.1289 14.2139V15.6641L14.5527 15.9629L14.377 17H8.88379L8.70801 15.9629Z" fill="#CE1311"/><path fill-rule="evenodd" clip-rule="evenodd" d="M10 32L16 26L10 20L4 26L10 32Z" fill="#CE1311"/></svg>