<svg width="50" height="70" viewBox="0 0 50 70" fill="none" xmlns="http://www.w3.org/2000/svg"><rect x=".75" y=".75" width="48.5" height="68.5" rx="4.25" fill="#fff" stroke="#000" stroke-width=".5"/><path fill-rule="evenodd" clip-rule="evenodd" d="M33 44L37 40L33 36L29 40L33 44Z" fill="#CE1311"/><path fill-rule="evenodd" clip-rule="evenodd" d="M41 24L45 20L41 16L37 20L41 24Z" fill="#CE1311"/><path fill-rule="evenodd" clip-rule="evenodd" d="M25 24L29 20L25 16L21 20L25 24Z" fill="#CE1311"/><path fill-rule="evenodd" clip-rule="evenodd" d="M41 63L45 59L41 55L37 59L41 63Z" fill="#CE1311"/><path fill-rule="evenodd" clip-rule="evenodd" d="M25 63L29 59L25 55L21 59L25 63Z" fill="#CE1311"/><rect opacity=".3" x="19.2" y="13.2" width="27.6" height="53.6" rx="1.8" stroke="#333" stroke-width=".4"/><path d="M9.60449 17.1934C9.01855 17.1934 8.40039 17.123 7.75 16.9824C7.09961 16.8359 6.50488 16.6484 5.96582 16.4199V13.9854L7.41602 13.915L7.95215 15.6201C8.1748 15.6963 8.43555 15.7607 8.73438 15.8135C9.0332 15.8604 9.34082 15.8838 9.65723 15.8838C10.2666 15.8838 10.75 15.6699 11.1074 15.2422C11.4648 14.8145 11.6436 14.2051 11.6436 13.4141C11.6436 12.6816 11.4531 12.1221 11.0723 11.7354C10.6914 11.3486 10.1289 11.1553 9.38477 11.1553C8.98633 11.1553 8.58496 11.2051 8.18066 11.3047C7.77637 11.4043 7.43945 11.5186 7.16992 11.6475L6.17676 10.7949L6.50195 5.1084H13.6475V7.04199H7.9873L7.81152 10.2236C8.10449 10.0947 8.44727 9.98926 8.83984 9.90723C9.23828 9.81934 9.67188 9.77539 10.1406 9.77539C11.418 9.77539 12.4258 10.0742 13.1641 10.6719C13.9082 11.2695 14.2803 12.1162 14.2803 13.2119C14.2744 14.4248 13.8232 15.3916 12.9268 16.1123C12.0361 16.833 10.9287 17.1934 9.60449 17.1934Z" fill="#CE1311"/><path fill-rule="evenodd" clip-rule="evenodd" d="M10 32L16 26L10 20L4 26L10 32Z" fill="#CE1311"/></svg>