<svg width="50" height="70" viewBox="0 0 50 70" fill="none" xmlns="http://www.w3.org/2000/svg"><rect x=".75" y=".75" width="48.5" height="68.5" rx="4.25" fill="#fff" stroke="#000" stroke-width=".5"/><path d="M37 38.4404C37 41.3291 32.9999 44 32.9999 44C32.9999 44 29 41.3291 29 38.4404C29 37.0926 29.9722 36 31.1714 36C31.9393 36 32.6139 36.4478 32.9999 37.1238C33.386 36.4478 34.0608 36 34.8285 36C36.0278 36 37 37.0926 37 38.4404Z" fill="#CE1311"/><path d="M45 18.4404C45 21.3291 40.9999 24 40.9999 24C40.9999 24 37 21.3291 37 18.4404C37 17.0926 37.9722 16 39.1714 16C39.9393 16 40.6139 16.4478 40.9999 17.1238C41.386 16.4478 42.0608 16 42.8285 16C44.0278 16 45 17.0926 45 18.4404Z" fill="#CE1311"/><path d="M29 18.4404C29 21.3291 24.9999 24 24.9999 24C24.9999 24 21 21.3291 21 18.4404C21 17.0926 21.9722 16 23.1714 16C23.9393 16 24.6139 16.4478 24.9999 17.1238C25.386 16.4478 26.0608 16 26.8285 16C28.0278 16 29 17.0926 29 18.4404Z" fill="#CE1311"/><path d="M45 57.4404C45 60.3291 40.9999 63 40.9999 63C40.9999 63 37 60.3291 37 57.4404C37 56.0926 37.9722 55 39.1714 55C39.9393 55 40.6139 55.4478 40.9999 56.1238C41.386 55.4478 42.0608 55 42.8285 55C44.0278 55 45 56.0926 45 57.4404Z" fill="#CE1311"/><path d="M29 57.4404C29 60.3291 24.9999 63 24.9999 63C24.9999 63 21 60.3291 21 57.4404C21 56.0926 21.9722 55 23.1714 55C23.9393 55 24.6139 55.4478 24.9999 56.1238C25.386 55.4478 26.0608 55 26.8285 55C28.0278 55 29 56.0926 29 57.4404Z" fill="#CE1311"/><rect opacity=".3" x="19.2" y="13.2" width="27.6" height="53.6" rx="1.8" stroke="#333" stroke-width=".4"/><path d="M9.60449 17.1934C9.01855 17.1934 8.40039 17.123 7.75 16.9824C7.09961 16.8359 6.50488 16.6484 5.96582 16.4199V13.9854L7.41602 13.915L7.95215 15.6201C8.1748 15.6963 8.43555 15.7607 8.73438 15.8135C9.0332 15.8604 9.34082 15.8838 9.65723 15.8838C10.2666 15.8838 10.75 15.6699 11.1074 15.2422C11.4648 14.8145 11.6436 14.2051 11.6436 13.4141C11.6436 12.6816 11.4531 12.1221 11.0723 11.7354C10.6914 11.3486 10.1289 11.1553 9.38477 11.1553C8.98633 11.1553 8.58496 11.2051 8.18066 11.3047C7.77637 11.4043 7.43945 11.5186 7.16992 11.6475L6.17676 10.7949L6.50195 5.1084H13.6475V7.04199H7.9873L7.81152 10.2236C8.10449 10.0947 8.44727 9.98926 8.83984 9.90723C9.23828 9.81934 9.67188 9.77539 10.1406 9.77539C11.418 9.77539 12.4258 10.0742 13.1641 10.6719C13.9082 11.2695 14.2803 12.1162 14.2803 13.2119C14.2744 14.4248 13.8232 15.3916 12.9268 16.1123C12.0361 16.833 10.9287 17.1934 9.60449 17.1934Z" fill="#CE1311"/><path d="M16 23.6606C16 27.9937 9.99988 32 9.99988 32C9.99988 32 4 27.9937 4 23.6606C4 21.6388 5.45824 20 7.25716 20C8.40892 20 9.42088 20.6717 9.99988 21.6856C10.579 20.6717 11.5912 20 12.7427 20C14.5416 20 16 21.6388 16 23.6606Z" fill="#CE1311"/></svg>