<svg width="50" height="70" viewBox="0 0 50 70" fill="none" xmlns="http://www.w3.org/2000/svg"><rect x=".75" y=".75" width="48.5" height="68.5" rx="4.25" fill="#fff" stroke="#000" stroke-width=".5"/><path d="M33 36C33 36 29 38.9729 29 41.0411C29 41.1768 29.0091 41.2978 29.026 41.406C29.2735 43.0792 31.2484 43.3362 32.818 42.0224C32.3308 42.924 31.5454 44 31.5454 44H34.4545C34.4545 44 33.6693 42.9242 33.182 42.0227C34.8593 43.4265 37 43.0362 37 41.041C37 38.9729 33 36 33 36Z" fill="#000"/><path d="M41 16C41 16 37 18.9729 37 21.0411C37 21.1768 37.0091 21.2978 37.026 21.406C37.2735 23.0792 39.2484 23.3362 40.818 22.0224C40.3308 22.924 39.5454 24 39.5454 24H42.4545C42.4545 24 41.6693 22.9242 41.182 22.0227C42.8593 23.4265 45 23.0362 45 21.041C45 18.9729 41 16 41 16Z" fill="#000"/><path d="M25 16C25 16 21 18.9729 21 21.0411C21 21.1768 21.0091 21.2978 21.026 21.406C21.2735 23.0792 23.2484 23.3362 24.818 22.0224C24.3308 22.924 23.5454 24 23.5454 24H26.4545C26.4545 24 25.6693 22.9242 25.182 22.0227C26.8593 23.4265 29 23.0362 29 21.041C29 18.9729 25 16 25 16Z" fill="#000"/><path d="M41 55C41 55 37 57.9729 37 60.0411C37 60.1768 37.0091 60.2978 37.026 60.406C37.2735 62.0792 39.2484 62.3362 40.818 61.0224C40.3308 61.924 39.5454 63 39.5454 63H42.4545C42.4545 63 41.6693 61.9242 41.182 61.0227C42.8593 62.4265 45 62.0362 45 60.041C45 57.9729 41 55 41 55Z" fill="#000"/><path d="M25 55C25 55 21 57.9729 21 60.0411C21 60.1768 21.0091 60.2978 21.026 60.406C21.2735 62.0792 23.2484 62.3362 24.818 61.0224C24.3308 61.924 23.5454 63 23.5454 63H26.4545C26.4545 63 25.6693 61.9242 25.182 61.0227C26.8593 62.4265 29 62.0362 29 60.041C29 57.9729 25 55 25 55Z" fill="#000"/><rect opacity=".3" x="19.2" y="13.2" width="27.6" height="53.6" rx="1.8" stroke="#333" stroke-width=".4"/><path d="M9.60449 17.1934C9.01855 17.1934 8.40039 17.123 7.75 16.9824C7.09961 16.8359 6.50488 16.6484 5.96582 16.4199V13.9854L7.41602 13.915L7.95215 15.6201C8.1748 15.6963 8.43555 15.7607 8.73438 15.8135C9.0332 15.8604 9.34082 15.8838 9.65723 15.8838C10.2666 15.8838 10.75 15.6699 11.1074 15.2422C11.4648 14.8145 11.6436 14.2051 11.6436 13.4141C11.6436 12.6816 11.4531 12.1221 11.0723 11.7354C10.6914 11.3486 10.1289 11.1553 9.38477 11.1553C8.98633 11.1553 8.58496 11.2051 8.18066 11.3047C7.77637 11.4043 7.43945 11.5186 7.16992 11.6475L6.17676 10.7949L6.50195 5.1084H13.6475V7.04199H7.9873L7.81152 10.2236C8.10449 10.0947 8.44727 9.98926 8.83984 9.90723C9.23828 9.81934 9.67188 9.77539 10.1406 9.77539C11.418 9.77539 12.4258 10.0742 13.1641 10.6719C13.9082 11.2695 14.2803 12.1162 14.2803 13.2119C14.2744 14.4248 13.8232 15.3916 12.9268 16.1123C12.0361 16.833 10.9287 17.1934 9.60449 17.1934Z" fill="#000"/><path d="M10 20C10 20 4 24.4593 4 27.5616C4 27.7652 4.01366 27.9467 4.03895 28.109C4.41022 30.6188 7.37255 31.0043 9.72695 29.0335C8.99625 30.386 7.81803 32 7.81803 32H12.1818C12.1818 32 11.0039 30.3864 10.273 29.0341C12.789 31.1398 16 30.5544 16 27.5614C16 24.4593 10 20 10 20Z" fill="#000"/></svg>