<svg width="50" height="70" viewBox="0 0 50 70" fill="none" xmlns="http://www.w3.org/2000/svg"><rect x=".75" y=".75" width="48.5" height="68.5" rx="4.25" fill="#fff" stroke="#000" stroke-width=".5"/><path d="M44.627 19.2147C44.3921 18.8781 43.9355 18.7008 43.347 18.7008C42.818 18.7008 42.3317 19.0953 41.7763 19.8393C41.6477 20.0036 41.4767 20.0833 41.3404 20.122C41.3404 19.9922 41.3404 19.8724 41.3404 19.7697C41.3404 19.7697 41.3395 19.3699 41.6695 19.1267C42.4366 18.5879 42.8434 18.1163 42.8434 17.6032C42.8434 17.0324 42.6607 16.5897 42.3136 16.3619C42.0485 16.188 41.4925 15.9565 40.9983 16.0071C40.504 15.9565 39.9482 16.188 39.6831 16.3619C39.3358 16.5896 39.1533 17.0324 39.1533 17.6032C39.1533 18.1164 39.5599 18.588 40.3269 19.1267C40.657 19.3699 40.6561 19.7697 40.6561 19.7697C40.6561 19.8738 40.6561 19.9956 40.6561 20.1276C40.5205 20.0884 40.3511 20.0087 40.2236 19.8458C39.6683 19.1017 39.1819 18.7073 38.6528 18.7073C38.0644 18.7073 37.6078 18.8846 37.3731 19.2212C37.1937 19.4784 36.9551 20.0176 37.0073 20.497C36.9551 20.9763 37.1936 21.5155 37.3731 21.7726C37.6078 22.1093 38.0644 22.2865 38.6528 22.2865C39.1819 22.2865 39.6682 21.8922 40.2236 21.148C40.3511 20.9852 40.5206 20.9055 40.6561 20.8664C40.6561 21.0597 40.6561 21.5759 40.6561 21.8434C40.5107 22.9833 40.3567 23.1986 39.2816 23.6666C39.0236 23.7669 38.908 23.7444 38.908 23.7444C38.908 23.7444 38.9761 24 39.0859 24C39.7419 23.724 40.9998 23.7476 40.9998 23.7476C40.9998 23.7476 42.2581 23.724 42.914 24C43.0238 24 43.0918 23.7444 43.0918 23.7444C43.0918 23.7444 42.9764 23.7669 42.7184 23.6666C41.6411 23.1977 41.4886 22.9825 41.3428 21.8367H41.3403C41.3403 21.566 41.3403 21.0532 41.3403 20.859C41.4766 20.8976 41.6477 20.9773 41.7762 21.1416C42.3316 21.8857 42.8179 22.2802 43.3469 22.2802C43.9354 22.2802 44.392 22.1029 44.6269 21.7663C44.8061 21.5092 45.0448 20.9698 44.9927 20.4905C45.0449 20.011 44.8062 19.4718 44.627 19.2147Z" fill="#000"/><path d="M28.627 19.2147C28.3921 18.8781 27.9355 18.7008 27.347 18.7008C26.818 18.7008 26.3317 19.0953 25.7763 19.8393C25.6477 20.0036 25.4767 20.0833 25.3404 20.122C25.3404 19.9922 25.3404 19.8724 25.3404 19.7697C25.3404 19.7697 25.3395 19.3699 25.6695 19.1267C26.4366 18.5879 26.8434 18.1163 26.8434 17.6032C26.8434 17.0324 26.6607 16.5897 26.3136 16.3619C26.0485 16.188 25.4925 15.9565 24.9983 16.0071C24.504 15.9565 23.9482 16.188 23.6831 16.3619C23.3358 16.5896 23.1533 17.0324 23.1533 17.6032C23.1533 18.1164 23.5599 18.588 24.3269 19.1267C24.657 19.3699 24.6561 19.7697 24.6561 19.7697C24.6561 19.8738 24.6561 19.9956 24.6561 20.1276C24.5205 20.0884 24.3511 20.0087 24.2236 19.8458C23.6683 19.1017 23.1819 18.7073 22.6528 18.7073C22.0644 18.7073 21.6078 18.8846 21.3731 19.2212C21.1937 19.4784 20.9551 20.0176 21.0073 20.497C20.9551 20.9763 21.1936 21.5155 21.3731 21.7726C21.6078 22.1093 22.0644 22.2865 22.6528 22.2865C23.1819 22.2865 23.6682 21.8922 24.2236 21.148C24.3511 20.9852 24.5206 20.9055 24.6561 20.8664C24.6561 21.0597 24.6561 21.5759 24.6561 21.8434C24.5107 22.9833 24.3567 23.1986 23.2816 23.6666C23.0236 23.7669 22.908 23.7444 22.908 23.7444C22.908 23.7444 22.9761 24 23.0859 24C23.7419 23.724 24.9998 23.7476 24.9998 23.7476C24.9998 23.7476 26.2581 23.724 26.914 24C27.0238 24 27.0918 23.7444 27.0918 23.7444C27.0918 23.7444 26.9764 23.7669 26.7184 23.6666C25.6411 23.1977 25.4886 22.9825 25.3428 21.8367H25.3403C25.3403 21.566 25.3403 21.0532 25.3403 20.859C25.4766 20.8976 25.6477 20.9773 25.7762 21.1416C26.3316 21.8857 26.8179 22.2802 27.3469 22.2802C27.9354 22.2802 28.392 22.1029 28.6269 21.7663C28.8061 21.5092 29.0448 20.9698 28.9927 20.4905C29.0449 20.011 28.8062 19.4718 28.627 19.2147Z" fill="#000"/><path d="M44.627 58.2147C44.3921 57.8781 43.9355 57.7008 43.347 57.7008C42.818 57.7008 42.3317 58.0953 41.7763 58.8393C41.6477 59.0036 41.4767 59.0833 41.3404 59.122C41.3404 58.9922 41.3404 58.8724 41.3404 58.7697C41.3404 58.7697 41.3395 58.3699 41.6695 58.1267C42.4366 57.5879 42.8434 57.1163 42.8434 56.6032C42.8434 56.0324 42.6607 55.5897 42.3136 55.3619C42.0485 55.188 41.4925 54.9565 40.9983 55.0071C40.504 54.9565 39.9482 55.188 39.6831 55.3619C39.3358 55.5896 39.1533 56.0324 39.1533 56.6032C39.1533 57.1164 39.5599 57.588 40.3269 58.1267C40.657 58.3699 40.6561 58.7697 40.6561 58.7697C40.6561 58.8738 40.6561 58.9956 40.6561 59.1276C40.5205 59.0884 40.3511 59.0087 40.2236 58.8458C39.6683 58.1017 39.1819 57.7073 38.6528 57.7073C38.0644 57.7073 37.6078 57.8846 37.3731 58.2212C37.1937 58.4784 36.9551 59.0176 37.0073 59.497C36.9551 59.9763 37.1936 60.5155 37.3731 60.7726C37.6078 61.1093 38.0644 61.2865 38.6528 61.2865C39.1819 61.2865 39.6682 60.8922 40.2236 60.148C40.3511 59.9852 40.5206 59.9055 40.6561 59.8664C40.6561 60.0597 40.6561 60.5759 40.6561 60.8434C40.5107 61.9833 40.3567 62.1986 39.2816 62.6666C39.0236 62.7669 38.908 62.7444 38.908 62.7444C38.908 62.7444 38.9761 63 39.0859 63C39.7419 62.724 40.9998 62.7476 40.9998 62.7476C40.9998 62.7476 42.2581 62.724 42.914 63C43.0238 63 43.0918 62.7444 43.0918 62.7444C43.0918 62.7444 42.9764 62.7669 42.7184 62.6666C41.6411 62.1977 41.4886 61.9825 41.3428 60.8367H41.3403C41.3403 60.566 41.3403 60.0532 41.3403 59.859C41.4766 59.8976 41.6477 59.9773 41.7762 60.1416C42.3316 60.8857 42.8179 61.2802 43.3469 61.2802C43.9354 61.2802 44.392 61.1029 44.6269 60.7663C44.8061 60.5092 45.0448 59.9698 44.9927 59.4905C45.0449 59.011 44.8062 58.4718 44.627 58.2147Z" fill="#000"/><path d="M28.627 58.2147C28.3921 57.8781 27.9355 57.7008 27.347 57.7008C26.818 57.7008 26.3317 58.0953 25.7763 58.8393C25.6477 59.0036 25.4767 59.0833 25.3404 59.122C25.3404 58.9922 25.3404 58.8724 25.3404 58.7697C25.3404 58.7697 25.3395 58.3699 25.6695 58.1267C26.4366 57.5879 26.8434 57.1163 26.8434 56.6032C26.8434 56.0324 26.6607 55.5897 26.3136 55.3619C26.0485 55.188 25.4925 54.9565 24.9983 55.0071C24.504 54.9565 23.9482 55.188 23.6831 55.3619C23.3358 55.5896 23.1533 56.0324 23.1533 56.6032C23.1533 57.1164 23.5599 57.588 24.3269 58.1267C24.657 58.3699 24.6561 58.7697 24.6561 58.7697C24.6561 58.8738 24.6561 58.9956 24.6561 59.1276C24.5205 59.0884 24.3511 59.0087 24.2236 58.8458C23.6683 58.1017 23.1819 57.7073 22.6528 57.7073C22.0644 57.7073 21.6078 57.8846 21.3731 58.2212C21.1937 58.4784 20.9551 59.0176 21.0073 59.497C20.9551 59.9763 21.1936 60.5155 21.3731 60.7726C21.6078 61.1093 22.0644 61.2865 22.6528 61.2865C23.1819 61.2865 23.6682 60.8922 24.2236 60.148C24.3511 59.9852 24.5206 59.9055 24.6561 59.8664C24.6561 60.0597 24.6561 60.5759 24.6561 60.8434C24.5107 61.9833 24.3567 62.1986 23.2816 62.6666C23.0236 62.7669 22.908 62.7444 22.908 62.7444C22.908 62.7444 22.9761 63 23.0859 63C23.7419 62.724 24.9998 62.7476 24.9998 62.7476C24.9998 62.7476 26.2581 62.724 26.914 63C27.0238 63 27.0918 62.7444 27.0918 62.7444C27.0918 62.7444 26.9764 62.7669 26.7184 62.6666C25.6411 62.1977 25.4886 61.9825 25.3428 60.8367H25.3403C25.3403 60.566 25.3403 60.0532 25.3403 59.859C25.4766 59.8976 25.6477 59.9773 25.7762 60.1416C26.3316 60.8857 26.8179 61.2802 27.3469 61.2802C27.9354 61.2802 28.392 61.1029 28.6269 60.7663C28.8061 60.5092 29.0448 59.9698 28.9927 59.4905C29.0449 59.011 28.8062 58.4718 28.627 58.2147Z" fill="#000"/><path d="M28.627 39.2147C28.3921 38.8781 27.9355 38.7008 27.347 38.7008C26.818 38.7008 26.3317 39.0953 25.7763 39.8393C25.6477 40.0036 25.4767 40.0833 25.3404 40.122C25.3404 39.9922 25.3404 39.8724 25.3404 39.7697C25.3404 39.7697 25.3395 39.3699 25.6695 39.1267C26.4366 38.5879 26.8434 38.1163 26.8434 37.6032C26.8434 37.0324 26.6607 36.5897 26.3136 36.3619C26.0485 36.188 25.4925 35.9565 24.9983 36.0071C24.504 35.9565 23.9482 36.188 23.6831 36.3619C23.3358 36.5896 23.1533 37.0324 23.1533 37.6032C23.1533 38.1164 23.5599 38.588 24.3269 39.1267C24.657 39.3699 24.6561 39.7697 24.6561 39.7697C24.6561 39.8738 24.6561 39.9956 24.6561 40.1276C24.5205 40.0884 24.3511 40.0087 24.2236 39.8458C23.6683 39.1017 23.1819 38.7073 22.6528 38.7073C22.0644 38.7073 21.6078 38.8846 21.3731 39.2212C21.1937 39.4784 20.9551 40.0176 21.0073 40.497C20.9551 40.9763 21.1936 41.5155 21.3731 41.7726C21.6078 42.1093 22.0644 42.2865 22.6528 42.2865C23.1819 42.2865 23.6682 41.8922 24.2236 41.148C24.3511 40.9852 24.5206 40.9055 24.6561 40.8664C24.6561 41.0597 24.6561 41.5759 24.6561 41.8434C24.5107 42.9833 24.3567 43.1986 23.2816 43.6666C23.0236 43.7669 22.908 43.7444 22.908 43.7444C22.908 43.7444 22.9761 44 23.0859 44C23.7419 43.724 24.9998 43.7476 24.9998 43.7476C24.9998 43.7476 26.2581 43.724 26.914 44C27.0238 44 27.0918 43.7444 27.0918 43.7444C27.0918 43.7444 26.9764 43.7669 26.7184 43.6666C25.6411 43.1977 25.4886 42.9825 25.3428 41.8367H25.3403C25.3403 41.566 25.3403 41.0532 25.3403 40.859C25.4766 40.8976 25.6477 40.9773 25.7762 41.1416C26.3316 41.8857 26.8179 42.2802 27.3469 42.2802C27.9354 42.2802 28.392 42.1029 28.6269 41.7663C28.8061 41.5092 29.0448 40.9698 28.9927 40.4905C29.0449 40.011 28.8062 39.4718 28.627 39.2147Z" fill="#000"/><path d="M44.627 39.2147C44.3921 38.8781 43.9355 38.7008 43.347 38.7008C42.818 38.7008 42.3317 39.0953 41.7763 39.8393C41.6477 40.0036 41.4767 40.0833 41.3404 40.122C41.3404 39.9922 41.3404 39.8724 41.3404 39.7697C41.3404 39.7697 41.3395 39.3699 41.6695 39.1267C42.4366 38.5879 42.8434 38.1163 42.8434 37.6032C42.8434 37.0324 42.6607 36.5897 42.3136 36.3619C42.0485 36.188 41.4925 35.9565 40.9983 36.0071C40.504 35.9565 39.9482 36.188 39.6831 36.3619C39.3358 36.5896 39.1533 37.0324 39.1533 37.6032C39.1533 38.1164 39.5599 38.588 40.3269 39.1267C40.657 39.3699 40.6561 39.7697 40.6561 39.7697C40.6561 39.8738 40.6561 39.9956 40.6561 40.1276C40.5205 40.0884 40.3511 40.0087 40.2236 39.8458C39.6683 39.1017 39.1819 38.7073 38.6528 38.7073C38.0644 38.7073 37.6078 38.8846 37.3731 39.2212C37.1937 39.4784 36.9551 40.0176 37.0073 40.497C36.9551 40.9763 37.1936 41.5155 37.3731 41.7726C37.6078 42.1093 38.0644 42.2865 38.6528 42.2865C39.1819 42.2865 39.6682 41.8922 40.2236 41.148C40.3511 40.9852 40.5206 40.9055 40.6561 40.8664C40.6561 41.0597 40.6561 41.5759 40.6561 41.8434C40.5107 42.9833 40.3567 43.1986 39.2816 43.6666C39.0236 43.7669 38.908 43.7444 38.908 43.7444C38.908 43.7444 38.9761 44 39.0859 44C39.7419 43.724 40.9998 43.7476 40.9998 43.7476C40.9998 43.7476 42.2581 43.724 42.914 44C43.0238 44 43.0918 43.7444 43.0918 43.7444C43.0918 43.7444 42.9764 43.7669 42.7184 43.6666C41.6411 43.1977 41.4886 42.9825 41.3428 41.8367H41.3403C41.3403 41.566 41.3403 41.0532 41.3403 40.859C41.4766 40.8976 41.6477 40.9773 41.7762 41.1416C42.3316 41.8857 42.8179 42.2802 43.3469 42.2802C43.9354 42.2802 44.392 42.1029 44.6269 41.7663C44.8061 41.5092 45.0448 40.9698 44.9927 40.4905C45.0449 40.011 44.8062 39.4718 44.627 39.2147Z" fill="#000"/><rect opacity=".3" x="19.2" y="13.2" width="27.6" height="53.6" rx="1.8" stroke="#333" stroke-width=".4"/><path d="M5.76367 11.9727C5.76367 9.91016 6.37305 8.21973 7.5918 6.90137C8.81055 5.57715 10.2754 4.91504 11.9863 4.91504C12.2383 4.91504 12.5137 4.93262 12.8125 4.96777C13.1172 4.99707 13.4043 5.04395 13.6738 5.1084V6.30371C13.4102 6.28027 13.1553 6.2627 12.9092 6.25098C12.6631 6.2334 12.4199 6.22461 12.1797 6.22461C11.1367 6.22461 10.252 6.65527 9.52539 7.5166C8.80469 8.37793 8.44434 9.42676 8.44434 10.6631L8.53223 10.6982C8.88965 10.4463 9.25586 10.2676 9.63086 10.1621C10.0117 10.0508 10.4482 9.99512 10.9404 9.99512C11.9658 9.99512 12.8213 10.2998 13.5068 10.9092C14.1982 11.5186 14.5439 12.2979 14.5439 13.2471V13.502C14.5439 14.627 14.1455 15.5234 13.3486 16.1914C12.5576 16.8594 11.4971 17.1934 10.167 17.1934C8.72559 17.1934 7.62988 16.8008 6.87988 16.0156C6.13574 15.2305 5.76367 14.0938 5.76367 12.6055V11.9727ZM11.9072 13.5898C11.9072 12.8926 11.7344 12.3389 11.3887 11.9287C11.043 11.5127 10.5889 11.3047 10.0264 11.3047C9.78613 11.3047 9.52832 11.3428 9.25293 11.4189C8.97754 11.4951 8.70801 11.6064 8.44434 11.7529V12.4209C8.44434 13.5283 8.60254 14.3838 8.91895 14.9873C9.23535 15.585 9.70117 15.8838 10.3164 15.8838C10.8203 15.8838 11.21 15.6963 11.4854 15.3213C11.7666 14.9404 11.9072 14.4102 11.9072 13.7305V13.5898Z" fill="#000"/><path d="M15.4405 24.822C15.0882 24.3171 14.4032 24.0512 13.5206 24.0512C12.7269 24.0512 11.9976 24.643 11.1644 25.7589C10.9715 26.0054 10.715 26.125 10.5106 26.183C10.5106 25.9883 10.5106 25.8087 10.5106 25.6545C10.5106 25.6545 10.5092 25.0549 11.0042 24.69C12.155 23.8819 12.7651 23.1745 12.7651 22.4049C12.7651 21.5486 12.491 20.8845 11.9703 20.5429C11.5728 20.282 10.7388 19.9347 9.99738 20.0106C9.25598 19.9347 8.42228 20.282 8.0247 20.5429C7.50372 20.8844 7.22996 21.5486 7.22996 22.4049C7.22996 23.1746 7.8398 23.8821 8.99038 24.69C9.48552 25.0549 9.48414 25.6545 9.48414 25.6545C9.48414 25.8107 9.48414 25.9934 9.48414 26.1913C9.28072 26.1326 9.02659 26.0131 8.83533 25.7687C8.00245 24.6526 7.2728 24.061 6.47917 24.061C5.59655 24.061 4.91167 24.3269 4.5597 24.8318C4.2905 25.2176 3.93272 26.0263 4.01094 26.7454C3.93272 27.4644 4.29036 28.2733 4.5597 28.6589C4.91167 29.164 5.59655 29.4298 6.47917 29.4298C7.2728 29.4298 8.00231 28.8383 8.83533 27.722C9.02672 27.4778 9.28086 27.3582 9.48414 27.2997C9.48414 27.5896 9.48414 28.3639 9.48414 28.7651C9.26607 30.475 9.03502 30.7978 7.42233 31.4999C7.03539 31.6503 6.86196 31.6167 6.86196 31.6167C6.86196 31.6167 6.96422 32 7.12881 32C8.11287 31.586 9.99973 31.6214 9.99973 31.6214C9.99973 31.6214 11.8871 31.586 12.8709 32C13.0356 32 13.1378 31.6167 13.1378 31.6167C13.1378 31.6167 12.9646 31.6503 12.5775 31.4999C10.9617 30.7965 10.733 30.4737 10.5142 28.755H10.5105C10.5105 28.349 10.5105 27.5798 10.5105 27.2885C10.7149 27.3465 10.9715 27.466 11.1643 27.7124C11.9974 28.8286 12.7268 29.4202 13.5204 29.4202C14.4031 29.4202 15.0881 29.1543 15.4403 28.6494C15.7091 28.2638 16.0671 27.4548 15.9891 26.7358C16.0673 26.0166 15.7092 25.2077 15.4405 24.822Z" fill="#000"/></svg>