<svg width="50" height="70" viewBox="0 0 50 70" fill="none" xmlns="http://www.w3.org/2000/svg"><rect x=".75" y=".75" width="48.5" height="68.5" rx="4.25" fill="#fff" stroke="#000" stroke-width=".5"/><path d="M45 18.4404C45 21.3291 40.9999 24 40.9999 24C40.9999 24 37 21.3291 37 18.4404C37 17.0926 37.9722 16 39.1714 16C39.9393 16 40.6139 16.4478 40.9999 17.1238C41.386 16.4478 42.0608 16 42.8285 16C44.0278 16 45 17.0926 45 18.4404Z" fill="#CE1311"/><path d="M29 18.4404C29 21.3291 24.9999 24 24.9999 24C24.9999 24 21 21.3291 21 18.4404C21 17.0926 21.9722 16 23.1714 16C23.9393 16 24.6139 16.4478 24.9999 17.1238C25.386 16.4478 26.0608 16 26.8285 16C28.0278 16 29 17.0926 29 18.4404Z" fill="#CE1311"/><path d="M45 57.4404C45 60.3291 40.9999 63 40.9999 63C40.9999 63 37 60.3291 37 57.4404C37 56.0926 37.9722 55 39.1714 55C39.9393 55 40.6139 55.4478 40.9999 56.1238C41.386 55.4478 42.0608 55 42.8285 55C44.0278 55 45 56.0926 45 57.4404Z" fill="#CE1311"/><path d="M29 57.4404C29 60.3291 24.9999 63 24.9999 63C24.9999 63 21 60.3291 21 57.4404C21 56.0926 21.9722 55 23.1714 55C23.9393 55 24.6139 55.4478 24.9999 56.1238C25.386 55.4478 26.0608 55 26.8285 55C28.0278 55 29 56.0926 29 57.4404Z" fill="#CE1311"/><path d="M29 38.4404C29 41.3291 24.9999 44 24.9999 44C24.9999 44 21 41.3291 21 38.4404C21 37.0926 21.9722 36 23.1714 36C23.9393 36 24.6139 36.4478 24.9999 37.1238C25.386 36.4478 26.0608 36 26.8285 36C28.0278 36 29 37.0926 29 38.4404Z" fill="#CE1311"/><path d="M45 38.4404C45 41.3291 40.9999 44 40.9999 44C40.9999 44 37 41.3291 37 38.4404C37 37.0926 37.9722 36 39.1714 36C39.9393 36 40.6139 36.4478 40.9999 37.1238C41.386 36.4478 42.0608 36 42.8285 36C44.0278 36 45 37.0926 45 38.4404Z" fill="#CE1311"/><rect opacity=".3" x="19.2" y="13.2" width="27.6" height="53.6" rx="1.8" stroke="#333" stroke-width=".4"/><path d="M5.76367 11.9727C5.76367 9.91016 6.37305 8.21973 7.5918 6.90137C8.81055 5.57715 10.2754 4.91504 11.9863 4.91504C12.2383 4.91504 12.5137 4.93262 12.8125 4.96777C13.1172 4.99707 13.4043 5.04395 13.6738 5.1084V6.30371C13.4102 6.28027 13.1553 6.2627 12.9092 6.25098C12.6631 6.2334 12.4199 6.22461 12.1797 6.22461C11.1367 6.22461 10.252 6.65527 9.52539 7.5166C8.80469 8.37793 8.44434 9.42676 8.44434 10.6631L8.53223 10.6982C8.88965 10.4463 9.25586 10.2676 9.63086 10.1621C10.0117 10.0508 10.4482 9.99512 10.9404 9.99512C11.9658 9.99512 12.8213 10.2998 13.5068 10.9092C14.1982 11.5186 14.5439 12.2979 14.5439 13.2471V13.502C14.5439 14.627 14.1455 15.5234 13.3486 16.1914C12.5576 16.8594 11.4971 17.1934 10.167 17.1934C8.72559 17.1934 7.62988 16.8008 6.87988 16.0156C6.13574 15.2305 5.76367 14.0938 5.76367 12.6055V11.9727ZM11.9072 13.5898C11.9072 12.8926 11.7344 12.3389 11.3887 11.9287C11.043 11.5127 10.5889 11.3047 10.0264 11.3047C9.78613 11.3047 9.52832 11.3428 9.25293 11.4189C8.97754 11.4951 8.70801 11.6064 8.44434 11.7529V12.4209C8.44434 13.5283 8.60254 14.3838 8.91895 14.9873C9.23535 15.585 9.70117 15.8838 10.3164 15.8838C10.8203 15.8838 11.21 15.6963 11.4854 15.3213C11.7666 14.9404 11.9072 14.4102 11.9072 13.7305V13.5898Z" fill="#CE1311"/><path d="M16 23.6606C16 27.9937 9.99988 32 9.99988 32C9.99988 32 4 27.9937 4 23.6606C4 21.6388 5.45824 20 7.25716 20C8.40892 20 9.42088 20.6717 9.99988 21.6856C10.579 20.6717 11.5912 20 12.7427 20C14.5416 20 16 21.6388 16 23.6606Z" fill="#CE1311"/></svg>