<svg width="50" height="70" viewBox="0 0 50 70" fill="none" xmlns="http://www.w3.org/2000/svg"><rect x=".75" y=".75" width="48.5" height="68.5" rx="4.25" fill="#fff" stroke="#000" stroke-width=".5"/><path d="M41 16C41 16 37 18.9729 37 21.0411C37 21.1768 37.0091 21.2978 37.026 21.406C37.2735 23.0792 39.2484 23.3362 40.818 22.0224C40.3308 22.924 39.5454 24 39.5454 24H42.4545C42.4545 24 41.6693 22.9242 41.182 22.0227C42.8593 23.4265 45 23.0362 45 21.041C45 18.9729 41 16 41 16Z" fill="#000"/><path d="M25 16C25 16 21 18.9729 21 21.0411C21 21.1768 21.0091 21.2978 21.026 21.406C21.2735 23.0792 23.2484 23.3362 24.818 22.0224C24.3308 22.924 23.5454 24 23.5454 24H26.4545C26.4545 24 25.6693 22.9242 25.182 22.0227C26.8593 23.4265 29 23.0362 29 21.041C29 18.9729 25 16 25 16Z" fill="#000"/><path d="M41 55C41 55 37 57.9729 37 60.0411C37 60.1768 37.0091 60.2978 37.026 60.406C37.2735 62.0792 39.2484 62.3362 40.818 61.0224C40.3308 61.924 39.5454 63 39.5454 63H42.4545C42.4545 63 41.6693 61.9242 41.182 61.0227C42.8593 62.4265 45 62.0362 45 60.041C45 57.9729 41 55 41 55Z" fill="#000"/><path d="M25 55C25 55 21 57.9729 21 60.0411C21 60.1768 21.0091 60.2978 21.026 60.406C21.2735 62.0792 23.2484 62.3362 24.818 61.0224C24.3308 61.924 23.5454 63 23.5454 63H26.4545C26.4545 63 25.6693 61.9242 25.182 61.0227C26.8593 62.4265 29 62.0362 29 60.041C29 57.9729 25 55 25 55Z" fill="#000"/><path d="M25 36C25 36 21 38.9729 21 41.0411C21 41.1768 21.0091 41.2978 21.026 41.406C21.2735 43.0792 23.2484 43.3362 24.818 42.0224C24.3308 42.924 23.5454 44 23.5454 44H26.4545C26.4545 44 25.6693 42.9242 25.182 42.0227C26.8593 43.4265 29 43.0362 29 41.041C29 38.9729 25 36 25 36Z" fill="#000"/><path d="M41 36C41 36 37 38.9729 37 41.0411C37 41.1768 37.0091 41.2978 37.026 41.406C37.2735 43.0792 39.2484 43.3362 40.818 42.0224C40.3308 42.924 39.5454 44 39.5454 44H42.4545C42.4545 44 41.6693 42.9242 41.182 42.0227C42.8593 43.4265 45 43.0362 45 41.041C45 38.9729 41 36 41 36Z" fill="#000"/><rect opacity=".3" x="19.2" y="13.2" width="27.6" height="53.6" rx="1.8" stroke="#333" stroke-width=".4"/><path d="M5.76367 11.9727C5.76367 9.91016 6.37305 8.21973 7.5918 6.90137C8.81055 5.57715 10.2754 4.91504 11.9863 4.91504C12.2383 4.91504 12.5137 4.93262 12.8125 4.96777C13.1172 4.99707 13.4043 5.04395 13.6738 5.1084V6.30371C13.4102 6.28027 13.1553 6.2627 12.9092 6.25098C12.6631 6.2334 12.4199 6.22461 12.1797 6.22461C11.1367 6.22461 10.252 6.65527 9.52539 7.5166C8.80469 8.37793 8.44434 9.42676 8.44434 10.6631L8.53223 10.6982C8.88965 10.4463 9.25586 10.2676 9.63086 10.1621C10.0117 10.0508 10.4482 9.99512 10.9404 9.99512C11.9658 9.99512 12.8213 10.2998 13.5068 10.9092C14.1982 11.5186 14.5439 12.2979 14.5439 13.2471V13.502C14.5439 14.627 14.1455 15.5234 13.3486 16.1914C12.5576 16.8594 11.4971 17.1934 10.167 17.1934C8.72559 17.1934 7.62988 16.8008 6.87988 16.0156C6.13574 15.2305 5.76367 14.0938 5.76367 12.6055V11.9727ZM11.9072 13.5898C11.9072 12.8926 11.7344 12.3389 11.3887 11.9287C11.043 11.5127 10.5889 11.3047 10.0264 11.3047C9.78613 11.3047 9.52832 11.3428 9.25293 11.4189C8.97754 11.4951 8.70801 11.6064 8.44434 11.7529V12.4209C8.44434 13.5283 8.60254 14.3838 8.91895 14.9873C9.23535 15.585 9.70117 15.8838 10.3164 15.8838C10.8203 15.8838 11.21 15.6963 11.4854 15.3213C11.7666 14.9404 11.9072 14.4102 11.9072 13.7305V13.5898Z" fill="#000"/><path d="M10 20C10 20 4 24.4593 4 27.5616C4 27.7652 4.01366 27.9467 4.03895 28.109C4.41022 30.6188 7.37255 31.0043 9.72695 29.0335C8.99625 30.386 7.81803 32 7.81803 32H12.1818C12.1818 32 11.0039 30.3864 10.273 29.0341C12.789 31.1398 16 30.5544 16 27.5614C16 24.4593 10 20 10 20Z" fill="#000"/></svg>