<svg width="50" height="70" viewBox="0 0 50 70" fill="none" xmlns="http://www.w3.org/2000/svg"><rect x=".75" y=".75" width="48.5" height="68.5" rx="4.25" fill="#fff" stroke="#000" stroke-width=".5"/><path d="M44.627 19.2147C44.3921 18.8781 43.9355 18.7008 43.347 18.7008C42.818 18.7008 42.3317 19.0953 41.7763 19.8393C41.6477 20.0036 41.4767 20.0833 41.3404 20.122C41.3404 19.9922 41.3404 19.8724 41.3404 19.7697C41.3404 19.7697 41.3395 19.3699 41.6695 19.1267C42.4366 18.5879 42.8434 18.1163 42.8434 17.6032C42.8434 17.0324 42.6607 16.5897 42.3136 16.3619C42.0485 16.188 41.4925 15.9565 40.9983 16.0071C40.504 15.9565 39.9482 16.188 39.6831 16.3619C39.3358 16.5896 39.1533 17.0324 39.1533 17.6032C39.1533 18.1164 39.5599 18.588 40.3269 19.1267C40.657 19.3699 40.6561 19.7697 40.6561 19.7697C40.6561 19.8738 40.6561 19.9956 40.6561 20.1276C40.5205 20.0884 40.3511 20.0087 40.2236 19.8458C39.6683 19.1017 39.1819 18.7073 38.6528 18.7073C38.0644 18.7073 37.6078 18.8846 37.3731 19.2212C37.1937 19.4784 36.9551 20.0176 37.0073 20.497C36.9551 20.9763 37.1936 21.5155 37.3731 21.7726C37.6078 22.1093 38.0644 22.2865 38.6528 22.2865C39.1819 22.2865 39.6682 21.8922 40.2236 21.148C40.3511 20.9852 40.5206 20.9055 40.6561 20.8664C40.6561 21.0597 40.6561 21.5759 40.6561 21.8434C40.5107 22.9833 40.3567 23.1986 39.2816 23.6666C39.0236 23.7669 38.908 23.7444 38.908 23.7444C38.908 23.7444 38.9761 24 39.0859 24C39.7419 23.724 40.9998 23.7476 40.9998 23.7476C40.9998 23.7476 42.2581 23.724 42.914 24C43.0238 24 43.0918 23.7444 43.0918 23.7444C43.0918 23.7444 42.9764 23.7669 42.7184 23.6666C41.6411 23.1977 41.4886 22.9825 41.3428 21.8367H41.3403C41.3403 21.566 41.3403 21.0532 41.3403 20.859C41.4766 20.8976 41.6477 20.9773 41.7762 21.1416C42.3316 21.8857 42.8179 22.2802 43.3469 22.2802C43.9354 22.2802 44.392 22.1029 44.6269 21.7663C44.8061 21.5092 45.0448 20.9698 44.9927 20.4905C45.0449 20.011 44.8062 19.4718 44.627 19.2147Z" fill="#000"/><path d="M28.627 19.2147C28.3921 18.8781 27.9355 18.7008 27.347 18.7008C26.818 18.7008 26.3317 19.0953 25.7763 19.8393C25.6477 20.0036 25.4767 20.0833 25.3404 20.122C25.3404 19.9922 25.3404 19.8724 25.3404 19.7697C25.3404 19.7697 25.3395 19.3699 25.6695 19.1267C26.4366 18.5879 26.8434 18.1163 26.8434 17.6032C26.8434 17.0324 26.6607 16.5897 26.3136 16.3619C26.0485 16.188 25.4925 15.9565 24.9983 16.0071C24.504 15.9565 23.9482 16.188 23.6831 16.3619C23.3358 16.5896 23.1533 17.0324 23.1533 17.6032C23.1533 18.1164 23.5599 18.588 24.3269 19.1267C24.657 19.3699 24.6561 19.7697 24.6561 19.7697C24.6561 19.8738 24.6561 19.9956 24.6561 20.1276C24.5205 20.0884 24.3511 20.0087 24.2236 19.8458C23.6683 19.1017 23.1819 18.7073 22.6528 18.7073C22.0644 18.7073 21.6078 18.8846 21.3731 19.2212C21.1937 19.4784 20.9551 20.0176 21.0073 20.497C20.9551 20.9763 21.1936 21.5155 21.3731 21.7726C21.6078 22.1093 22.0644 22.2865 22.6528 22.2865C23.1819 22.2865 23.6682 21.8922 24.2236 21.148C24.3511 20.9852 24.5206 20.9055 24.6561 20.8664C24.6561 21.0597 24.6561 21.5759 24.6561 21.8434C24.5107 22.9833 24.3567 23.1986 23.2816 23.6666C23.0236 23.7669 22.908 23.7444 22.908 23.7444C22.908 23.7444 22.9761 24 23.0859 24C23.7419 23.724 24.9998 23.7476 24.9998 23.7476C24.9998 23.7476 26.2581 23.724 26.914 24C27.0238 24 27.0918 23.7444 27.0918 23.7444C27.0918 23.7444 26.9764 23.7669 26.7184 23.6666C25.6411 23.1977 25.4886 22.9825 25.3428 21.8367H25.3403C25.3403 21.566 25.3403 21.0532 25.3403 20.859C25.4766 20.8976 25.6477 20.9773 25.7762 21.1416C26.3316 21.8857 26.8179 22.2802 27.3469 22.2802C27.9354 22.2802 28.392 22.1029 28.6269 21.7663C28.8061 21.5092 29.0448 20.9698 28.9927 20.4905C29.0449 20.011 28.8062 19.4718 28.627 19.2147Z" fill="#000"/><path d="M44.627 58.2147C44.3921 57.8781 43.9355 57.7008 43.347 57.7008C42.818 57.7008 42.3317 58.0953 41.7763 58.8393C41.6477 59.0036 41.4767 59.0833 41.3404 59.122C41.3404 58.9922 41.3404 58.8724 41.3404 58.7697C41.3404 58.7697 41.3395 58.3699 41.6695 58.1267C42.4366 57.5879 42.8434 57.1163 42.8434 56.6032C42.8434 56.0324 42.6607 55.5897 42.3136 55.3619C42.0485 55.188 41.4925 54.9565 40.9983 55.0071C40.504 54.9565 39.9482 55.188 39.6831 55.3619C39.3358 55.5896 39.1533 56.0324 39.1533 56.6032C39.1533 57.1164 39.5599 57.588 40.3269 58.1267C40.657 58.3699 40.6561 58.7697 40.6561 58.7697C40.6561 58.8738 40.6561 58.9956 40.6561 59.1276C40.5205 59.0884 40.3511 59.0087 40.2236 58.8458C39.6683 58.1017 39.1819 57.7073 38.6528 57.7073C38.0644 57.7073 37.6078 57.8846 37.3731 58.2212C37.1937 58.4784 36.9551 59.0176 37.0073 59.497C36.9551 59.9763 37.1936 60.5155 37.3731 60.7726C37.6078 61.1093 38.0644 61.2865 38.6528 61.2865C39.1819 61.2865 39.6682 60.8922 40.2236 60.148C40.3511 59.9852 40.5206 59.9055 40.6561 59.8664C40.6561 60.0597 40.6561 60.5759 40.6561 60.8434C40.5107 61.9833 40.3567 62.1986 39.2816 62.6666C39.0236 62.7669 38.908 62.7444 38.908 62.7444C38.908 62.7444 38.9761 63 39.0859 63C39.7419 62.724 40.9998 62.7476 40.9998 62.7476C40.9998 62.7476 42.2581 62.724 42.914 63C43.0238 63 43.0918 62.7444 43.0918 62.7444C43.0918 62.7444 42.9764 62.7669 42.7184 62.6666C41.6411 62.1977 41.4886 61.9825 41.3428 60.8367H41.3403C41.3403 60.566 41.3403 60.0532 41.3403 59.859C41.4766 59.8976 41.6477 59.9773 41.7762 60.1416C42.3316 60.8857 42.8179 61.2802 43.3469 61.2802C43.9354 61.2802 44.392 61.1029 44.6269 60.7663C44.8061 60.5092 45.0448 59.9698 44.9927 59.4905C45.0449 59.011 44.8062 58.4718 44.627 58.2147Z" fill="#000"/><path d="M28.627 58.2147C28.3921 57.8781 27.9355 57.7008 27.347 57.7008C26.818 57.7008 26.3317 58.0953 25.7763 58.8393C25.6477 59.0036 25.4767 59.0833 25.3404 59.122C25.3404 58.9922 25.3404 58.8724 25.3404 58.7697C25.3404 58.7697 25.3395 58.3699 25.6695 58.1267C26.4366 57.5879 26.8434 57.1163 26.8434 56.6032C26.8434 56.0324 26.6607 55.5897 26.3136 55.3619C26.0485 55.188 25.4925 54.9565 24.9983 55.0071C24.504 54.9565 23.9482 55.188 23.6831 55.3619C23.3358 55.5896 23.1533 56.0324 23.1533 56.6032C23.1533 57.1164 23.5599 57.588 24.3269 58.1267C24.657 58.3699 24.6561 58.7697 24.6561 58.7697C24.6561 58.8738 24.6561 58.9956 24.6561 59.1276C24.5205 59.0884 24.3511 59.0087 24.2236 58.8458C23.6683 58.1017 23.1819 57.7073 22.6528 57.7073C22.0644 57.7073 21.6078 57.8846 21.3731 58.2212C21.1937 58.4784 20.9551 59.0176 21.0073 59.497C20.9551 59.9763 21.1936 60.5155 21.3731 60.7726C21.6078 61.1093 22.0644 61.2865 22.6528 61.2865C23.1819 61.2865 23.6682 60.8922 24.2236 60.148C24.3511 59.9852 24.5206 59.9055 24.6561 59.8664C24.6561 60.0597 24.6561 60.5759 24.6561 60.8434C24.5107 61.9833 24.3567 62.1986 23.2816 62.6666C23.0236 62.7669 22.908 62.7444 22.908 62.7444C22.908 62.7444 22.9761 63 23.0859 63C23.7419 62.724 24.9998 62.7476 24.9998 62.7476C24.9998 62.7476 26.2581 62.724 26.914 63C27.0238 63 27.0918 62.7444 27.0918 62.7444C27.0918 62.7444 26.9764 62.7669 26.7184 62.6666C25.6411 62.1977 25.4886 61.9825 25.3428 60.8367H25.3403C25.3403 60.566 25.3403 60.0532 25.3403 59.859C25.4766 59.8976 25.6477 59.9773 25.7762 60.1416C26.3316 60.8857 26.8179 61.2802 27.3469 61.2802C27.9354 61.2802 28.392 61.1029 28.6269 60.7663C28.8061 60.5092 29.0448 59.9698 28.9927 59.4905C29.0449 59.011 28.8062 58.4718 28.627 58.2147Z" fill="#000"/><path d="M28.627 39.2147C28.3921 38.8781 27.9355 38.7008 27.347 38.7008C26.818 38.7008 26.3317 39.0953 25.7763 39.8393C25.6477 40.0036 25.4767 40.0833 25.3404 40.122C25.3404 39.9922 25.3404 39.8724 25.3404 39.7697C25.3404 39.7697 25.3395 39.3699 25.6695 39.1267C26.4366 38.5879 26.8434 38.1163 26.8434 37.6032C26.8434 37.0324 26.6607 36.5897 26.3136 36.3619C26.0485 36.188 25.4925 35.9565 24.9983 36.0071C24.504 35.9565 23.9482 36.188 23.6831 36.3619C23.3358 36.5896 23.1533 37.0324 23.1533 37.6032C23.1533 38.1164 23.5599 38.588 24.3269 39.1267C24.657 39.3699 24.6561 39.7697 24.6561 39.7697C24.6561 39.8738 24.6561 39.9956 24.6561 40.1276C24.5205 40.0884 24.3511 40.0087 24.2236 39.8458C23.6683 39.1017 23.1819 38.7073 22.6528 38.7073C22.0644 38.7073 21.6078 38.8846 21.3731 39.2212C21.1937 39.4784 20.9551 40.0176 21.0073 40.497C20.9551 40.9763 21.1936 41.5155 21.3731 41.7726C21.6078 42.1093 22.0644 42.2865 22.6528 42.2865C23.1819 42.2865 23.6682 41.8922 24.2236 41.148C24.3511 40.9852 24.5206 40.9055 24.6561 40.8664C24.6561 41.0597 24.6561 41.5759 24.6561 41.8434C24.5107 42.9833 24.3567 43.1986 23.2816 43.6666C23.0236 43.7669 22.908 43.7444 22.908 43.7444C22.908 43.7444 22.9761 44 23.0859 44C23.7419 43.724 24.9998 43.7476 24.9998 43.7476C24.9998 43.7476 26.2581 43.724 26.914 44C27.0238 44 27.0918 43.7444 27.0918 43.7444C27.0918 43.7444 26.9764 43.7669 26.7184 43.6666C25.6411 43.1977 25.4886 42.9825 25.3428 41.8367H25.3403C25.3403 41.566 25.3403 41.0532 25.3403 40.859C25.4766 40.8976 25.6477 40.9773 25.7762 41.1416C26.3316 41.8857 26.8179 42.2802 27.3469 42.2802C27.9354 42.2802 28.392 42.1029 28.6269 41.7663C28.8061 41.5092 29.0448 40.9698 28.9927 40.4905C29.0449 40.011 28.8062 39.4718 28.627 39.2147Z" fill="#000"/><path d="M36.627 29.2147C36.3921 28.8781 35.9355 28.7008 35.347 28.7008C34.818 28.7008 34.3317 29.0953 33.7763 29.8393C33.6477 30.0036 33.4767 30.0833 33.3404 30.122C33.3404 29.9922 33.3404 29.8724 33.3404 29.7697C33.3404 29.7697 33.3395 29.3699 33.6695 29.1267C34.4366 28.5879 34.8434 28.1163 34.8434 27.6032C34.8434 27.0324 34.6607 26.5897 34.3136 26.3619C34.0485 26.188 33.4925 25.9565 32.9983 26.0071C32.504 25.9565 31.9482 26.188 31.6831 26.3619C31.3358 26.5896 31.1533 27.0324 31.1533 27.6032C31.1533 28.1164 31.5599 28.588 32.3269 29.1267C32.657 29.3699 32.6561 29.7697 32.6561 29.7697C32.6561 29.8738 32.6561 29.9956 32.6561 30.1276C32.5205 30.0884 32.3511 30.0087 32.2236 29.8458C31.6683 29.1017 31.1819 28.7073 30.6528 28.7073C30.0644 28.7073 29.6078 28.8846 29.3731 29.2212C29.1937 29.4784 28.9551 30.0176 29.0073 30.497C28.9551 30.9763 29.1936 31.5155 29.3731 31.7726C29.6078 32.1093 30.0644 32.2865 30.6528 32.2865C31.1819 32.2865 31.6682 31.8922 32.2236 31.148C32.3511 30.9852 32.5206 30.9055 32.6561 30.8664C32.6561 31.0597 32.6561 31.5759 32.6561 31.8434C32.5107 32.9833 32.3567 33.1986 31.2816 33.6666C31.0236 33.7669 30.908 33.7444 30.908 33.7444C30.908 33.7444 30.9761 34 31.0859 34C31.7419 33.724 32.9998 33.7476 32.9998 33.7476C32.9998 33.7476 34.2581 33.724 34.914 34C35.0238 34 35.0918 33.7444 35.0918 33.7444C35.0918 33.7444 34.9764 33.7669 34.7184 33.6666C33.6411 33.1977 33.4886 32.9825 33.3428 31.8367H33.3403C33.3403 31.566 33.3403 31.0532 33.3403 30.859C33.4766 30.8976 33.6477 30.9773 33.7762 31.1416C34.3316 31.8857 34.8179 32.2802 35.3469 32.2802C35.9354 32.2802 36.392 32.1029 36.6269 31.7663C36.8061 31.5092 37.0448 30.9698 36.9927 30.4905C37.0449 30.011 36.8062 29.4718 36.627 29.2147Z" fill="#000"/><path d="M44.627 39.2147C44.3921 38.8781 43.9355 38.7008 43.347 38.7008C42.818 38.7008 42.3317 39.0953 41.7763 39.8393C41.6477 40.0036 41.4767 40.0833 41.3404 40.122C41.3404 39.9922 41.3404 39.8724 41.3404 39.7697C41.3404 39.7697 41.3395 39.3699 41.6695 39.1267C42.4366 38.5879 42.8434 38.1163 42.8434 37.6032C42.8434 37.0324 42.6607 36.5897 42.3136 36.3619C42.0485 36.188 41.4925 35.9565 40.9983 36.0071C40.504 35.9565 39.9482 36.188 39.6831 36.3619C39.3358 36.5896 39.1533 37.0324 39.1533 37.6032C39.1533 38.1164 39.5599 38.588 40.3269 39.1267C40.657 39.3699 40.6561 39.7697 40.6561 39.7697C40.6561 39.8738 40.6561 39.9956 40.6561 40.1276C40.5205 40.0884 40.3511 40.0087 40.2236 39.8458C39.6683 39.1017 39.1819 38.7073 38.6528 38.7073C38.0644 38.7073 37.6078 38.8846 37.3731 39.2212C37.1937 39.4784 36.9551 40.0176 37.0073 40.497C36.9551 40.9763 37.1936 41.5155 37.3731 41.7726C37.6078 42.1093 38.0644 42.2865 38.6528 42.2865C39.1819 42.2865 39.6682 41.8922 40.2236 41.148C40.3511 40.9852 40.5206 40.9055 40.6561 40.8664C40.6561 41.0597 40.6561 41.5759 40.6561 41.8434C40.5107 42.9833 40.3567 43.1986 39.2816 43.6666C39.0236 43.7669 38.908 43.7444 38.908 43.7444C38.908 43.7444 38.9761 44 39.0859 44C39.7419 43.724 40.9998 43.7476 40.9998 43.7476C40.9998 43.7476 42.2581 43.724 42.914 44C43.0238 44 43.0918 43.7444 43.0918 43.7444C43.0918 43.7444 42.9764 43.7669 42.7184 43.6666C41.6411 43.1977 41.4886 42.9825 41.3428 41.8367H41.3403C41.3403 41.566 41.3403 41.0532 41.3403 40.859C41.4766 40.8976 41.6477 40.9773 41.7762 41.1416C42.3316 41.8857 42.8179 42.2802 43.3469 42.2802C43.9354 42.2802 44.392 42.1029 44.6269 41.7663C44.8061 41.5092 45.0448 40.9698 44.9927 40.4905C45.0449 40.011 44.8062 39.4718 44.627 39.2147Z" fill="#000"/><rect opacity=".3" x="19.2" y="13.2" width="27.6" height="53.6" rx="1.8" stroke="#333" stroke-width=".4"/><path d="M7.6709 8.82617L6.2207 8.75586V5.1084H14.333V6.13672L10.0264 17H7.48633L11.8633 7.12988L11.8105 7.04199H8.13672L7.6709 8.82617Z" fill="#000"/><path d="M15.4405 24.822C15.0882 24.3171 14.4032 24.0512 13.5206 24.0512C12.7269 24.0512 11.9976 24.643 11.1644 25.7589C10.9715 26.0054 10.715 26.125 10.5106 26.183C10.5106 25.9883 10.5106 25.8087 10.5106 25.6545C10.5106 25.6545 10.5092 25.0549 11.0042 24.69C12.155 23.8819 12.7651 23.1745 12.7651 22.4049C12.7651 21.5486 12.491 20.8845 11.9703 20.5429C11.5728 20.282 10.7388 19.9347 9.99738 20.0106C9.25598 19.9347 8.42228 20.282 8.0247 20.5429C7.50372 20.8844 7.22996 21.5486 7.22996 22.4049C7.22996 23.1746 7.8398 23.8821 8.99038 24.69C9.48552 25.0549 9.48414 25.6545 9.48414 25.6545C9.48414 25.8107 9.48414 25.9934 9.48414 26.1913C9.28072 26.1326 9.02659 26.0131 8.83533 25.7687C8.00245 24.6526 7.2728 24.061 6.47917 24.061C5.59655 24.061 4.91167 24.3269 4.5597 24.8318C4.2905 25.2176 3.93272 26.0263 4.01094 26.7454C3.93272 27.4644 4.29036 28.2733 4.5597 28.6589C4.91167 29.164 5.59655 29.4298 6.47917 29.4298C7.2728 29.4298 8.00231 28.8383 8.83533 27.722C9.02672 27.4778 9.28086 27.3582 9.48414 27.2997C9.48414 27.5896 9.48414 28.3639 9.48414 28.7651C9.26607 30.475 9.03502 30.7978 7.42233 31.4999C7.03539 31.6503 6.86196 31.6167 6.86196 31.6167C6.86196 31.6167 6.96422 32 7.12881 32C8.11287 31.586 9.99973 31.6214 9.99973 31.6214C9.99973 31.6214 11.8871 31.586 12.8709 32C13.0356 32 13.1378 31.6167 13.1378 31.6167C13.1378 31.6167 12.9646 31.6503 12.5775 31.4999C10.9617 30.7965 10.733 30.4737 10.5142 28.755H10.5105C10.5105 28.349 10.5105 27.5798 10.5105 27.2885C10.7149 27.3465 10.9715 27.466 11.1643 27.7124C11.9974 28.8286 12.7268 29.4202 13.5204 29.4202C14.4031 29.4202 15.0881 29.1543 15.4403 28.6494C15.7091 28.2638 16.0671 27.4548 15.9891 26.7358C16.0673 26.0166 15.7092 25.2077 15.4405 24.822Z" fill="#000"/></svg>