<svg width="50" height="70" viewBox="0 0 50 70" fill="none" xmlns="http://www.w3.org/2000/svg"><rect x=".75" y=".75" width="48.5" height="68.5" rx="4.25" fill="#fff" stroke="#000" stroke-width=".5"/><path fill-rule="evenodd" clip-rule="evenodd" d="M41 24L45 20L41 16L37 20L41 24Z" fill="#CE1311"/><path fill-rule="evenodd" clip-rule="evenodd" d="M25 24L29 20L25 16L21 20L25 24Z" fill="#CE1311"/><path fill-rule="evenodd" clip-rule="evenodd" d="M41 63L45 59L41 55L37 59L41 63Z" fill="#CE1311"/><path fill-rule="evenodd" clip-rule="evenodd" d="M25 63L29 59L25 55L21 59L25 63Z" fill="#CE1311"/><path fill-rule="evenodd" clip-rule="evenodd" d="M25 44L29 40L25 36L21 40L25 44Z" fill="#CE1311"/><path fill-rule="evenodd" clip-rule="evenodd" d="M33 34L37 30L33 26L29 30L33 34Z" fill="#CE1311"/><path fill-rule="evenodd" clip-rule="evenodd" d="M41 44L45 40L41 36L37 40L41 44Z" fill="#CE1311"/><rect opacity=".3" x="19.2" y="13.2" width="27.6" height="53.6" rx="1.8" stroke="#333" stroke-width=".4"/><path d="M7.6709 8.82617L6.2207 8.75586V5.1084H14.333V6.13672L10.0264 17H7.48633L11.8633 7.12988L11.8105 7.04199H8.13672L7.6709 8.82617Z" fill="#CE1311"/><path fill-rule="evenodd" clip-rule="evenodd" d="M10 32L16 26L10 20L4 26L10 32Z" fill="#CE1311"/></svg>