<svg width="50" height="70" viewBox="0 0 50 70" fill="none" xmlns="http://www.w3.org/2000/svg"><rect x=".75" y=".75" width="48.5" height="68.5" rx="4.25" fill="#fff" stroke="#000" stroke-width=".5"/><path d="M45 18.4404C45 21.3291 40.9999 24 40.9999 24C40.9999 24 37 21.3291 37 18.4404C37 17.0926 37.9722 16 39.1714 16C39.9393 16 40.6139 16.4478 40.9999 17.1238C41.386 16.4478 42.0608 16 42.8285 16C44.0278 16 45 17.0926 45 18.4404Z" fill="#CE1311"/><path d="M29 18.4404C29 21.3291 24.9999 24 24.9999 24C24.9999 24 21 21.3291 21 18.4404C21 17.0926 21.9722 16 23.1714 16C23.9393 16 24.6139 16.4478 24.9999 17.1238C25.386 16.4478 26.0608 16 26.8285 16C28.0278 16 29 17.0926 29 18.4404Z" fill="#CE1311"/><path d="M45 57.4404C45 60.3291 40.9999 63 40.9999 63C40.9999 63 37 60.3291 37 57.4404C37 56.0926 37.9722 55 39.1714 55C39.9393 55 40.6139 55.4478 40.9999 56.1238C41.386 55.4478 42.0608 55 42.8285 55C44.0278 55 45 56.0926 45 57.4404Z" fill="#CE1311"/><path d="M29 57.4404C29 60.3291 24.9999 63 24.9999 63C24.9999 63 21 60.3291 21 57.4404C21 56.0926 21.9722 55 23.1714 55C23.9393 55 24.6139 55.4478 24.9999 56.1238C25.386 55.4478 26.0608 55 26.8285 55C28.0278 55 29 56.0926 29 57.4404Z" fill="#CE1311"/><path d="M29 38.4404C29 41.3291 24.9999 44 24.9999 44C24.9999 44 21 41.3291 21 38.4404C21 37.0926 21.9722 36 23.1714 36C23.9393 36 24.6139 36.4478 24.9999 37.1238C25.386 36.4478 26.0608 36 26.8285 36C28.0278 36 29 37.0926 29 38.4404Z" fill="#CE1311"/><path d="M37 28.4404C37 31.3291 32.9999 34 32.9999 34C32.9999 34 29 31.3291 29 28.4404C29 27.0926 29.9722 26 31.1714 26C31.9393 26 32.6139 26.4478 32.9999 27.1238C33.386 26.4478 34.0608 26 34.8285 26C36.0278 26 37 27.0926 37 28.4404Z" fill="#CE1311"/><path d="M45 38.4404C45 41.3291 40.9999 44 40.9999 44C40.9999 44 37 41.3291 37 38.4404C37 37.0926 37.9722 36 39.1714 36C39.9393 36 40.6139 36.4478 40.9999 37.1238C41.386 36.4478 42.0608 36 42.8285 36C44.0278 36 45 37.0926 45 38.4404Z" fill="#CE1311"/><rect opacity=".3" x="19.2" y="13.2" width="27.6" height="53.6" rx="1.8" stroke="#333" stroke-width=".4"/><path d="M7.6709 8.82617L6.2207 8.75586V5.1084H14.333V6.13672L10.0264 17H7.48633L11.8633 7.12988L11.8105 7.04199H8.13672L7.6709 8.82617Z" fill="#CE1311"/><path d="M16 23.6606C16 27.9937 9.99988 32 9.99988 32C9.99988 32 4 27.9937 4 23.6606C4 21.6388 5.45824 20 7.25716 20C8.40892 20 9.42088 20.6717 9.99988 21.6856C10.579 20.6717 11.5912 20 12.7427 20C14.5416 20 16 21.6388 16 23.6606Z" fill="#CE1311"/></svg>