<svg width="50" height="70" viewBox="0 0 50 70" fill="none" xmlns="http://www.w3.org/2000/svg"><rect x=".75" y=".75" width="48.5" height="68.5" rx="4.25" fill="#fff" stroke="#000" stroke-width=".5"/><path d="M41 16C41 16 37 18.9729 37 21.0411C37 21.1768 37.0091 21.2978 37.026 21.406C37.2735 23.0792 39.2484 23.3362 40.818 22.0224C40.3308 22.924 39.5454 24 39.5454 24H42.4545C42.4545 24 41.6693 22.9242 41.182 22.0227C42.8593 23.4265 45 23.0362 45 21.041C45 18.9729 41 16 41 16Z" fill="#000"/><path d="M25 16C25 16 21 18.9729 21 21.0411C21 21.1768 21.0091 21.2978 21.026 21.406C21.2735 23.0792 23.2484 23.3362 24.818 22.0224C24.3308 22.924 23.5454 24 23.5454 24H26.4545C26.4545 24 25.6693 22.9242 25.182 22.0227C26.8593 23.4265 29 23.0362 29 21.041C29 18.9729 25 16 25 16Z" fill="#000"/><path d="M41 55C41 55 37 57.9729 37 60.0411C37 60.1768 37.0091 60.2978 37.026 60.406C37.2735 62.0792 39.2484 62.3362 40.818 61.0224C40.3308 61.924 39.5454 63 39.5454 63H42.4545C42.4545 63 41.6693 61.9242 41.182 61.0227C42.8593 62.4265 45 62.0362 45 60.041C45 57.9729 41 55 41 55Z" fill="#000"/><path d="M25 55C25 55 21 57.9729 21 60.0411C21 60.1768 21.0091 60.2978 21.026 60.406C21.2735 62.0792 23.2484 62.3362 24.818 61.0224C24.3308 61.924 23.5454 63 23.5454 63H26.4545C26.4545 63 25.6693 61.9242 25.182 61.0227C26.8593 62.4265 29 62.0362 29 60.041C29 57.9729 25 55 25 55Z" fill="#000"/><path d="M25 36C25 36 21 38.9729 21 41.0411C21 41.1768 21.0091 41.2978 21.026 41.406C21.2735 43.0792 23.2484 43.3362 24.818 42.0224C24.3308 42.924 23.5454 44 23.5454 44H26.4545C26.4545 44 25.6693 42.9242 25.182 42.0227C26.8593 43.4265 29 43.0362 29 41.041C29 38.9729 25 36 25 36Z" fill="#000"/><path d="M33 26C33 26 29 28.9729 29 31.0411C29 31.1768 29.0091 31.2978 29.026 31.406C29.2735 33.0792 31.2484 33.3362 32.818 32.0224C32.3308 32.924 31.5454 34 31.5454 34H34.4545C34.4545 34 33.6693 32.9242 33.182 32.0227C34.8593 33.4265 37 33.0362 37 31.041C37 28.9729 33 26 33 26Z" fill="#000"/><path d="M41 36C41 36 37 38.9729 37 41.0411C37 41.1768 37.0091 41.2978 37.026 41.406C37.2735 43.0792 39.2484 43.3362 40.818 42.0224C40.3308 42.924 39.5454 44 39.5454 44H42.4545C42.4545 44 41.6693 42.9242 41.182 42.0227C42.8593 43.4265 45 43.0362 45 41.041C45 38.9729 41 36 41 36Z" fill="#000"/><rect opacity=".3" x="19.2" y="13.2" width="27.6" height="53.6" rx="1.8" stroke="#333" stroke-width=".4"/><path d="M7.6709 8.82617L6.2207 8.75586V5.1084H14.333V6.13672L10.0264 17H7.48633L11.8633 7.12988L11.8105 7.04199H8.13672L7.6709 8.82617Z" fill="#000"/><path d="M10 20C10 20 4 24.4593 4 27.5616C4 27.7652 4.01366 27.9467 4.03895 28.109C4.41022 30.6188 7.37255 31.0043 9.72695 29.0335C8.99625 30.386 7.81803 32 7.81803 32H12.1818C12.1818 32 11.0039 30.3864 10.273 29.0341C12.789 31.1398 16 30.5544 16 27.5614C16 24.4593 10 20 10 20Z" fill="#000"/></svg>