<svg width="50" height="70" viewBox="0 0 50 70" fill="none" xmlns="http://www.w3.org/2000/svg"><rect x=".75" y=".75" width="48.5" height="68.5" rx="4.25" fill="#fff" stroke="#000" stroke-width=".5"/><path d="M44.627 19.2147C44.3921 18.8781 43.9355 18.7008 43.347 18.7008C42.818 18.7008 42.3317 19.0953 41.7763 19.8393C41.6477 20.0036 41.4767 20.0833 41.3404 20.122C41.3404 19.9922 41.3404 19.8724 41.3404 19.7697C41.3404 19.7697 41.3395 19.3699 41.6695 19.1267C42.4366 18.5879 42.8434 18.1163 42.8434 17.6032C42.8434 17.0324 42.6607 16.5897 42.3136 16.3619C42.0485 16.188 41.4925 15.9565 40.9983 16.0071C40.504 15.9565 39.9482 16.188 39.6831 16.3619C39.3358 16.5896 39.1533 17.0324 39.1533 17.6032C39.1533 18.1164 39.5599 18.588 40.3269 19.1267C40.657 19.3699 40.6561 19.7697 40.6561 19.7697C40.6561 19.8738 40.6561 19.9956 40.6561 20.1276C40.5205 20.0884 40.3511 20.0087 40.2236 19.8458C39.6683 19.1017 39.1819 18.7073 38.6528 18.7073C38.0644 18.7073 37.6078 18.8846 37.3731 19.2212C37.1937 19.4784 36.9551 20.0176 37.0073 20.497C36.9551 20.9763 37.1936 21.5155 37.3731 21.7726C37.6078 22.1093 38.0644 22.2865 38.6528 22.2865C39.1819 22.2865 39.6682 21.8922 40.2236 21.148C40.3511 20.9852 40.5206 20.9055 40.6561 20.8664C40.6561 21.0597 40.6561 21.5759 40.6561 21.8434C40.5107 22.9833 40.3567 23.1986 39.2816 23.6666C39.0236 23.7669 38.908 23.7444 38.908 23.7444C38.908 23.7444 38.9761 24 39.0859 24C39.7419 23.724 40.9998 23.7476 40.9998 23.7476C40.9998 23.7476 42.2581 23.724 42.914 24C43.0238 24 43.0918 23.7444 43.0918 23.7444C43.0918 23.7444 42.9764 23.7669 42.7184 23.6666C41.6411 23.1977 41.4886 22.9825 41.3428 21.8367H41.3403C41.3403 21.566 41.3403 21.0532 41.3403 20.859C41.4766 20.8976 41.6477 20.9773 41.7762 21.1416C42.3316 21.8857 42.8179 22.2802 43.3469 22.2802C43.9354 22.2802 44.392 22.1029 44.6269 21.7663C44.8061 21.5092 45.0448 20.9698 44.9927 20.4905C45.0449 20.011 44.8062 19.4718 44.627 19.2147Z" fill="#000"/><path d="M28.627 19.2147C28.3921 18.8781 27.9355 18.7008 27.347 18.7008C26.818 18.7008 26.3317 19.0953 25.7763 19.8393C25.6477 20.0036 25.4767 20.0833 25.3404 20.122C25.3404 19.9922 25.3404 19.8724 25.3404 19.7697C25.3404 19.7697 25.3395 19.3699 25.6695 19.1267C26.4366 18.5879 26.8434 18.1163 26.8434 17.6032C26.8434 17.0324 26.6607 16.5897 26.3136 16.3619C26.0485 16.188 25.4925 15.9565 24.9983 16.0071C24.504 15.9565 23.9482 16.188 23.6831 16.3619C23.3358 16.5896 23.1533 17.0324 23.1533 17.6032C23.1533 18.1164 23.5599 18.588 24.3269 19.1267C24.657 19.3699 24.6561 19.7697 24.6561 19.7697C24.6561 19.8738 24.6561 19.9956 24.6561 20.1276C24.5205 20.0884 24.3511 20.0087 24.2236 19.8458C23.6683 19.1017 23.1819 18.7073 22.6528 18.7073C22.0644 18.7073 21.6078 18.8846 21.3731 19.2212C21.1937 19.4784 20.9551 20.0176 21.0073 20.497C20.9551 20.9763 21.1936 21.5155 21.3731 21.7726C21.6078 22.1093 22.0644 22.2865 22.6528 22.2865C23.1819 22.2865 23.6682 21.8922 24.2236 21.148C24.3511 20.9852 24.5206 20.9055 24.6561 20.8664C24.6561 21.0597 24.6561 21.5759 24.6561 21.8434C24.5107 22.9833 24.3567 23.1986 23.2816 23.6666C23.0236 23.7669 22.908 23.7444 22.908 23.7444C22.908 23.7444 22.9761 24 23.0859 24C23.7419 23.724 24.9998 23.7476 24.9998 23.7476C24.9998 23.7476 26.2581 23.724 26.914 24C27.0238 24 27.0918 23.7444 27.0918 23.7444C27.0918 23.7444 26.9764 23.7669 26.7184 23.6666C25.6411 23.1977 25.4886 22.9825 25.3428 21.8367H25.3403C25.3403 21.566 25.3403 21.0532 25.3403 20.859C25.4766 20.8976 25.6477 20.9773 25.7762 21.1416C26.3316 21.8857 26.8179 22.2802 27.3469 22.2802C27.9354 22.2802 28.392 22.1029 28.6269 21.7663C28.8061 21.5092 29.0448 20.9698 28.9927 20.4905C29.0449 20.011 28.8062 19.4718 28.627 19.2147Z" fill="#000"/><path d="M44.627 32.2147C44.3921 31.8781 43.9355 31.7008 43.347 31.7008C42.818 31.7008 42.3317 32.0953 41.7763 32.8393C41.6477 33.0036 41.4767 33.0833 41.3404 33.122C41.3404 32.9922 41.3404 32.8724 41.3404 32.7697C41.3404 32.7697 41.3395 32.3699 41.6695 32.1267C42.4366 31.5879 42.8434 31.1163 42.8434 30.6032C42.8434 30.0324 42.6607 29.5897 42.3136 29.3619C42.0485 29.188 41.4925 28.9565 40.9983 29.0071C40.504 28.9565 39.9482 29.188 39.6831 29.3619C39.3358 29.5896 39.1533 30.0324 39.1533 30.6032C39.1533 31.1164 39.5599 31.588 40.3269 32.1267C40.657 32.3699 40.6561 32.7697 40.6561 32.7697C40.6561 32.8738 40.6561 32.9956 40.6561 33.1276C40.5205 33.0884 40.3511 33.0087 40.2236 32.8458C39.6683 32.1017 39.1819 31.7073 38.6528 31.7073C38.0644 31.7073 37.6078 31.8846 37.3731 32.2212C37.1937 32.4784 36.9551 33.0176 37.0073 33.497C36.9551 33.9763 37.1936 34.5155 37.3731 34.7726C37.6078 35.1093 38.0644 35.2865 38.6528 35.2865C39.1819 35.2865 39.6682 34.8922 40.2236 34.148C40.3511 33.9852 40.5206 33.9055 40.6561 33.8664C40.6561 34.0597 40.6561 34.5759 40.6561 34.8434C40.5107 35.9833 40.3567 36.1986 39.2816 36.6666C39.0236 36.7669 38.908 36.7444 38.908 36.7444C38.908 36.7444 38.9761 37 39.0859 37C39.7419 36.724 40.9998 36.7476 40.9998 36.7476C40.9998 36.7476 42.2581 36.724 42.914 37C43.0238 37 43.0918 36.7444 43.0918 36.7444C43.0918 36.7444 42.9764 36.7669 42.7184 36.6666C41.6411 36.1977 41.4886 35.9825 41.3428 34.8367H41.3403C41.3403 34.566 41.3403 34.0532 41.3403 33.859C41.4766 33.8976 41.6477 33.9773 41.7762 34.1416C42.3316 34.8857 42.8179 35.2802 43.3469 35.2802C43.9354 35.2802 44.392 35.1029 44.6269 34.7663C44.8061 34.5092 45.0448 33.9698 44.9927 33.4905C45.0449 33.011 44.8062 32.4718 44.627 32.2147Z" fill="#000"/><path d="M28.627 32.2147C28.3921 31.8781 27.9355 31.7008 27.347 31.7008C26.818 31.7008 26.3317 32.0953 25.7763 32.8393C25.6477 33.0036 25.4767 33.0833 25.3404 33.122C25.3404 32.9922 25.3404 32.8724 25.3404 32.7697C25.3404 32.7697 25.3395 32.3699 25.6695 32.1267C26.4366 31.5879 26.8434 31.1163 26.8434 30.6032C26.8434 30.0324 26.6607 29.5897 26.3136 29.3619C26.0485 29.188 25.4925 28.9565 24.9983 29.0071C24.504 28.9565 23.9482 29.188 23.6831 29.3619C23.3358 29.5896 23.1533 30.0324 23.1533 30.6032C23.1533 31.1164 23.5599 31.588 24.3269 32.1267C24.657 32.3699 24.6561 32.7697 24.6561 32.7697C24.6561 32.8738 24.6561 32.9956 24.6561 33.1276C24.5205 33.0884 24.3511 33.0087 24.2236 32.8458C23.6683 32.1017 23.1819 31.7073 22.6528 31.7073C22.0644 31.7073 21.6078 31.8846 21.3731 32.2212C21.1937 32.4784 20.9551 33.0176 21.0073 33.497C20.9551 33.9763 21.1936 34.5155 21.3731 34.7726C21.6078 35.1093 22.0644 35.2865 22.6528 35.2865C23.1819 35.2865 23.6682 34.8922 24.2236 34.148C24.3511 33.9852 24.5206 33.9055 24.6561 33.8664C24.6561 34.0597 24.6561 34.5759 24.6561 34.8434C24.5107 35.9833 24.3567 36.1986 23.2816 36.6666C23.0236 36.7669 22.908 36.7444 22.908 36.7444C22.908 36.7444 22.9761 37 23.0859 37C23.7419 36.724 24.9998 36.7476 24.9998 36.7476C24.9998 36.7476 26.2581 36.724 26.914 37C27.0238 37 27.0918 36.7444 27.0918 36.7444C27.0918 36.7444 26.9764 36.7669 26.7184 36.6666C25.6411 36.1977 25.4886 35.9825 25.3428 34.8367H25.3403C25.3403 34.566 25.3403 34.0532 25.3403 33.859C25.4766 33.8976 25.6477 33.9773 25.7762 34.1416C26.3316 34.8857 26.8179 35.2802 27.3469 35.2802C27.9354 35.2802 28.392 35.1029 28.6269 34.7663C28.8061 34.5092 29.0448 33.9698 28.9927 33.4905C29.0449 33.011 28.8062 32.4718 28.627 32.2147Z" fill="#000"/><path d="M44.627 45.2147C44.3921 44.8781 43.9355 44.7008 43.347 44.7008C42.818 44.7008 42.3317 45.0953 41.7763 45.8393C41.6477 46.0036 41.4767 46.0833 41.3404 46.122C41.3404 45.9922 41.3404 45.8724 41.3404 45.7697C41.3404 45.7697 41.3395 45.3699 41.6695 45.1267C42.4366 44.5879 42.8434 44.1163 42.8434 43.6032C42.8434 43.0324 42.6607 42.5897 42.3136 42.3619C42.0485 42.188 41.4925 41.9565 40.9983 42.0071C40.504 41.9565 39.9482 42.188 39.6831 42.3619C39.3358 42.5896 39.1533 43.0324 39.1533 43.6032C39.1533 44.1164 39.5599 44.588 40.3269 45.1267C40.657 45.3699 40.6561 45.7697 40.6561 45.7697C40.6561 45.8738 40.6561 45.9956 40.6561 46.1276C40.5205 46.0884 40.3511 46.0087 40.2236 45.8458C39.6683 45.1017 39.1819 44.7073 38.6528 44.7073C38.0644 44.7073 37.6078 44.8846 37.3731 45.2212C37.1937 45.4784 36.9551 46.0176 37.0073 46.497C36.9551 46.9763 37.1936 47.5155 37.3731 47.7726C37.6078 48.1093 38.0644 48.2865 38.6528 48.2865C39.1819 48.2865 39.6682 47.8922 40.2236 47.148C40.3511 46.9852 40.5206 46.9055 40.6561 46.8664C40.6561 47.0597 40.6561 47.5759 40.6561 47.8434C40.5107 48.9833 40.3567 49.1986 39.2816 49.6666C39.0236 49.7669 38.908 49.7444 38.908 49.7444C38.908 49.7444 38.9761 50 39.0859 50C39.7419 49.724 40.9998 49.7476 40.9998 49.7476C40.9998 49.7476 42.2581 49.724 42.914 50C43.0238 50 43.0918 49.7444 43.0918 49.7444C43.0918 49.7444 42.9764 49.7669 42.7184 49.6666C41.6411 49.1977 41.4886 48.9825 41.3428 47.8367H41.3403C41.3403 47.566 41.3403 47.0532 41.3403 46.859C41.4766 46.8976 41.6477 46.9773 41.7762 47.1416C42.3316 47.8857 42.8179 48.2802 43.3469 48.2802C43.9354 48.2802 44.392 48.1029 44.6269 47.7663C44.8061 47.5092 45.0448 46.9698 44.9927 46.4905C45.0449 46.011 44.8062 45.4718 44.627 45.2147Z" fill="#000"/><path d="M28.627 45.2147C28.3921 44.8781 27.9355 44.7008 27.347 44.7008C26.818 44.7008 26.3317 45.0953 25.7763 45.8393C25.6477 46.0036 25.4767 46.0833 25.3404 46.122C25.3404 45.9922 25.3404 45.8724 25.3404 45.7697C25.3404 45.7697 25.3395 45.3699 25.6695 45.1267C26.4366 44.5879 26.8434 44.1163 26.8434 43.6032C26.8434 43.0324 26.6607 42.5897 26.3136 42.3619C26.0485 42.188 25.4925 41.9565 24.9983 42.0071C24.504 41.9565 23.9482 42.188 23.6831 42.3619C23.3358 42.5896 23.1533 43.0324 23.1533 43.6032C23.1533 44.1164 23.5599 44.588 24.3269 45.1267C24.657 45.3699 24.6561 45.7697 24.6561 45.7697C24.6561 45.8738 24.6561 45.9956 24.6561 46.1276C24.5205 46.0884 24.3511 46.0087 24.2236 45.8458C23.6683 45.1017 23.1819 44.7073 22.6528 44.7073C22.0644 44.7073 21.6078 44.8846 21.3731 45.2212C21.1937 45.4784 20.9551 46.0176 21.0073 46.497C20.9551 46.9763 21.1936 47.5155 21.3731 47.7726C21.6078 48.1093 22.0644 48.2865 22.6528 48.2865C23.1819 48.2865 23.6682 47.8922 24.2236 47.148C24.3511 46.9852 24.5206 46.9055 24.6561 46.8664C24.6561 47.0597 24.6561 47.5759 24.6561 47.8434C24.5107 48.9833 24.3567 49.1986 23.2816 49.6666C23.0236 49.7669 22.908 49.7444 22.908 49.7444C22.908 49.7444 22.9761 50 23.0859 50C23.7419 49.724 24.9998 49.7476 24.9998 49.7476C24.9998 49.7476 26.2581 49.724 26.914 50C27.0238 50 27.0918 49.7444 27.0918 49.7444C27.0918 49.7444 26.9764 49.7669 26.7184 49.6666C25.6411 49.1977 25.4886 48.9825 25.3428 47.8367H25.3403C25.3403 47.566 25.3403 47.0532 25.3403 46.859C25.4766 46.8976 25.6477 46.9773 25.7762 47.1416C26.3316 47.8857 26.8179 48.2802 27.3469 48.2802C27.9354 48.2802 28.392 48.1029 28.6269 47.7663C28.8061 47.5092 29.0448 46.9698 28.9927 46.4905C29.0449 46.011 28.8062 45.4718 28.627 45.2147Z" fill="#000"/><path d="M44.627 58.2147C44.3921 57.8781 43.9355 57.7008 43.347 57.7008C42.818 57.7008 42.3317 58.0953 41.7763 58.8393C41.6477 59.0036 41.4767 59.0833 41.3404 59.122C41.3404 58.9922 41.3404 58.8724 41.3404 58.7697C41.3404 58.7697 41.3395 58.3699 41.6695 58.1267C42.4366 57.5879 42.8434 57.1163 42.8434 56.6032C42.8434 56.0324 42.6607 55.5897 42.3136 55.3619C42.0485 55.188 41.4925 54.9565 40.9983 55.0071C40.504 54.9565 39.9482 55.188 39.6831 55.3619C39.3358 55.5896 39.1533 56.0324 39.1533 56.6032C39.1533 57.1164 39.5599 57.588 40.3269 58.1267C40.657 58.3699 40.6561 58.7697 40.6561 58.7697C40.6561 58.8738 40.6561 58.9956 40.6561 59.1276C40.5205 59.0884 40.3511 59.0087 40.2236 58.8458C39.6683 58.1017 39.1819 57.7073 38.6528 57.7073C38.0644 57.7073 37.6078 57.8846 37.3731 58.2212C37.1937 58.4784 36.9551 59.0176 37.0073 59.497C36.9551 59.9763 37.1936 60.5155 37.3731 60.7726C37.6078 61.1093 38.0644 61.2865 38.6528 61.2865C39.1819 61.2865 39.6682 60.8922 40.2236 60.148C40.3511 59.9852 40.5206 59.9055 40.6561 59.8664C40.6561 60.0597 40.6561 60.5759 40.6561 60.8434C40.5107 61.9833 40.3567 62.1986 39.2816 62.6666C39.0236 62.7669 38.908 62.7444 38.908 62.7444C38.908 62.7444 38.9761 63 39.0859 63C39.7419 62.724 40.9998 62.7476 40.9998 62.7476C40.9998 62.7476 42.2581 62.724 42.914 63C43.0238 63 43.0918 62.7444 43.0918 62.7444C43.0918 62.7444 42.9764 62.7669 42.7184 62.6666C41.6411 62.1977 41.4886 61.9825 41.3428 60.8367H41.3403C41.3403 60.566 41.3403 60.0532 41.3403 59.859C41.4766 59.8976 41.6477 59.9773 41.7762 60.1416C42.3316 60.8857 42.8179 61.2802 43.3469 61.2802C43.9354 61.2802 44.392 61.1029 44.6269 60.7663C44.8061 60.5092 45.0448 59.9698 44.9927 59.4905C45.0449 59.011 44.8062 58.4718 44.627 58.2147Z" fill="#000"/><path d="M28.627 58.2147C28.3921 57.8781 27.9355 57.7008 27.347 57.7008C26.818 57.7008 26.3317 58.0953 25.7763 58.8393C25.6477 59.0036 25.4767 59.0833 25.3404 59.122C25.3404 58.9922 25.3404 58.8724 25.3404 58.7697C25.3404 58.7697 25.3395 58.3699 25.6695 58.1267C26.4366 57.5879 26.8434 57.1163 26.8434 56.6032C26.8434 56.0324 26.6607 55.5897 26.3136 55.3619C26.0485 55.188 25.4925 54.9565 24.9983 55.0071C24.504 54.9565 23.9482 55.188 23.6831 55.3619C23.3358 55.5896 23.1533 56.0324 23.1533 56.6032C23.1533 57.1164 23.5599 57.588 24.3269 58.1267C24.657 58.3699 24.6561 58.7697 24.6561 58.7697C24.6561 58.8738 24.6561 58.9956 24.6561 59.1276C24.5205 59.0884 24.3511 59.0087 24.2236 58.8458C23.6683 58.1017 23.1819 57.7073 22.6528 57.7073C22.0644 57.7073 21.6078 57.8846 21.3731 58.2212C21.1937 58.4784 20.9551 59.0176 21.0073 59.497C20.9551 59.9763 21.1936 60.5155 21.3731 60.7726C21.6078 61.1093 22.0644 61.2865 22.6528 61.2865C23.1819 61.2865 23.6682 60.8922 24.2236 60.148C24.3511 59.9852 24.5206 59.9055 24.6561 59.8664C24.6561 60.0597 24.6561 60.5759 24.6561 60.8434C24.5107 61.9833 24.3567 62.1986 23.2816 62.6666C23.0236 62.7669 22.908 62.7444 22.908 62.7444C22.908 62.7444 22.9761 63 23.0859 63C23.7419 62.724 24.9998 62.7476 24.9998 62.7476C24.9998 62.7476 26.2581 62.724 26.914 63C27.0238 63 27.0918 62.7444 27.0918 62.7444C27.0918 62.7444 26.9764 62.7669 26.7184 62.6666C25.6411 62.1977 25.4886 61.9825 25.3428 60.8367H25.3403C25.3403 60.566 25.3403 60.0532 25.3403 59.859C25.4766 59.8976 25.6477 59.9773 25.7762 60.1416C26.3316 60.8857 26.8179 61.2802 27.3469 61.2802C27.9354 61.2802 28.392 61.1029 28.6269 60.7663C28.8061 60.5092 29.0448 59.9698 28.9927 59.4905C29.0449 59.011 28.8062 58.4718 28.627 58.2147Z" fill="#000"/><rect opacity=".3" x="19.2" y="13.2" width="27.6" height="53.6" rx="1.8" stroke="#333" stroke-width=".4"/><path d="M5.62305 14.4336C5.62305 13.7305 5.85156 13.1064 6.30859 12.5615C6.77148 12.0166 7.39258 11.5947 8.17188 11.2959C7.43359 10.9268 6.89746 10.5137 6.56348 10.0566C6.23535 9.59961 6.07129 9.02539 6.07129 8.33398C6.07129 7.33789 6.44922 6.52051 7.20508 5.88184C7.96094 5.2373 8.98633 4.91504 10.2812 4.91504C11.4414 4.91504 12.3438 5.1377 12.9883 5.58301C13.6387 6.02832 13.9639 6.65527 13.9639 7.46387C13.9639 8.00879 13.7617 8.52441 13.3574 9.01074C12.959 9.49707 12.376 9.91016 11.6084 10.25C12.499 10.6016 13.1875 11.0527 13.6738 11.6035C14.166 12.1484 14.4121 12.8223 14.4121 13.625C14.4121 14.6914 13.9961 15.5527 13.1641 16.209C12.332 16.8652 11.2158 17.1934 9.81543 17.1934C8.46777 17.1934 7.43066 16.9531 6.7041 16.4727C5.9834 15.9922 5.62305 15.3125 5.62305 14.4336ZM9.09473 11.709C8.85449 11.9551 8.65527 12.2686 8.49707 12.6494C8.33887 13.0244 8.25977 13.4609 8.25977 13.959C8.25977 14.5742 8.40918 15.0488 8.70801 15.3828C9.00684 15.7168 9.43457 15.8838 9.99121 15.8838C10.5596 15.8838 10.999 15.7227 11.3096 15.4004C11.6201 15.0723 11.7754 14.624 11.7754 14.0557C11.7754 13.5518 11.6113 13.1475 11.2832 12.8428C10.9551 12.5322 10.3809 12.2158 9.56055 11.8936L9.09473 11.709ZM8.69922 7.83301C8.69922 8.34863 8.84863 8.75879 9.14746 9.06348C9.44629 9.36816 9.94434 9.64355 10.6416 9.88965C10.8643 9.64355 11.0342 9.33887 11.1514 8.97559C11.2686 8.60645 11.3271 8.19043 11.3271 7.72754C11.3271 7.24121 11.2129 6.86914 10.9844 6.61133C10.7559 6.35352 10.457 6.22461 10.0879 6.22461C9.67773 6.22461 9.34375 6.37402 9.08594 6.67285C8.82812 6.97168 8.69922 7.3584 8.69922 7.83301Z" fill="#000"/><path d="M15.4405 24.822C15.0882 24.3171 14.4032 24.0512 13.5206 24.0512C12.7269 24.0512 11.9976 24.643 11.1644 25.7589C10.9715 26.0054 10.715 26.125 10.5106 26.183C10.5106 25.9883 10.5106 25.8087 10.5106 25.6545C10.5106 25.6545 10.5092 25.0549 11.0042 24.69C12.155 23.8819 12.7651 23.1745 12.7651 22.4049C12.7651 21.5486 12.491 20.8845 11.9703 20.5429C11.5728 20.282 10.7388 19.9347 9.99738 20.0106C9.25598 19.9347 8.42228 20.282 8.0247 20.5429C7.50372 20.8844 7.22996 21.5486 7.22996 22.4049C7.22996 23.1746 7.8398 23.8821 8.99038 24.69C9.48552 25.0549 9.48414 25.6545 9.48414 25.6545C9.48414 25.8107 9.48414 25.9934 9.48414 26.1913C9.28072 26.1326 9.02659 26.0131 8.83533 25.7687C8.00245 24.6526 7.2728 24.061 6.47917 24.061C5.59655 24.061 4.91167 24.3269 4.5597 24.8318C4.2905 25.2176 3.93272 26.0263 4.01094 26.7454C3.93272 27.4644 4.29036 28.2733 4.5597 28.6589C4.91167 29.164 5.59655 29.4298 6.47917 29.4298C7.2728 29.4298 8.00231 28.8383 8.83533 27.722C9.02672 27.4778 9.28086 27.3582 9.48414 27.2997C9.48414 27.5896 9.48414 28.3639 9.48414 28.7651C9.26607 30.475 9.03502 30.7978 7.42233 31.4999C7.03539 31.6503 6.86196 31.6167 6.86196 31.6167C6.86196 31.6167 6.96422 32 7.12881 32C8.11287 31.586 9.99973 31.6214 9.99973 31.6214C9.99973 31.6214 11.8871 31.586 12.8709 32C13.0356 32 13.1378 31.6167 13.1378 31.6167C13.1378 31.6167 12.9646 31.6503 12.5775 31.4999C10.9617 30.7965 10.733 30.4737 10.5142 28.755H10.5105C10.5105 28.349 10.5105 27.5798 10.5105 27.2885C10.7149 27.3465 10.9715 27.466 11.1643 27.7124C11.9974 28.8286 12.7268 29.4202 13.5204 29.4202C14.4031 29.4202 15.0881 29.1543 15.4403 28.6494C15.7091 28.2638 16.0671 27.4548 15.9891 26.7358C16.0673 26.0166 15.7092 25.2077 15.4405 24.822Z" fill="#000"/></svg>