<svg width="50" height="70" viewBox="0 0 50 70" fill="none" xmlns="http://www.w3.org/2000/svg"><rect x=".75" y=".75" width="48.5" height="68.5" rx="4.25" fill="#fff" stroke="#000" stroke-width=".5"/><path fill-rule="evenodd" clip-rule="evenodd" d="M41 24L45 20L41 16L37 20L41 24Z" fill="#CE1311"/><path fill-rule="evenodd" clip-rule="evenodd" d="M25 24L29 20L25 16L21 20L25 24Z" fill="#CE1311"/><path fill-rule="evenodd" clip-rule="evenodd" d="M41 37L45 33L41 29L37 33L41 37Z" fill="#CE1311"/><path fill-rule="evenodd" clip-rule="evenodd" d="M25 37L29 33L25 29L21 33L25 37Z" fill="#CE1311"/><path fill-rule="evenodd" clip-rule="evenodd" d="M41 50L45 46L41 42L37 46L41 50Z" fill="#CE1311"/><path fill-rule="evenodd" clip-rule="evenodd" d="M25 50L29 46L25 42L21 46L25 50Z" fill="#CE1311"/><path fill-rule="evenodd" clip-rule="evenodd" d="M41 63L45 59L41 55L37 59L41 63Z" fill="#CE1311"/><path fill-rule="evenodd" clip-rule="evenodd" d="M25 63L29 59L25 55L21 59L25 63Z" fill="#CE1311"/><rect opacity=".3" x="19.2" y="13.2" width="27.6" height="53.6" rx="1.8" stroke="#333" stroke-width=".4"/><path d="M5.62305 14.4336C5.62305 13.7305 5.85156 13.1064 6.30859 12.5615C6.77148 12.0166 7.39258 11.5947 8.17188 11.2959C7.43359 10.9268 6.89746 10.5137 6.56348 10.0566C6.23535 9.59961 6.07129 9.02539 6.07129 8.33398C6.07129 7.33789 6.44922 6.52051 7.20508 5.88184C7.96094 5.2373 8.98633 4.91504 10.2812 4.91504C11.4414 4.91504 12.3438 5.1377 12.9883 5.58301C13.6387 6.02832 13.9639 6.65527 13.9639 7.46387C13.9639 8.00879 13.7617 8.52441 13.3574 9.01074C12.959 9.49707 12.376 9.91016 11.6084 10.25C12.499 10.6016 13.1875 11.0527 13.6738 11.6035C14.166 12.1484 14.4121 12.8223 14.4121 13.625C14.4121 14.6914 13.9961 15.5527 13.1641 16.209C12.332 16.8652 11.2158 17.1934 9.81543 17.1934C8.46777 17.1934 7.43066 16.9531 6.7041 16.4727C5.9834 15.9922 5.62305 15.3125 5.62305 14.4336ZM9.09473 11.709C8.85449 11.9551 8.65527 12.2686 8.49707 12.6494C8.33887 13.0244 8.25977 13.4609 8.25977 13.959C8.25977 14.5742 8.40918 15.0488 8.70801 15.3828C9.00684 15.7168 9.43457 15.8838 9.99121 15.8838C10.5596 15.8838 10.999 15.7227 11.3096 15.4004C11.6201 15.0723 11.7754 14.624 11.7754 14.0557C11.7754 13.5518 11.6113 13.1475 11.2832 12.8428C10.9551 12.5322 10.3809 12.2158 9.56055 11.8936L9.09473 11.709ZM8.69922 7.83301C8.69922 8.34863 8.84863 8.75879 9.14746 9.06348C9.44629 9.36816 9.94434 9.64355 10.6416 9.88965C10.8643 9.64355 11.0342 9.33887 11.1514 8.97559C11.2686 8.60645 11.3271 8.19043 11.3271 7.72754C11.3271 7.24121 11.2129 6.86914 10.9844 6.61133C10.7559 6.35352 10.457 6.22461 10.0879 6.22461C9.67773 6.22461 9.34375 6.37402 9.08594 6.67285C8.82812 6.97168 8.69922 7.3584 8.69922 7.83301Z" fill="#CE1311"/><path fill-rule="evenodd" clip-rule="evenodd" d="M10 32L16 26L10 20L4 26L10 32Z" fill="#CE1311"/></svg>