<svg width="50" height="70" viewBox="0 0 50 70" fill="none" xmlns="http://www.w3.org/2000/svg"><rect x=".75" y=".75" width="48.5" height="68.5" rx="4.25" fill="#fff" stroke="#000" stroke-width=".5"/><path d="M45 18.4404C45 21.3291 40.9999 24 40.9999 24C40.9999 24 37 21.3291 37 18.4404C37 17.0926 37.9722 16 39.1714 16C39.9393 16 40.6139 16.4478 40.9999 17.1238C41.386 16.4478 42.0608 16 42.8285 16C44.0278 16 45 17.0926 45 18.4404Z" fill="#CE1311"/><path d="M29 18.4404C29 21.3291 24.9999 24 24.9999 24C24.9999 24 21 21.3291 21 18.4404C21 17.0926 21.9722 16 23.1714 16C23.9393 16 24.6139 16.4478 24.9999 17.1238C25.386 16.4478 26.0608 16 26.8285 16C28.0278 16 29 17.0926 29 18.4404Z" fill="#CE1311"/><path d="M45 31.4404C45 34.3291 40.9999 37 40.9999 37C40.9999 37 37 34.3291 37 31.4404C37 30.0926 37.9722 29 39.1714 29C39.9393 29 40.6139 29.4478 40.9999 30.1238C41.386 29.4478 42.0608 29 42.8285 29C44.0278 29 45 30.0926 45 31.4404Z" fill="#CE1311"/><path d="M29 31.4404C29 34.3291 24.9999 37 24.9999 37C24.9999 37 21 34.3291 21 31.4404C21 30.0926 21.9722 29 23.1714 29C23.9393 29 24.6139 29.4478 24.9999 30.1238C25.386 29.4478 26.0608 29 26.8285 29C28.0278 29 29 30.0926 29 31.4404Z" fill="#CE1311"/><path d="M45 44.4404C45 47.3291 40.9999 50 40.9999 50C40.9999 50 37 47.3291 37 44.4404C37 43.0926 37.9722 42 39.1714 42C39.9393 42 40.6139 42.4478 40.9999 43.1238C41.386 42.4478 42.0608 42 42.8285 42C44.0278 42 45 43.0926 45 44.4404Z" fill="#CE1311"/><path d="M29 44.4404C29 47.3291 24.9999 50 24.9999 50C24.9999 50 21 47.3291 21 44.4404C21 43.0926 21.9722 42 23.1714 42C23.9393 42 24.6139 42.4478 24.9999 43.1238C25.386 42.4478 26.0608 42 26.8285 42C28.0278 42 29 43.0926 29 44.4404Z" fill="#CE1311"/><path d="M45 57.4404C45 60.3291 40.9999 63 40.9999 63C40.9999 63 37 60.3291 37 57.4404C37 56.0926 37.9722 55 39.1714 55C39.9393 55 40.6139 55.4478 40.9999 56.1238C41.386 55.4478 42.0608 55 42.8285 55C44.0278 55 45 56.0926 45 57.4404Z" fill="#CE1311"/><path d="M29 57.4404C29 60.3291 24.9999 63 24.9999 63C24.9999 63 21 60.3291 21 57.4404C21 56.0926 21.9722 55 23.1714 55C23.9393 55 24.6139 55.4478 24.9999 56.1238C25.386 55.4478 26.0608 55 26.8285 55C28.0278 55 29 56.0926 29 57.4404Z" fill="#CE1311"/><rect opacity=".3" x="19.2" y="13.2" width="27.6" height="53.6" rx="1.8" stroke="#333" stroke-width=".4"/><path d="M5.62305 14.4336C5.62305 13.7305 5.85156 13.1064 6.30859 12.5615C6.77148 12.0166 7.39258 11.5947 8.17188 11.2959C7.43359 10.9268 6.89746 10.5137 6.56348 10.0566C6.23535 9.59961 6.07129 9.02539 6.07129 8.33398C6.07129 7.33789 6.44922 6.52051 7.20508 5.88184C7.96094 5.2373 8.98633 4.91504 10.2812 4.91504C11.4414 4.91504 12.3438 5.1377 12.9883 5.58301C13.6387 6.02832 13.9639 6.65527 13.9639 7.46387C13.9639 8.00879 13.7617 8.52441 13.3574 9.01074C12.959 9.49707 12.376 9.91016 11.6084 10.25C12.499 10.6016 13.1875 11.0527 13.6738 11.6035C14.166 12.1484 14.4121 12.8223 14.4121 13.625C14.4121 14.6914 13.9961 15.5527 13.1641 16.209C12.332 16.8652 11.2158 17.1934 9.81543 17.1934C8.46777 17.1934 7.43066 16.9531 6.7041 16.4727C5.9834 15.9922 5.62305 15.3125 5.62305 14.4336ZM9.09473 11.709C8.85449 11.9551 8.65527 12.2686 8.49707 12.6494C8.33887 13.0244 8.25977 13.4609 8.25977 13.959C8.25977 14.5742 8.40918 15.0488 8.70801 15.3828C9.00684 15.7168 9.43457 15.8838 9.99121 15.8838C10.5596 15.8838 10.999 15.7227 11.3096 15.4004C11.6201 15.0723 11.7754 14.624 11.7754 14.0557C11.7754 13.5518 11.6113 13.1475 11.2832 12.8428C10.9551 12.5322 10.3809 12.2158 9.56055 11.8936L9.09473 11.709ZM8.69922 7.83301C8.69922 8.34863 8.84863 8.75879 9.14746 9.06348C9.44629 9.36816 9.94434 9.64355 10.6416 9.88965C10.8643 9.64355 11.0342 9.33887 11.1514 8.97559C11.2686 8.60645 11.3271 8.19043 11.3271 7.72754C11.3271 7.24121 11.2129 6.86914 10.9844 6.61133C10.7559 6.35352 10.457 6.22461 10.0879 6.22461C9.67773 6.22461 9.34375 6.37402 9.08594 6.67285C8.82812 6.97168 8.69922 7.3584 8.69922 7.83301Z" fill="#CE1311"/><path d="M16 23.6606C16 27.9937 9.99988 32 9.99988 32C9.99988 32 4 27.9937 4 23.6606C4 21.6388 5.45824 20 7.25716 20C8.40892 20 9.42088 20.6717 9.99988 21.6856C10.579 20.6717 11.5912 20 12.7427 20C14.5416 20 16 21.6388 16 23.6606Z" fill="#CE1311"/></svg>