<svg width="50" height="70" viewBox="0 0 50 70" fill="none" xmlns="http://www.w3.org/2000/svg"><rect x=".75" y=".75" width="48.5" height="68.5" rx="4.25" fill="#fff" stroke="#000" stroke-width=".5"/><path d="M41 16C41 16 37 18.9729 37 21.0411C37 21.1768 37.0091 21.2978 37.026 21.406C37.2735 23.0792 39.2484 23.3362 40.818 22.0224C40.3308 22.924 39.5454 24 39.5454 24H42.4545C42.4545 24 41.6693 22.9242 41.182 22.0227C42.8593 23.4265 45 23.0362 45 21.041C45 18.9729 41 16 41 16Z" fill="#000"/><path d="M25 16C25 16 21 18.9729 21 21.0411C21 21.1768 21.0091 21.2978 21.026 21.406C21.2735 23.0792 23.2484 23.3362 24.818 22.0224C24.3308 22.924 23.5454 24 23.5454 24H26.4545C26.4545 24 25.6693 22.9242 25.182 22.0227C26.8593 23.4265 29 23.0362 29 21.041C29 18.9729 25 16 25 16Z" fill="#000"/><path d="M41 29C41 29 37 31.9729 37 34.0411C37 34.1768 37.0091 34.2978 37.026 34.406C37.2735 36.0792 39.2484 36.3362 40.818 35.0224C40.3308 35.924 39.5454 37 39.5454 37H42.4545C42.4545 37 41.6693 35.9242 41.182 35.0227C42.8593 36.4265 45 36.0362 45 34.041C45 31.9729 41 29 41 29Z" fill="#000"/><path d="M25 29C25 29 21 31.9729 21 34.0411C21 34.1768 21.0091 34.2978 21.026 34.406C21.2735 36.0792 23.2484 36.3362 24.818 35.0224C24.3308 35.924 23.5454 37 23.5454 37H26.4545C26.4545 37 25.6693 35.9242 25.182 35.0227C26.8593 36.4265 29 36.0362 29 34.041C29 31.9729 25 29 25 29Z" fill="#000"/><path d="M41 42C41 42 37 44.9729 37 47.0411C37 47.1768 37.0091 47.2978 37.026 47.406C37.2735 49.0792 39.2484 49.3362 40.818 48.0224C40.3308 48.924 39.5454 50 39.5454 50H42.4545C42.4545 50 41.6693 48.9242 41.182 48.0227C42.8593 49.4265 45 49.0362 45 47.041C45 44.9729 41 42 41 42Z" fill="#000"/><path d="M25 42C25 42 21 44.9729 21 47.0411C21 47.1768 21.0091 47.2978 21.026 47.406C21.2735 49.0792 23.2484 49.3362 24.818 48.0224C24.3308 48.924 23.5454 50 23.5454 50H26.4545C26.4545 50 25.6693 48.9242 25.182 48.0227C26.8593 49.4265 29 49.0362 29 47.041C29 44.9729 25 42 25 42Z" fill="#000"/><path d="M41 55C41 55 37 57.9729 37 60.0411C37 60.1768 37.0091 60.2978 37.026 60.406C37.2735 62.0792 39.2484 62.3362 40.818 61.0224C40.3308 61.924 39.5454 63 39.5454 63H42.4545C42.4545 63 41.6693 61.9242 41.182 61.0227C42.8593 62.4265 45 62.0362 45 60.041C45 57.9729 41 55 41 55Z" fill="#000"/><path d="M25 55C25 55 21 57.9729 21 60.0411C21 60.1768 21.0091 60.2978 21.026 60.406C21.2735 62.0792 23.2484 62.3362 24.818 61.0224C24.3308 61.924 23.5454 63 23.5454 63H26.4545C26.4545 63 25.6693 61.9242 25.182 61.0227C26.8593 62.4265 29 62.0362 29 60.041C29 57.9729 25 55 25 55Z" fill="#000"/><rect opacity=".3" x="19.2" y="13.2" width="27.6" height="53.6" rx="1.8" stroke="#333" stroke-width=".4"/><path d="M5.62305 14.4336C5.62305 13.7305 5.85156 13.1064 6.30859 12.5615C6.77148 12.0166 7.39258 11.5947 8.17188 11.2959C7.43359 10.9268 6.89746 10.5137 6.56348 10.0566C6.23535 9.59961 6.07129 9.02539 6.07129 8.33398C6.07129 7.33789 6.44922 6.52051 7.20508 5.88184C7.96094 5.2373 8.98633 4.91504 10.2812 4.91504C11.4414 4.91504 12.3438 5.1377 12.9883 5.58301C13.6387 6.02832 13.9639 6.65527 13.9639 7.46387C13.9639 8.00879 13.7617 8.52441 13.3574 9.01074C12.959 9.49707 12.376 9.91016 11.6084 10.25C12.499 10.6016 13.1875 11.0527 13.6738 11.6035C14.166 12.1484 14.4121 12.8223 14.4121 13.625C14.4121 14.6914 13.9961 15.5527 13.1641 16.209C12.332 16.8652 11.2158 17.1934 9.81543 17.1934C8.46777 17.1934 7.43066 16.9531 6.7041 16.4727C5.9834 15.9922 5.62305 15.3125 5.62305 14.4336ZM9.09473 11.709C8.85449 11.9551 8.65527 12.2686 8.49707 12.6494C8.33887 13.0244 8.25977 13.4609 8.25977 13.959C8.25977 14.5742 8.40918 15.0488 8.70801 15.3828C9.00684 15.7168 9.43457 15.8838 9.99121 15.8838C10.5596 15.8838 10.999 15.7227 11.3096 15.4004C11.6201 15.0723 11.7754 14.624 11.7754 14.0557C11.7754 13.5518 11.6113 13.1475 11.2832 12.8428C10.9551 12.5322 10.3809 12.2158 9.56055 11.8936L9.09473 11.709ZM8.69922 7.83301C8.69922 8.34863 8.84863 8.75879 9.14746 9.06348C9.44629 9.36816 9.94434 9.64355 10.6416 9.88965C10.8643 9.64355 11.0342 9.33887 11.1514 8.97559C11.2686 8.60645 11.3271 8.19043 11.3271 7.72754C11.3271 7.24121 11.2129 6.86914 10.9844 6.61133C10.7559 6.35352 10.457 6.22461 10.0879 6.22461C9.67773 6.22461 9.34375 6.37402 9.08594 6.67285C8.82812 6.97168 8.69922 7.3584 8.69922 7.83301Z" fill="#000"/><path d="M10 20C10 20 4 24.4593 4 27.5616C4 27.7652 4.01366 27.9467 4.03895 28.109C4.41022 30.6188 7.37255 31.0043 9.72695 29.0335C8.99625 30.386 7.81803 32 7.81803 32H12.1818C12.1818 32 11.0039 30.3864 10.273 29.0341C12.789 31.1398 16 30.5544 16 27.5614C16 24.4593 10 20 10 20Z" fill="#000"/></svg>