<svg width="50" height="70" viewBox="0 0 50 70" fill="none" xmlns="http://www.w3.org/2000/svg"><rect x=".75" y=".75" width="48.5" height="68.5" rx="4.25" fill="#fff" stroke="#000" stroke-width=".5"/><path fill-rule="evenodd" clip-rule="evenodd" d="M33 44L37 40L33 36L29 40L33 44Z" fill="#CE1311"/><path fill-rule="evenodd" clip-rule="evenodd" d="M41 24L45 20L41 16L37 20L41 24Z" fill="#CE1311"/><path fill-rule="evenodd" clip-rule="evenodd" d="M25 24L29 20L25 16L21 20L25 24Z" fill="#CE1311"/><path fill-rule="evenodd" clip-rule="evenodd" d="M41 37L45 33L41 29L37 33L41 37Z" fill="#CE1311"/><path fill-rule="evenodd" clip-rule="evenodd" d="M25 37L29 33L25 29L21 33L25 37Z" fill="#CE1311"/><path fill-rule="evenodd" clip-rule="evenodd" d="M41 50L45 46L41 42L37 46L41 50Z" fill="#CE1311"/><path fill-rule="evenodd" clip-rule="evenodd" d="M25 50L29 46L25 42L21 46L25 50Z" fill="#CE1311"/><path fill-rule="evenodd" clip-rule="evenodd" d="M41 63L45 59L41 55L37 59L41 63Z" fill="#CE1311"/><path fill-rule="evenodd" clip-rule="evenodd" d="M25 63L29 59L25 55L21 59L25 63Z" fill="#CE1311"/><rect opacity=".3" x="19.2" y="13.2" width="27.6" height="53.6" rx="1.8" stroke="#333" stroke-width=".4"/><path d="M8.22461 8.72949C8.22461 9.40918 8.38574 9.95996 8.70801 10.3818C9.03027 10.7979 9.44043 11.0059 9.93848 11.0059C10.1904 11.0059 10.46 10.9619 10.7471 10.874C11.04 10.7861 11.3096 10.6719 11.5557 10.5312V9.98633C11.5557 8.76758 11.4004 7.83594 11.0898 7.19141C10.7852 6.54688 10.3428 6.22461 9.7627 6.22461C9.24121 6.22461 8.85449 6.42969 8.60254 6.83984C8.35059 7.25 8.22461 7.83301 8.22461 8.58887V8.72949ZM8.11914 17.1934C7.86133 17.1934 7.55957 17.1758 7.21387 17.1406C6.86816 17.1055 6.54004 17.0557 6.22949 16.9912V15.7959C6.41699 15.8193 6.64258 15.8398 6.90625 15.8574C7.17578 15.875 7.43945 15.8838 7.69727 15.8838C8.85156 15.8838 9.7832 15.4854 10.4922 14.6885C11.2012 13.8916 11.5557 12.8691 11.5557 11.6211L11.4678 11.5859C11.1748 11.8145 10.8232 11.9932 10.4131 12.1221C10.0088 12.251 9.5459 12.3154 9.02441 12.3154C8.06348 12.3154 7.24902 12.0166 6.58105 11.4189C5.91895 10.8213 5.58789 10.0391 5.58789 9.07227V8.81738C5.58789 7.62207 5.96875 6.67285 6.73047 5.96973C7.49219 5.2666 8.54688 4.91504 9.89453 4.91504C11.3125 4.91504 12.3848 5.30469 13.1113 6.08398C13.8379 6.86328 14.2012 8.0293 14.2012 9.58203V10.2676C14.2012 12.4707 13.668 14.1758 12.6016 15.3828C11.541 16.5898 10.0469 17.1934 8.11914 17.1934Z" fill="#CE1311"/><path fill-rule="evenodd" clip-rule="evenodd" d="M10 32L16 26L10 20L4 26L10 32Z" fill="#CE1311"/></svg>