<svg width="50" height="70" viewBox="0 0 50 70" fill="none" xmlns="http://www.w3.org/2000/svg"><rect x=".75" y=".75" width="48.5" height="68.5" rx="4.25" fill="#fff" stroke="#000" stroke-width=".5"/><path d="M37 38.4404C37 41.3291 32.9999 44 32.9999 44C32.9999 44 29 41.3291 29 38.4404C29 37.0926 29.9722 36 31.1714 36C31.9393 36 32.6139 36.4478 32.9999 37.1238C33.386 36.4478 34.0608 36 34.8285 36C36.0278 36 37 37.0926 37 38.4404Z" fill="#CE1311"/><path d="M45 18.4404C45 21.3291 40.9999 24 40.9999 24C40.9999 24 37 21.3291 37 18.4404C37 17.0926 37.9722 16 39.1714 16C39.9393 16 40.6139 16.4478 40.9999 17.1238C41.386 16.4478 42.0608 16 42.8285 16C44.0278 16 45 17.0926 45 18.4404Z" fill="#CE1311"/><path d="M29 18.4404C29 21.3291 24.9999 24 24.9999 24C24.9999 24 21 21.3291 21 18.4404C21 17.0926 21.9722 16 23.1714 16C23.9393 16 24.6139 16.4478 24.9999 17.1238C25.386 16.4478 26.0608 16 26.8285 16C28.0278 16 29 17.0926 29 18.4404Z" fill="#CE1311"/><path d="M45 31.4404C45 34.3291 40.9999 37 40.9999 37C40.9999 37 37 34.3291 37 31.4404C37 30.0926 37.9722 29 39.1714 29C39.9393 29 40.6139 29.4478 40.9999 30.1238C41.386 29.4478 42.0608 29 42.8285 29C44.0278 29 45 30.0926 45 31.4404Z" fill="#CE1311"/><path d="M29 31.4404C29 34.3291 24.9999 37 24.9999 37C24.9999 37 21 34.3291 21 31.4404C21 30.0926 21.9722 29 23.1714 29C23.9393 29 24.6139 29.4478 24.9999 30.1238C25.386 29.4478 26.0608 29 26.8285 29C28.0278 29 29 30.0926 29 31.4404Z" fill="#CE1311"/><path d="M45 44.4404C45 47.3291 40.9999 50 40.9999 50C40.9999 50 37 47.3291 37 44.4404C37 43.0926 37.9722 42 39.1714 42C39.9393 42 40.6139 42.4478 40.9999 43.1238C41.386 42.4478 42.0608 42 42.8285 42C44.0278 42 45 43.0926 45 44.4404Z" fill="#CE1311"/><path d="M29 44.4404C29 47.3291 24.9999 50 24.9999 50C24.9999 50 21 47.3291 21 44.4404C21 43.0926 21.9722 42 23.1714 42C23.9393 42 24.6139 42.4478 24.9999 43.1238C25.386 42.4478 26.0608 42 26.8285 42C28.0278 42 29 43.0926 29 44.4404Z" fill="#CE1311"/><path d="M45 57.4404C45 60.3291 40.9999 63 40.9999 63C40.9999 63 37 60.3291 37 57.4404C37 56.0926 37.9722 55 39.1714 55C39.9393 55 40.6139 55.4478 40.9999 56.1238C41.386 55.4478 42.0608 55 42.8285 55C44.0278 55 45 56.0926 45 57.4404Z" fill="#CE1311"/><path d="M29 57.4404C29 60.3291 24.9999 63 24.9999 63C24.9999 63 21 60.3291 21 57.4404C21 56.0926 21.9722 55 23.1714 55C23.9393 55 24.6139 55.4478 24.9999 56.1238C25.386 55.4478 26.0608 55 26.8285 55C28.0278 55 29 56.0926 29 57.4404Z" fill="#CE1311"/><rect opacity=".3" x="19.2" y="13.2" width="27.6" height="53.6" rx="1.8" stroke="#333" stroke-width=".4"/><path d="M8.22461 8.72949C8.22461 9.40918 8.38574 9.95996 8.70801 10.3818C9.03027 10.7979 9.44043 11.0059 9.93848 11.0059C10.1904 11.0059 10.46 10.9619 10.7471 10.874C11.04 10.7861 11.3096 10.6719 11.5557 10.5312V9.98633C11.5557 8.76758 11.4004 7.83594 11.0898 7.19141C10.7852 6.54688 10.3428 6.22461 9.7627 6.22461C9.24121 6.22461 8.85449 6.42969 8.60254 6.83984C8.35059 7.25 8.22461 7.83301 8.22461 8.58887V8.72949ZM8.11914 17.1934C7.86133 17.1934 7.55957 17.1758 7.21387 17.1406C6.86816 17.1055 6.54004 17.0557 6.22949 16.9912V15.7959C6.41699 15.8193 6.64258 15.8398 6.90625 15.8574C7.17578 15.875 7.43945 15.8838 7.69727 15.8838C8.85156 15.8838 9.7832 15.4854 10.4922 14.6885C11.2012 13.8916 11.5557 12.8691 11.5557 11.6211L11.4678 11.5859C11.1748 11.8145 10.8232 11.9932 10.4131 12.1221C10.0088 12.251 9.5459 12.3154 9.02441 12.3154C8.06348 12.3154 7.24902 12.0166 6.58105 11.4189C5.91895 10.8213 5.58789 10.0391 5.58789 9.07227V8.81738C5.58789 7.62207 5.96875 6.67285 6.73047 5.96973C7.49219 5.2666 8.54688 4.91504 9.89453 4.91504C11.3125 4.91504 12.3848 5.30469 13.1113 6.08398C13.8379 6.86328 14.2012 8.0293 14.2012 9.58203V10.2676C14.2012 12.4707 13.668 14.1758 12.6016 15.3828C11.541 16.5898 10.0469 17.1934 8.11914 17.1934Z" fill="#CE1311"/><path d="M16 23.6606C16 27.9937 9.99988 32 9.99988 32C9.99988 32 4 27.9937 4 23.6606C4 21.6388 5.45824 20 7.25716 20C8.40892 20 9.42088 20.6717 9.99988 21.6856C10.579 20.6717 11.5912 20 12.7427 20C14.5416 20 16 21.6388 16 23.6606Z" fill="#CE1311"/></svg>