<svg width="50" height="70" viewBox="0 0 50 70" fill="none" xmlns="http://www.w3.org/2000/svg"><rect x=".75" y=".75" width="48.5" height="68.5" rx="4.25" fill="#fff" stroke="#000" stroke-width=".5"/><path d="M33 36C33 36 29 38.9729 29 41.0411C29 41.1768 29.0091 41.2978 29.026 41.406C29.2735 43.0792 31.2484 43.3362 32.818 42.0224C32.3308 42.924 31.5454 44 31.5454 44H34.4545C34.4545 44 33.6693 42.9242 33.182 42.0227C34.8593 43.4265 37 43.0362 37 41.041C37 38.9729 33 36 33 36Z" fill="#000"/><path d="M41 16C41 16 37 18.9729 37 21.0411C37 21.1768 37.0091 21.2978 37.026 21.406C37.2735 23.0792 39.2484 23.3362 40.818 22.0224C40.3308 22.924 39.5454 24 39.5454 24H42.4545C42.4545 24 41.6693 22.9242 41.182 22.0227C42.8593 23.4265 45 23.0362 45 21.041C45 18.9729 41 16 41 16Z" fill="#000"/><path d="M25 16C25 16 21 18.9729 21 21.0411C21 21.1768 21.0091 21.2978 21.026 21.406C21.2735 23.0792 23.2484 23.3362 24.818 22.0224C24.3308 22.924 23.5454 24 23.5454 24H26.4545C26.4545 24 25.6693 22.9242 25.182 22.0227C26.8593 23.4265 29 23.0362 29 21.041C29 18.9729 25 16 25 16Z" fill="#000"/><path d="M41 29C41 29 37 31.9729 37 34.0411C37 34.1768 37.0091 34.2978 37.026 34.406C37.2735 36.0792 39.2484 36.3362 40.818 35.0224C40.3308 35.924 39.5454 37 39.5454 37H42.4545C42.4545 37 41.6693 35.9242 41.182 35.0227C42.8593 36.4265 45 36.0362 45 34.041C45 31.9729 41 29 41 29Z" fill="#000"/><path d="M25 29C25 29 21 31.9729 21 34.0411C21 34.1768 21.0091 34.2978 21.026 34.406C21.2735 36.0792 23.2484 36.3362 24.818 35.0224C24.3308 35.924 23.5454 37 23.5454 37H26.4545C26.4545 37 25.6693 35.9242 25.182 35.0227C26.8593 36.4265 29 36.0362 29 34.041C29 31.9729 25 29 25 29Z" fill="#000"/><path d="M41 42C41 42 37 44.9729 37 47.0411C37 47.1768 37.0091 47.2978 37.026 47.406C37.2735 49.0792 39.2484 49.3362 40.818 48.0224C40.3308 48.924 39.5454 50 39.5454 50H42.4545C42.4545 50 41.6693 48.9242 41.182 48.0227C42.8593 49.4265 45 49.0362 45 47.041C45 44.9729 41 42 41 42Z" fill="#000"/><path d="M25 42C25 42 21 44.9729 21 47.0411C21 47.1768 21.0091 47.2978 21.026 47.406C21.2735 49.0792 23.2484 49.3362 24.818 48.0224C24.3308 48.924 23.5454 50 23.5454 50H26.4545C26.4545 50 25.6693 48.9242 25.182 48.0227C26.8593 49.4265 29 49.0362 29 47.041C29 44.9729 25 42 25 42Z" fill="#000"/><path d="M41 55C41 55 37 57.9729 37 60.0411C37 60.1768 37.0091 60.2978 37.026 60.406C37.2735 62.0792 39.2484 62.3362 40.818 61.0224C40.3308 61.924 39.5454 63 39.5454 63H42.4545C42.4545 63 41.6693 61.9242 41.182 61.0227C42.8593 62.4265 45 62.0362 45 60.041C45 57.9729 41 55 41 55Z" fill="#000"/><path d="M25 55C25 55 21 57.9729 21 60.0411C21 60.1768 21.0091 60.2978 21.026 60.406C21.2735 62.0792 23.2484 62.3362 24.818 61.0224C24.3308 61.924 23.5454 63 23.5454 63H26.4545C26.4545 63 25.6693 61.9242 25.182 61.0227C26.8593 62.4265 29 62.0362 29 60.041C29 57.9729 25 55 25 55Z" fill="#000"/><rect opacity=".3" x="19.2" y="13.2" width="27.6" height="53.6" rx="1.8" stroke="#333" stroke-width=".4"/><path d="M8.22461 8.72949C8.22461 9.40918 8.38574 9.95996 8.70801 10.3818C9.03027 10.7979 9.44043 11.0059 9.93848 11.0059C10.1904 11.0059 10.46 10.9619 10.7471 10.874C11.04 10.7861 11.3096 10.6719 11.5557 10.5312V9.98633C11.5557 8.76758 11.4004 7.83594 11.0898 7.19141C10.7852 6.54688 10.3428 6.22461 9.7627 6.22461C9.24121 6.22461 8.85449 6.42969 8.60254 6.83984C8.35059 7.25 8.22461 7.83301 8.22461 8.58887V8.72949ZM8.11914 17.1934C7.86133 17.1934 7.55957 17.1758 7.21387 17.1406C6.86816 17.1055 6.54004 17.0557 6.22949 16.9912V15.7959C6.41699 15.8193 6.64258 15.8398 6.90625 15.8574C7.17578 15.875 7.43945 15.8838 7.69727 15.8838C8.85156 15.8838 9.7832 15.4854 10.4922 14.6885C11.2012 13.8916 11.5557 12.8691 11.5557 11.6211L11.4678 11.5859C11.1748 11.8145 10.8232 11.9932 10.4131 12.1221C10.0088 12.251 9.5459 12.3154 9.02441 12.3154C8.06348 12.3154 7.24902 12.0166 6.58105 11.4189C5.91895 10.8213 5.58789 10.0391 5.58789 9.07227V8.81738C5.58789 7.62207 5.96875 6.67285 6.73047 5.96973C7.49219 5.2666 8.54688 4.91504 9.89453 4.91504C11.3125 4.91504 12.3848 5.30469 13.1113 6.08398C13.8379 6.86328 14.2012 8.0293 14.2012 9.58203V10.2676C14.2012 12.4707 13.668 14.1758 12.6016 15.3828C11.541 16.5898 10.0469 17.1934 8.11914 17.1934Z" fill="#000"/><path d="M10 20C10 20 4 24.4593 4 27.5616C4 27.7652 4.01366 27.9467 4.03895 28.109C4.41022 30.6188 7.37255 31.0043 9.72695 29.0335C8.99625 30.386 7.81803 32 7.81803 32H12.1818C12.1818 32 11.0039 30.3864 10.273 29.0341C12.789 31.1398 16 30.5544 16 27.5614C16 24.4593 10 20 10 20Z" fill="#000"/></svg>