<svg width="50" height="70" viewBox="0 0 50 70" fill="none" xmlns="http://www.w3.org/2000/svg"><rect x=".75" y=".75" width="48.5" height="68.5" rx="4.25" fill="#fff" stroke="#000" stroke-width=".5"/><path fill-rule="evenodd" clip-rule="evenodd" d="M33 44L37 40L33 36L29 40L33 44Z" fill="#CE1311"/><rect opacity=".3" x="19.2" y="13.2" width="27.6" height="53.6" rx="1.8" stroke="#333" stroke-width=".4"/><path d="M4.20801 15.9629L5.08691 15.7168L8.89258 5.1084H11.2041L14.9219 15.7168L15.792 15.9629L15.6162 17H11.2744L11.0986 15.9629L12.2588 15.7168L11.5381 13.6074H7.55664L6.81836 15.7168L7.97852 15.9629L7.80273 17H4.38379L4.20801 15.9629ZM8.00488 12.2979H11.0986L9.63965 8.00879H9.49902L8.00488 12.2979Z" fill="#CE1311"/><path fill-rule="evenodd" clip-rule="evenodd" d="M10 32L16 26L10 20L4 26L10 32Z" fill="#CE1311"/></svg>