<svg width="50" height="70" viewBox="0 0 50 70" fill="none" xmlns="http://www.w3.org/2000/svg"><rect x=".75" y=".75" width="48.5" height="68.5" rx="4.25" fill="#fff" stroke="#000" stroke-width=".5"/><path d="M37 38.4404C37 41.3291 32.9999 44 32.9999 44C32.9999 44 29 41.3291 29 38.4404C29 37.0926 29.9722 36 31.1714 36C31.9393 36 32.6139 36.4478 32.9999 37.1238C33.386 36.4478 34.0608 36 34.8285 36C36.0278 36 37 37.0926 37 38.4404Z" fill="#CE1311"/><rect opacity=".3" x="19.2" y="13.2" width="27.6" height="53.6" rx="1.8" stroke="#333" stroke-width=".4"/><path d="M4.20801 15.9629L5.08691 15.7168L8.89258 5.1084H11.2041L14.9219 15.7168L15.792 15.9629L15.6162 17H11.2744L11.0986 15.9629L12.2588 15.7168L11.5381 13.6074H7.55664L6.81836 15.7168L7.97852 15.9629L7.80273 17H4.38379L4.20801 15.9629ZM8.00488 12.2979H11.0986L9.63965 8.00879H9.49902L8.00488 12.2979Z" fill="#CE1311"/><path d="M16 23.6606C16 27.9937 9.99988 32 9.99988 32C9.99988 32 4 27.9937 4 23.6606C4 21.6388 5.45824 20 7.25716 20C8.40892 20 9.42088 20.6717 9.99988 21.6856C10.579 20.6717 11.5912 20 12.7427 20C14.5416 20 16 21.6388 16 23.6606Z" fill="#CE1311"/></svg>