<svg width="50" height="70" viewBox="0 0 50 70" fill="none" xmlns="http://www.w3.org/2000/svg"><rect x=".75" y=".75" width="48.5" height="68.5" rx="4.25" fill="#fff" stroke="#000" stroke-width=".5"/><path d="M33 36C33 36 29 38.9729 29 41.0411C29 41.1768 29.0091 41.2978 29.026 41.406C29.2735 43.0792 31.2484 43.3362 32.818 42.0224C32.3308 42.924 31.5454 44 31.5454 44H34.4545C34.4545 44 33.6693 42.9242 33.182 42.0227C34.8593 43.4265 37 43.0362 37 41.041C37 38.9729 33 36 33 36Z" fill="#000"/><rect opacity=".3" x="19.2" y="13.2" width="27.6" height="53.6" rx="1.8" stroke="#333" stroke-width=".4"/><path d="M4.20801 15.9629L5.08691 15.7168L8.89258 5.1084H11.2041L14.9219 15.7168L15.792 15.9629L15.6162 17H11.2744L11.0986 15.9629L12.2588 15.7168L11.5381 13.6074H7.55664L6.81836 15.7168L7.97852 15.9629L7.80273 17H4.38379L4.20801 15.9629ZM8.00488 12.2979H11.0986L9.63965 8.00879H9.49902L8.00488 12.2979Z" fill="#000"/><path d="M10 20C10 20 4 24.4593 4 27.5616C4 27.7652 4.01366 27.9467 4.03895 28.109C4.41022 30.6188 7.37255 31.0043 9.72695 29.0335C8.99625 30.386 7.81803 32 7.81803 32H12.1818C12.1818 32 11.0039 30.3864 10.273 29.0341C12.789 31.1398 16 30.5544 16 27.5614C16 24.4593 10 20 10 20Z" fill="#000"/></svg>