<svg width="20" height="618" viewBox="0 0 20 618" version="1.1" xmlns="http://www.w3.org/2000/svg" xmlns:xlink="http://www.w3.org/1999/xlink"><title>icons</title><desc>Created with Sketch.</desc><defs><circle id="path-1" cx="10" cy="10" r="10"/><linearGradient x1="50%" y1="0%" x2="50%" y2="100%" id="linearGradient-3"><stop stop-color="#000" stop-opacity="0" offset="0%"/><stop stop-color="#000" stop-opacity=".15" offset="100%"/></linearGradient><circle id="path-4" cx="10" cy="10" r="10"/><circle id="path-6" cx="10" cy="10" r="10"/><circle id="path-8" cx="10" cy="10" r="10"/><circle id="path-10" cx="10" cy="10" r="10"/><circle id="path-12" cx="10" cy="10" r="10"/><circle id="path-14" cx="10" cy="10" r="10"/><circle id="path-16" cx="10" cy="10" r="10"/><circle id="path-18" cx="10" cy="10" r="10"/><circle id="path-20" cx="10" cy="10" r="10"/><circle id="path-22" cx="10" cy="10" r="10"/><circle id="path-24" cx="10" cy="10" r="10"/><circle id="path-26" cx="10" cy="10" r="10"/><circle id="path-28" cx="10" cy="10" r="10"/><circle id="path-30" cx="10" cy="10" r="10"/><circle id="path-32" cx="10" cy="10" r="10"/><circle id="path-34" cx="10" cy="10" r="10"/><circle id="path-36" cx="10" cy="10" r="10"/><circle id="path-38" cx="10" cy="10" r="10"/><circle id="path-40" cx="10" cy="10" r="10"/><circle id="path-42" cx="10" cy="10" r="10"/><circle id="path-44" cx="10" cy="10" r="10"/><circle id="path-46" cx="10" cy="10" r="10"/><circle id="path-48" cx="10" cy="10" r="10"/></defs><g id="Page-1" stroke="none" stroke-width="1" fill="none" fill-rule="evenodd"><g id="icons"><g id="1"><g id="Clipped"><mask id="mask-2" fill="#fff"><use xlink:href="#path-1"/></mask><g id="Group" mask="url(#mask-2)"><g fill-rule="nonzero" id="Oval"><circle fill="#F7CC00" cx="10" cy="10" r="10"/><circle fill="url(#linearGradient-3)" cx="10" cy="10" r="10"/></g><path d="M8.1,0.1 L11.9,0.1 L11.9,3.9 L8.1,3.9 L8.1,0.1 Z M16.1,11.9 L16.1,8.1 L19.9,8.1 L19.9,11.9 L16.1,11.9 Z M0.1,11.9 L0.1,8.1 L3.9,8.1 L3.9,11.9 L0.1,11.9 Z M8.1,16.1 L11.9,16.1 L11.9,19.9 L8.1,19.9 L8.1,16.1 Z M1.656,4.343 L4.343,1.656 L7.03,4.343 L4.343,7.03 L1.656,4.343 Z M15.656,7.03 L12.97,4.343 L15.657,1.656 L18.344,4.343 L15.656,7.03 Z M4.343,18.344 L1.656,15.657 L4.343,12.97 L7.03,15.657 L4.343,18.344 Z M12.263,14.95 L14.95,12.263 L18.344,15.657 L15.657,18.344 L12.263,14.95 Z" id="Shape" stroke="#000" stroke-width=".2" fill="#FDAA2A" fill-rule="nonzero"/><circle id="Oval" stroke="#000" stroke-width=".2" fill="#FDFDFD" fill-rule="nonzero" cx="10" cy="10" r="6.9"/><polygon id="Path" fill="#000" fill-rule="nonzero" points="8.629 12.481 9.477 12.332 9.477 7.92 8.44 7.92 8.396 7.467 9.912 7.054 10.795 7.054 10.795 12.332 11.639 12.482 11.551 13 8.717 13 8.629 12.481"/><circle id="Oval" stroke="#000" stroke-width=".2" cx="10" cy="10" r="9.9"/></g></g></g><g id="10" transform="translate(0.000000, 26.000000)"><g id="Clipped"><mask id="mask-5" fill="#fff"><use xlink:href="#path-4"/></mask><g id="Group" mask="url(#mask-5)"><g fill-rule="nonzero" id="Oval"><circle fill="#69B7F8" cx="10" cy="10" r="10"/><circle fill="url(#linearGradient-3)" cx="10" cy="10" r="10"/></g><polygon id="Path" stroke="#000" stroke-width=".2" fill="#278CE1" fill-rule="nonzero" points="8.1 0.1 11.9 0.1 11.9 3.9 8.1 3.9"/><path d="M16.1,11.9 L16.1,8.1 L19.9,8.1 L19.9,11.9 L16.1,11.9 Z M0.1,11.9 L0.1,8.1 L3.9,8.1 L3.9,11.9 L0.1,11.9 Z M8.1,16.1 L11.9,16.1 L11.9,19.9 L8.1,19.9 L8.1,16.1 Z" id="Shape" stroke="#000" stroke-width=".2" fill="#278BDE" fill-rule="nonzero"/><path d="M1.656,4.343 L4.343,1.656 L7.03,4.343 L4.343,7.03 L1.656,4.343 Z M15.656,7.03 L12.97,4.343 L15.657,1.656 L18.344,4.343 L15.656,7.03 Z M4.343,18.344 L1.656,15.657 L4.343,12.97 L7.03,15.657 L4.343,18.344 Z M12.263,14.95 L14.95,12.263 L18.344,15.657 L15.657,18.344 L12.263,14.95 Z" id="Shape" stroke="#000" stroke-width=".2" fill="#278BDF" fill-rule="nonzero"/><circle id="Oval" stroke="#000" stroke-width=".2" fill="#FDFDFD" fill-rule="nonzero" cx="10" cy="10" r="6.9"/><path d="M6.093,12.481 L6.941,12.332 L6.941,7.92 L5.904,7.92 L5.86,7.467 L7.376,7.054 L8.26,7.054 L8.26,12.332 L9.103,12.482 L9.015,13 L6.181,13 L6.093,12.481 L6.093,12.481 Z M11.516,13.097 C10.776,13.097 10.219,12.903 9.846,12.517 C9.474,12.127 9.288,11.531 9.288,10.728 L9.288,10.267 C9.288,9.197 9.495,8.378 9.908,7.81 C10.321,7.242 10.911,6.958 11.678,6.958 C12.482,6.958 13.066,7.151 13.432,7.538 C13.799,7.924 13.982,8.522 13.982,9.331 L13.982,9.788 C13.982,10.91 13.782,11.742 13.384,12.284 C12.986,12.826 12.363,13.097 11.516,13.097 Z M12.646,9.563 C12.646,8.919 12.571,8.433 12.422,8.104 C12.272,7.776 12.01,7.612 11.635,7.612 C11.281,7.612 11.023,7.788 10.862,8.14 C10.703,8.488 10.624,9.065 10.624,9.871 L10.624,10.486 C10.624,11.151 10.704,11.644 10.862,11.963 C11.02,12.283 11.275,12.442 11.626,12.442 C11.99,12.442 12.25,12.263 12.408,11.906 C12.567,11.548 12.646,10.973 12.646,10.179 L12.646,9.563 L12.646,9.563 Z" id="Shape" fill="#000" fill-rule="nonzero"/><circle id="Oval" stroke="#000" stroke-width=".2" cx="10" cy="10" r="9.9"/></g></g></g><g id="100" transform="translate(0.000000, 52.000000)"><g id="Clipped"><mask id="mask-7" fill="#fff"><use xlink:href="#path-6"/></mask><g id="Group" mask="url(#mask-7)"><circle id="Oval" fill="#BF75B5" fill-rule="nonzero" cx="10" cy="10" r="10"/><path d="M8.1,0.1 L11.9,0.1 L11.9,3.9 L8.1,3.9 L8.1,0.1 Z M16.1,11.9 L16.1,8.1 L19.9,8.1 L19.9,11.9 L16.1,11.9 Z M0.1,11.9 L0.1,8.1 L3.9,8.1 L3.9,11.9 L0.1,11.9 Z M8.1,16.1 L11.9,16.1 L11.9,19.9 L8.1,19.9 L8.1,16.1 Z" id="Shape" stroke="#000" stroke-width=".2" fill="#984DB3" fill-rule="nonzero"/><polygon id="Path" stroke="#000" stroke-width=".2" fill="#994DB4" fill-rule="nonzero" points="1.656 4.343 4.343 1.656 7.03 4.343 4.343 7.03"/><path d="M15.656,7.03 L12.97,4.343 L15.657,1.656 L18.344,4.343 L15.656,7.03 Z M4.343,18.344 L1.656,15.657 L4.343,12.97 L7.03,15.657 L4.343,18.344 Z M12.263,14.95 L14.95,12.263 L18.344,15.657 L15.657,18.344 L12.263,14.95 Z" id="Shape" stroke="#000" stroke-width=".2" fill="#994DB3" fill-rule="nonzero"/><circle id="Oval" stroke="#000" stroke-width=".2" fill="#FDFDFD" fill-rule="nonzero" cx="10" cy="10" r="6.9"/><path d="M4.989,11.597 L5.649,11.48 L5.649,8.05 L4.842,8.05 L4.808,7.698 L5.988,7.376 L6.674,7.376 L6.674,11.481 L7.33,11.598 L7.262,12.001 L5.057,12.001 L4.989,11.598 L4.989,11.597 Z M9.207,12.075 C8.631,12.075 8.197,11.925 7.908,11.624 C7.618,11.321 7.474,10.857 7.474,10.233 L7.474,9.874 C7.474,9.042 7.634,8.405 7.956,7.964 C8.277,7.521 8.736,7.3 9.334,7.3 C9.958,7.3 10.413,7.45 10.697,7.751 C10.982,8.052 11.125,8.517 11.125,9.146 L11.125,9.501 C11.125,10.374 10.97,11.021 10.66,11.443 C10.35,11.864 9.866,12.075 9.207,12.075 L9.207,12.075 Z M10.085,9.327 C10.085,8.826 10.027,8.447 9.911,8.192 C9.795,7.937 9.591,7.81 9.299,7.81 C9.024,7.81 8.823,7.946 8.698,8.22 C8.575,8.49 8.513,8.94 8.513,9.566 L8.513,10.045 C8.513,10.562 8.575,10.945 8.698,11.193 C8.80001674,11.4284978 9.03658236,11.5767986 9.293,11.566 C9.575,11.566 9.778,11.426 9.901,11.149 C10.024,10.871 10.085,10.423 10.085,9.806 L10.085,9.327 L10.085,9.327 Z M13.152,12.075 C12.575,12.075 12.142,11.925 11.852,11.624 C11.563,11.321 11.419,10.857 11.419,10.233 L11.419,9.874 C11.419,9.042 11.579,8.405 11.901,7.964 C12.222,7.521 12.681,7.3 13.278,7.3 C13.903,7.3 14.358,7.45 14.642,7.751 C14.927,8.052 15.069,8.517 15.069,9.146 L15.069,9.501 C15.069,10.374 14.914,11.021 14.604,11.443 C14.294,11.864 13.81,12.075 13.152,12.075 Z M14.03,9.327 C14.03,8.826 13.972,8.447 13.856,8.192 C13.74,7.937 13.536,7.81 13.244,7.81 C12.968,7.81 12.768,7.946 12.642,8.22 C12.519,8.49 12.458,8.94 12.458,9.566 L12.458,10.045 C12.458,10.562 12.519,10.945 12.642,11.193 C12.7440167,11.4284978 12.9805824,11.5767986 13.237,11.566 C13.52,11.566 13.723,11.426 13.846,11.149 C13.969,10.871 14.03,10.423 14.03,9.806 L14.03,9.327 L14.03,9.327 Z" id="Shape" fill="#000" fill-rule="nonzero"/><circle id="Oval" stroke="#000" stroke-width=".2" cx="10" cy="10" r="9.9"/></g></g></g><g id="100B" transform="translate(0.000000, 78.000000)"><g id="Clipped"><mask id="mask-9" fill="#fff"><use xlink:href="#path-8"/></mask><g id="Group" mask="url(#mask-9)"><g fill-rule="nonzero" id="Oval"><circle fill="#F7CC00" cx="10" cy="10" r="10"/><circle fill="#222428" cx="10" cy="10" r="10"/></g><path d="M1.656,4.343 L4.343,1.656 L7.03,4.343 L4.343,7.03 L1.656,4.343 Z M15.656,7.03 L12.97,4.343 L15.657,1.656 L18.344,4.343 L15.656,7.03 Z M4.343,18.344 L1.656,15.657 L4.343,12.97 L7.03,15.657 L4.343,18.344 Z M12.263,14.95 L14.95,12.263 L18.344,15.657 L15.657,18.344 L12.263,14.95 Z" id="Shape" stroke="#000" stroke-width=".2" fill="#984DB3" fill-rule="nonzero"/><circle id="Oval" stroke="#000" stroke-width=".2" fill="#974DB2" fill-rule="nonzero" cx="10" cy="10" r="6.9"/><path d="M4.017,11.654 L4.583,11.554 L4.583,8.614 L3.89,8.614 L3.861,8.311 L4.871,8.036 L5.461,8.036 L5.461,11.555 L6.023,11.655 L5.965,12 L4.075,12 L4.016,11.654 L4.017,11.654 Z M7.633,12.065 C7.139,12.065 6.768,11.935 6.52,11.678 C6.271,11.418 6.147,11.02 6.147,10.485 L6.147,10.178 C6.147,9.465 6.285,8.918 6.561,8.54 C6.836,8.161 7.229,7.972 7.741,7.972 C8.276,7.972 8.666,8.101 8.911,8.358 C9.154,8.616 9.276,9.015 9.276,9.554 L9.276,9.858 C9.276,10.606 9.143,11.161 8.878,11.523 C8.612,11.883 8.198,12.065 7.633,12.065 Z M8.386,9.709 C8.386,9.279 8.336,8.955 8.236,8.736 C8.136,8.518 7.962,8.408 7.712,8.408 C7.476,8.408 7.304,8.525 7.196,8.76 C7.091,8.992 7.038,9.377 7.038,9.914 L7.038,10.324 C7.038,10.768 7.091,11.096 7.196,11.309 C7.302,11.522 7.472,11.628 7.706,11.628 C7.948,11.628 8.122,11.508 8.227,11.271 C8.333,11.032 8.386,10.648 8.386,10.119 L8.386,9.709 L8.386,9.709 Z M11.014,12.065 C10.52,12.065 10.149,11.935 9.901,11.678 C9.653,11.418 9.528,11.02 9.528,10.485 L9.528,10.178 C9.528,9.465 9.666,8.918 9.942,8.54 C10.217,8.161 10.611,7.972 11.122,7.972 C11.658,7.972 12.047,8.101 12.292,8.358 C12.535,8.616 12.658,9.015 12.658,9.554 L12.658,9.858 C12.658,10.606 12.525,11.161 12.259,11.523 C11.993,11.883 11.579,12.065 11.014,12.065 Z M11.767,9.709 C11.767,9.279 11.717,8.955 11.617,8.736 C11.517,8.518 11.343,8.408 11.093,8.408 C10.857,8.408 10.685,8.525 10.577,8.76 C10.472,8.992 10.419,9.377 10.419,9.914 L10.419,10.324 C10.419,10.768 10.472,11.096 10.577,11.309 C10.683,11.522 10.853,11.628 11.087,11.628 C11.329,11.628 11.503,11.508 11.609,11.271 C11.714,11.032 11.767,10.648 11.767,10.119 L11.767,9.709 L11.767,9.709 Z M13.288,8.481 L12.868,8.381 L12.928,8.036 L14.594,8.036 C15.008,8.036 15.331,8.116 15.564,8.273 C15.7936929,8.41972368 15.9278258,8.67770087 15.916,8.95 C15.9165675,9.14949839 15.8503901,9.34345446 15.728,9.501 C15.5953204,9.67116504 15.422016,9.8052697 15.224,9.891 L15.23,9.937 C15.494,9.982 15.702,10.082 15.854,10.237 C16.0078788,10.3908999 16.0914529,10.6014632 16.085,10.819 C16.085,11.173 15.958,11.458 15.705,11.675 C15.453,11.892 15.12,12 14.705,12 L12.927,12 L12.869,11.654 L13.288,11.554 L13.288,8.481 L13.288,8.481 Z M14.166,10.161 L14.166,11.563 L14.421,11.563 C14.538,11.563 14.656,11.559 14.773,11.549 C14.893,11.539 15.007,11.519 15.119,11.49 C15.144,11.41 15.165,11.312 15.18,11.197 C15.198,11.082 15.206,10.967 15.206,10.852 C15.206,10.631 15.14,10.461 15.007,10.342 C14.874,10.221 14.696,10.16 14.471,10.16 L14.166,10.16 L14.166,10.161 Z M14.166,8.473 L14.166,9.723 L14.404,9.723 C14.5846447,9.72283018 14.7642654,9.69587023 14.937,9.643 C15.0027992,9.45565166 15.0366045,9.25856683 15.037,9.06 C15.037,8.849 14.983,8.697 14.875,8.607 C14.77,8.517 14.597,8.473 14.357,8.473 L14.167,8.473 L14.166,8.473 Z" id="Shape" fill="#222428" fill-rule="nonzero"/><circle id="Oval" stroke="#000" stroke-width=".2" cx="10" cy="10" r="9.9"/></g></g></g><g id="100K" transform="translate(0.000000, 104.000000)"><g id="Clipped"><mask id="mask-11" fill="#fff"><use xlink:href="#path-10"/></mask><g id="Group" mask="url(#mask-11)"><g fill-rule="nonzero" id="Oval"><circle fill="#F7CC00" cx="10" cy="10" r="10"/><circle fill="#974DB2" cx="10" cy="10" r="10"/></g><path d="M8.1,0.1 L11.9,0.1 L11.9,3.9 L8.1,3.9 L8.1,0.1 Z M16.1,11.9 L16.1,8.1 L19.9,8.1 L19.9,11.9 L16.1,11.9 Z M0.1,11.9 L0.1,8.1 L3.9,8.1 L3.9,11.9 L0.1,11.9 Z M8.1,16.1 L11.9,16.1 L11.9,19.9 L8.1,19.9 L8.1,16.1 Z M1.656,4.343 L4.343,1.656 L7.03,4.343 L4.343,7.03 L1.656,4.343 Z M15.656,7.03 L12.97,4.343 L15.657,1.656 L18.344,4.343 L15.656,7.03 Z M4.343,18.344 L1.656,15.657 L4.343,12.97 L7.03,15.657 L4.343,18.344 Z M12.263,14.95 L14.95,12.263 L18.344,15.657 L15.657,18.344 L12.263,14.95 Z" id="Shape" stroke="#000" stroke-width=".2" fill="#222529" fill-rule="nonzero"/><circle id="Oval" stroke="#000" stroke-width=".2" fill="#FDFDFD" fill-rule="nonzero" cx="10" cy="10" r="6.9"/><path d="M3.783,11.654 L4.348,11.554 L4.348,8.614 L3.657,8.614 L3.627,8.311 L4.638,8.036 L5.228,8.036 L5.228,11.555 L5.79,11.655 L5.73,12 L3.84,12 L3.782,11.654 L3.783,11.654 Z M7.398,12.065 C6.904,12.065 6.533,11.935 6.285,11.678 C6.037,11.418 5.913,11.02 5.913,10.485 L5.913,10.178 C5.913,9.465 6.051,8.918 6.326,8.54 C6.602,8.161 6.996,7.972 7.506,7.972 C8.042,7.972 8.432,8.101 8.676,8.358 C8.92,8.616 9.042,9.015 9.042,9.554 L9.042,9.858 C9.042,10.606 8.909,11.161 8.643,11.523 C8.378,11.883 7.963,12.065 7.398,12.065 Z M8.151,9.709 C8.151,9.279 8.101,8.955 8.001,8.736 C7.902,8.518 7.727,8.408 7.477,8.408 C7.241,8.408 7.069,8.525 6.962,8.76 C6.856,8.992 6.804,9.377 6.804,9.914 L6.804,10.324 C6.804,10.768 6.856,11.096 6.962,11.309 C7.067,11.522 7.237,11.628 7.472,11.628 C7.714,11.628 7.888,11.508 7.993,11.271 C8.099,11.032 8.151,10.648 8.151,10.119 L8.151,9.709 L8.151,9.709 Z M10.78,12.065 C10.285,12.065 9.914,11.935 9.666,11.678 C9.418,11.418 9.294,11.02 9.294,10.485 L9.294,10.178 C9.294,9.465 9.432,8.918 9.707,8.54 C9.983,8.161 10.377,7.972 10.887,7.972 C11.423,7.972 11.813,8.101 12.057,8.358 C12.301,8.616 12.423,9.015 12.423,9.554 L12.423,9.858 C12.423,10.606 12.29,11.161 12.025,11.523 C11.759,11.883 11.344,12.065 10.78,12.065 L10.78,12.065 Z M11.533,9.709 C11.533,9.279 11.483,8.955 11.383,8.736 C11.283,8.518 11.109,8.408 10.859,8.408 C10.622,8.408 10.45,8.525 10.343,8.76 C10.238,8.992 10.185,9.377 10.185,9.914 L10.185,10.324 C10.185,10.768 10.238,11.096 10.343,11.309 C10.448,11.522 10.618,11.628 10.853,11.628 C11.095,11.628 11.269,11.508 11.374,11.271 C11.48,11.032 11.533,10.648 11.533,10.119 L11.533,9.709 L11.533,9.709 Z M12.617,11.654 L13.036,11.554 L13.036,8.481 L12.616,8.381 L12.676,8.036 L14.272,8.036 L14.331,8.382 L13.915,8.482 L13.915,9.85 L13.955,9.867 L15.429,8.443 L15.109,8.385 L15.169,8.036 L16.481,8.036 L16.539,8.382 L16.126,8.487 L14.963,9.595 L16.258,11.569 L16.601,11.654 L16.542,12 L15.535,12 L14.351,10.178 L13.915,10.594 L13.915,11.554 L14.331,11.654 L14.271,12 L12.675,12 L12.617,11.654 L12.617,11.654 Z" id="Shape" fill="#232428" fill-rule="nonzero"/><circle id="Oval" stroke="#000" stroke-width=".2" cx="10" cy="10" r="9.9"/></g></g></g><g id="100M" transform="translate(0.000000, 130.000000)"><g id="Clipped"><mask id="mask-13" fill="#fff"><use xlink:href="#path-12"/></mask><g id="Group" mask="url(#mask-13)"><g fill-rule="nonzero" id="Oval"><circle fill="#F7CC00" cx="10" cy="10" r="10"/><circle fill="#222428" cx="10" cy="10" r="10"/></g><path d="M8.1,0.1 L11.9,0.1 L11.9,3.9 L8.1,3.9 L8.1,0.1 Z M16.1,11.9 L16.1,8.1 L19.9,8.1 L19.9,11.9 L16.1,11.9 Z M0.1,11.9 L0.1,8.1 L3.9,8.1 L3.9,11.9 L0.1,11.9 Z M8.1,16.1 L11.9,16.1 L11.9,19.9 L8.1,19.9 L8.1,16.1 Z" id="Shape" stroke="#000" stroke-width=".2" fill="#984DB3" fill-rule="nonzero"/><circle id="Oval" stroke="#000" stroke-width=".2" fill="#202428" fill-rule="nonzero" cx="10" cy="10" r="6.9"/><path d="M2.878,11.654 L3.443,11.554 L3.443,8.614 L2.752,8.614 L2.722,8.311 L3.733,8.036 L4.322,8.036 L4.322,11.555 L4.885,11.655 L4.825,12 L2.937,12 L2.879,11.654 L2.878,11.654 Z M6.493,12.065 C5.999,12.065 5.628,11.935 5.38,11.678 C5.132,11.418 5.008,11.02 5.008,10.485 L5.008,10.178 C5.008,9.465 5.146,8.918 5.421,8.54 C5.696,8.161 6.09,7.972 6.601,7.972 C7.137,7.972 7.526,8.101 7.771,8.358 C8.015,8.616 8.137,9.015 8.137,9.554 L8.137,9.858 C8.137,10.606 8.004,11.161 7.738,11.523 C7.473,11.883 7.058,12.065 6.493,12.065 L6.493,12.065 Z M7.246,9.709 C7.246,9.279 7.196,8.955 7.096,8.736 C6.997,8.518 6.822,8.408 6.572,8.408 C6.336,8.408 6.164,8.525 6.057,8.76 C5.951,8.992 5.898,9.377 5.898,9.914 L5.898,10.324 C5.898,10.768 5.951,11.096 6.057,11.309 C6.162,11.522 6.332,11.628 6.567,11.628 C6.809,11.628 6.982,11.508 7.087,11.271 C7.193,11.032 7.247,10.648 7.247,10.119 L7.247,9.709 L7.246,9.709 Z M9.874,12.065 C9.38,12.065 9.009,11.935 8.761,11.678 C8.513,11.418 8.389,11.02 8.389,10.485 L8.389,10.178 C8.389,9.465 8.527,8.918 8.802,8.54 C9.077,8.161 9.471,7.972 9.982,7.972 C10.518,7.972 10.908,8.101 11.152,8.358 C11.396,8.616 11.518,9.015 11.518,9.554 L11.518,9.858 C11.518,10.606 11.385,11.161 11.119,11.523 C10.854,11.883 10.439,12.065 9.874,12.065 L9.874,12.065 Z M10.627,9.709 C10.627,9.279 10.577,8.955 10.477,8.736 C10.378,8.518 10.203,8.408 9.953,8.408 C9.717,8.408 9.545,8.525 9.438,8.76 C9.332,8.992 9.279,9.377 9.279,9.914 L9.279,10.324 C9.279,10.768 9.332,11.096 9.438,11.309 C9.543,11.522 9.713,11.628 9.948,11.628 C10.19,11.628 10.363,11.508 10.469,11.271 C10.574,11.032 10.627,10.648 10.627,10.119 L10.627,9.709 L10.627,9.709 Z M12.13,8.481 L11.711,8.381 L11.77,8.036 L13.364,8.036 L14.451,10.91 L14.497,10.91 L15.543,8.036 L17.169,8.036 L17.228,8.382 L16.812,8.482 L16.812,11.555 L17.228,11.655 L17.169,12 L15.573,12 L15.514,11.654 L15.934,11.554 L15.934,8.674 L15.886,8.674 L14.644,12 L14.044,12 L12.764,8.675 L12.716,8.675 L12.716,11.555 L13.132,11.655 L13.074,12 L11.77,12 L11.711,11.654 L12.131,11.554 L12.131,8.481 L12.13,8.481 Z" id="Shape" fill="#FFF" fill-rule="nonzero"/><circle id="Oval" stroke="#000" stroke-width=".2" cx="10" cy="10" r="9.9"/></g></g></g><g id="10B" transform="translate(0.000000, 156.000000)"><g id="Clipped"><mask id="mask-15" fill="#fff"><use xlink:href="#path-14"/></mask><g id="Group" mask="url(#mask-15)"><g fill-rule="nonzero" id="Oval"><circle fill="#202428" cx="10" cy="10" r="10"/><circle fill="url(#linearGradient-3)" cx="10" cy="10" r="10"/></g><path d="M1.656,4.343 L4.343,1.656 L7.03,4.343 L4.343,7.03 L1.656,4.343 Z M15.656,7.03 L12.97,4.343 L15.657,1.656 L18.344,4.343 L15.656,7.03 Z M4.343,18.344 L1.656,15.657 L4.343,12.97 L7.03,15.657 L4.343,18.344 Z M12.263,14.95 L14.95,12.263 L18.344,15.657 L15.657,18.344 L12.263,14.95 Z" id="Shape" stroke="#000" stroke-width=".2" fill="#278BDE" fill-rule="nonzero"/><circle id="Oval" stroke="#000" stroke-width=".2" fill="#278ADC" fill-rule="nonzero" cx="10" cy="10" r="6.9"/><path d="M4.992,11.597 L5.652,11.48 L5.652,8.05 L4.845,8.05 L4.811,7.698 L5.991,7.376 L6.677,7.376 L6.677,11.481 L7.334,11.598 L7.265,12.001 L5.061,12.001 L4.992,11.598 L4.992,11.597 Z M9.21,12.075 C8.634,12.075 8.201,11.925 7.912,11.624 C7.622,11.321 7.478,10.857 7.478,10.233 L7.478,9.874 C7.478,9.042 7.638,8.405 7.96,7.964 C8.28,7.521 8.74,7.3 9.337,7.3 C9.961,7.3 10.416,7.45 10.701,7.751 C10.985,8.052 11.128,8.517 11.128,9.146 L11.128,9.501 C11.128,10.374 10.973,11.021 10.663,11.443 C10.353,11.864 9.869,12.075 9.21,12.075 L9.21,12.075 Z M10.089,9.327 C10.089,8.826 10.031,8.447 9.915,8.192 C9.798,7.937 9.595,7.81 9.303,7.81 C9.027,7.81 8.826,7.946 8.701,8.22 C8.578,8.49 8.517,8.94 8.517,9.566 L8.517,10.045 C8.517,10.562 8.578,10.945 8.701,11.193 C8.80301674,11.4284978 9.03958236,11.5767986 9.296,11.566 C9.579,11.566 9.781,11.426 9.904,11.149 C10.027,10.871 10.089,10.423 10.089,9.806 L10.089,9.327 L10.089,9.327 Z M11.863,7.895 L11.374,7.779 L11.443,7.375 L13.387,7.375 C13.871,7.375 14.247,7.468 14.519,7.652 C14.792,7.835 14.929,8.098 14.929,8.442 C14.929,8.677 14.856,8.891 14.71,9.085 C14.5550758,9.28314988 14.3529005,9.43925117 14.122,9.539 L14.129,9.594 C14.437,9.646 14.679,9.762 14.857,9.942 C15.037,10.122 15.127,10.349 15.127,10.622 C15.127,11.035 14.979,11.368 14.683,11.621 C14.389,11.873 14,12 13.517,12 L11.443,12 L11.374,11.597 L11.864,11.48 L11.864,7.895 L11.863,7.895 Z M12.889,9.854 L12.889,11.491 L13.186,11.491 C13.323,11.491 13.459,11.485 13.596,11.474 C13.735,11.462 13.869,11.44 13.999,11.405 C14.029,11.312 14.053,11.198 14.071,11.064 C14.091,10.929 14.101,10.794 14.101,10.66 C14.101,10.403 14.024,10.204 13.869,10.065 C13.715,9.925 13.506,9.854 13.244,9.854 L12.889,9.854 Z M12.889,7.884 L12.889,9.344 L13.165,9.344 C13.265,9.344 13.369,9.336 13.476,9.32 C13.586,9.304 13.689,9.282 13.787,9.252 C13.863613,9.03346467 13.9028294,8.80357551 13.903,8.572 C13.903,8.323 13.841,8.147 13.716,8.042 C13.593,7.937 13.391,7.885 13.111,7.885 L12.888,7.885 L12.889,7.884 Z" id="Shape" fill="#1E2125" fill-rule="nonzero"/><circle id="Oval" stroke="#000" stroke-width=".2" cx="10" cy="10" r="9.9"/></g></g></g><g id="10K" transform="translate(0.000000, 182.000000)"><g id="Clipped"><mask id="mask-17" fill="#fff"><use xlink:href="#path-16"/></mask><g id="Group" mask="url(#mask-17)"><g fill-rule="nonzero" id="Oval"><circle fill="#202428" cx="10" cy="10" r="10"/><circle fill="#278ADB" cx="10" cy="10" r="10"/></g><path d="M8.1,0.1 L11.9,0.1 L11.9,3.9 L8.1,3.9 L8.1,0.1 Z M16.1,11.9 L16.1,8.1 L19.9,8.1 L19.9,11.9 L16.1,11.9 Z M0.1,11.9 L0.1,8.1 L3.9,8.1 L3.9,11.9 L0.1,11.9 Z M8.1,16.1 L11.9,16.1 L11.9,19.9 L8.1,19.9 L8.1,16.1 Z M1.656,4.343 L4.343,1.656 L7.03,4.343 L4.343,7.03 L1.656,4.343 Z M15.656,7.03 L12.97,4.343 L15.657,1.656 L18.344,4.343 L15.656,7.03 Z M4.343,18.344 L1.656,15.657 L4.343,12.97 L7.03,15.657 L4.343,18.344 Z M12.263,14.95 L14.95,12.263 L18.344,15.657 L15.657,18.344 L12.263,14.95 Z" id="Shape" stroke="#000" stroke-width=".2" fill="#222529" fill-rule="nonzero"/><circle id="Oval" stroke="#000" stroke-width=".2" fill="#FDFDFD" fill-rule="nonzero" cx="10" cy="10" r="6.9"/><path d="M4.719,11.597 L5.379,11.48 L5.379,8.05 L4.572,8.05 L4.538,7.698 L5.717,7.376 L6.404,7.376 L6.404,11.481 L7.06,11.598 L6.992,12.001 L4.787,12.001 L4.719,11.598 L4.719,11.597 Z M8.937,12.075 C8.361,12.075 7.927,11.925 7.638,11.624 C7.348,11.321 7.204,10.857 7.204,10.233 L7.204,9.874 C7.204,9.042 7.364,8.405 7.686,7.964 C8.007,7.521 8.466,7.3 9.063,7.3 C9.688,7.3 10.143,7.45 10.427,7.751 C10.712,8.052 10.855,8.517 10.855,9.146 L10.855,9.501 C10.855,10.374 10.7,11.021 10.39,11.443 C10.08,11.864 9.596,12.075 8.937,12.075 L8.937,12.075 Z M9.816,9.327 C9.816,8.826 9.757,8.447 9.641,8.192 C9.525,7.937 9.321,7.81 9.029,7.81 C8.754,7.81 8.553,7.946 8.428,8.22 C8.305,8.49 8.243,8.94 8.243,9.566 L8.243,10.045 C8.243,10.562 8.305,10.945 8.428,11.193 C8.53001674,11.4284978 8.76658236,11.5767986 9.023,11.566 C9.305,11.566 9.508,11.426 9.631,11.149 C9.754,10.871 9.815,10.423 9.815,9.806 L9.815,9.327 L9.816,9.327 Z M11.08,11.597 L11.57,11.48 L11.57,7.895 L11.08,7.779 L11.149,7.375 L13.012,7.375 L13.08,7.779 L12.595,7.895 L12.595,9.491 L12.642,9.511 L14.362,7.851 L13.989,7.782 L14.057,7.375 L15.589,7.375 L15.657,7.779 L15.175,7.902 L13.818,9.194 L15.328,11.498 L15.728,11.597 L15.66,12 L14.485,12 L13.104,9.874 L12.594,10.359 L12.594,11.48 L13.08,11.597 L13.012,12 L11.149,12 L11.08,11.597 Z" id="Shape" fill="#232428" fill-rule="nonzero"/><circle id="Oval" stroke="#000" stroke-width=".2" cx="10" cy="10" r="9.9"/></g></g></g><g id="10M" transform="translate(0.000000, 208.000000)"><g id="Clipped"><mask id="mask-19" fill="#fff"><use xlink:href="#path-18"/></mask><g id="Group" mask="url(#mask-19)"><g fill-rule="nonzero" id="Oval"><circle fill="#202428" cx="10" cy="10" r="10"/><circle fill="url(#linearGradient-3)" cx="10" cy="10" r="10"/></g><path d="M8.1,0.1 L11.9,0.1 L11.9,3.9 L8.1,3.9 L8.1,0.1 Z M16.1,11.9 L16.1,8.1 L19.9,8.1 L19.9,11.9 L16.1,11.9 Z M0.1,11.9 L0.1,8.1 L3.9,8.1 L3.9,11.9 L0.1,11.9 Z M8.1,16.1 L11.9,16.1 L11.9,19.9 L8.1,19.9 L8.1,16.1 Z" id="Shape" stroke="#000" stroke-width=".2" fill="#278BDE" fill-rule="nonzero"/><circle id="Oval" stroke="#000" stroke-width=".2" fill="#202428" fill-rule="nonzero" cx="10" cy="10" r="6.9"/><path d="M3.663,11.597 L4.323,11.48 L4.323,8.05 L3.516,8.05 L3.482,7.698 L4.661,7.376 L5.348,7.376 L5.348,11.481 L6.004,11.598 L5.936,12.001 L3.73,12.001 L3.662,11.598 L3.663,11.597 Z M7.88,12.075 C7.304,12.075 6.871,11.925 6.582,11.624 C6.292,11.321 6.148,10.857 6.148,10.233 L6.148,9.874 C6.148,9.042 6.308,8.405 6.63,7.964 C6.951,7.521 7.41,7.3 8.007,7.3 C8.632,7.3 9.087,7.45 9.371,7.751 C9.656,8.052 9.798,8.517 9.798,9.146 L9.798,9.501 C9.798,10.374 9.643,11.021 9.334,11.443 C9.024,11.864 8.539,12.075 7.881,12.075 L7.88,12.075 Z M8.76,9.327 C8.76,8.826 8.701,8.447 8.585,8.192 C8.469,7.937 8.265,7.81 7.973,7.81 C7.697,7.81 7.497,7.946 7.372,8.22 C7.249,8.49 7.187,8.94 7.187,9.566 L7.187,10.045 C7.187,10.562 7.249,10.945 7.372,11.193 C7.47388428,11.428146 7.70994071,11.5763767 7.966,11.566 C8.249,11.566 8.452,11.426 8.575,11.149 C8.698,10.871 8.759,10.423 8.759,9.806 L8.759,9.327 L8.76,9.327 Z M10.513,7.895 L10.024,7.779 L10.093,7.375 L11.952,7.375 L13.22,10.729 L13.275,10.729 L14.495,7.375 L16.392,7.375 L16.46,7.779 L15.975,7.895 L15.975,11.48 L16.46,11.597 L16.392,12 L14.529,12 L14.461,11.597 L14.95,11.48 L14.95,8.12 L14.895,8.12 L13.445,12 L12.745,12 L11.251,8.12 L11.197,8.12 L11.197,11.48 L11.682,11.597 L11.614,12 L10.093,12 L10.024,11.597 L10.513,11.48 L10.513,7.895 Z" id="Shape" fill="#FFF" fill-rule="nonzero"/><circle id="Oval" stroke="#000" stroke-width=".2" cx="10" cy="10" r="9.9"/></g></g></g><g id="1B" transform="translate(0.000000, 234.000000)"><g id="Clipped"><mask id="mask-21" fill="#fff"><use xlink:href="#path-20"/></mask><g id="Group" mask="url(#mask-21)"><g fill-rule="nonzero" id="Oval"><circle fill="#F7CC00" cx="10" cy="10" r="10"/><circle fill="#1F2428" cx="10" cy="10" r="10"/></g><path d="M1.656,4.343 L4.343,1.656 L7.03,4.343 L4.343,7.03 L1.656,4.343 Z M15.656,7.03 L12.97,4.343 L15.657,1.656 L18.344,4.343 L15.656,7.03 Z M4.343,18.344 L1.656,15.657 L4.343,12.97 L7.03,15.657 L4.343,18.344 Z M12.263,14.95 L14.95,12.263 L18.344,15.657 L15.657,18.344 L12.263,14.95 Z" id="Shape" stroke="#000" stroke-width=".2" fill="#FDAA2A" fill-rule="nonzero"/><circle id="Oval" stroke="#000" stroke-width=".2" fill="#FBA92A" fill-rule="nonzero" cx="10" cy="10" r="6.9"/><path d="M6.098,12.481 L6.946,12.332 L6.946,7.92 L5.909,7.92 L5.865,7.467 L7.381,7.054 L8.264,7.054 L8.264,12.332 L9.108,12.482 L9.02,13 L6.185,13 L6.098,12.481 L6.098,12.481 Z M9.86,7.722 L9.231,7.572 L9.319,7.054 L11.819,7.054 C12.441,7.054 12.925,7.173 13.274,7.41 C13.626,7.645 13.801,7.983 13.801,8.425 C13.801,8.727 13.708,9.002 13.521,9.251 C13.3217623,9.50644151 13.061431,9.70762222 12.764,9.836 L12.774,9.906 C13.169,9.974 13.481,10.123 13.709,10.354 C13.941,10.586 14.056,10.877 14.056,11.229 C14.056,11.759 13.866,12.187 13.486,12.512 C13.107,12.837 12.608,13 11.986,13 L9.32,13 L9.232,12.481 L9.861,12.332 L9.861,7.722 L9.86,7.722 Z M11.178,10.24 L11.178,12.345 L11.56,12.345 C11.736,12.345 11.912,12.338 12.088,12.323 C12.266,12.309 12.439,12.279 12.606,12.235 C12.644,12.115 12.675,11.969 12.698,11.795 C12.725,11.623 12.738,11.45 12.738,11.277 C12.738,10.947 12.638,10.691 12.439,10.513 C12.24,10.331 11.972,10.24 11.635,10.24 L11.178,10.24 L11.178,10.24 Z M11.178,7.709 L11.178,9.585 L11.534,9.585 C11.8050721,9.58494983 12.0746494,9.5448502 12.334,9.466 C12.4327545,9.1851647 12.4834649,8.88969218 12.484,8.592 C12.484,8.272 12.403,8.046 12.241,7.912 C12.083,7.776 11.824,7.709 11.464,7.709 L11.178,7.709 L11.178,7.709 Z" id="Shape" fill="#1F2428" fill-rule="nonzero"/><circle id="Oval" stroke="#000" stroke-width=".2" cx="10" cy="10" r="9.9"/></g></g></g><g id="1K" transform="translate(0.000000, 260.000000)"><g id="Clipped"><mask id="mask-23" fill="#fff"><use xlink:href="#path-22"/></mask><g id="Group" mask="url(#mask-23)"><g fill-rule="nonzero" id="Oval"><circle fill="#F7CC00" cx="10" cy="10" r="10"/><circle fill="#FDAA2A" cx="10" cy="10" r="10"/></g><path d="M8.1,0.1 L11.9,0.1 L11.9,3.9 L8.1,3.9 L8.1,0.1 Z M16.1,11.9 L16.1,8.1 L19.9,8.1 L19.9,11.9 L16.1,11.9 Z M0.1,11.9 L0.1,8.1 L3.9,8.1 L3.9,11.9 L0.1,11.9 Z M8.1,16.1 L11.9,16.1 L11.9,19.9 L8.1,19.9 L8.1,16.1 Z M1.656,4.343 L4.343,1.656 L7.03,4.343 L4.343,7.03 L1.656,4.343 Z M15.656,7.03 L12.97,4.343 L15.657,1.656 L18.344,4.343 L15.656,7.03 Z M4.343,18.344 L1.656,15.657 L4.343,12.97 L7.03,15.657 L4.343,18.344 Z M12.263,14.95 L14.95,12.263 L18.344,15.657 L15.657,18.344 L12.263,14.95 Z" id="Shape" stroke="#000" stroke-width=".2" fill="#202428" fill-rule="nonzero"/><circle id="Oval" stroke="#000" stroke-width=".2" fill="#FDFDFD" fill-rule="nonzero" cx="10" cy="10" r="6.9"/><path d="M5.746,12.481 L6.594,12.332 L6.594,7.92 L5.557,7.92 L5.513,7.467 L7.029,7.054 L7.912,7.054 L7.912,12.332 L8.756,12.482 L8.668,13 L5.834,13 L5.746,12.481 L5.746,12.481 Z M8.853,12.481 L9.482,12.332 L9.482,7.722 L8.853,7.572 L8.941,7.054 L11.336,7.054 L11.424,7.573 L10.8,7.723 L10.8,9.774 L10.862,9.801 L13.072,7.665 L12.593,7.577 L12.681,7.054 L14.65,7.054 L14.738,7.573 L14.118,7.731 L12.373,9.392 L14.316,12.354 L14.83,12.481 L14.742,13 L13.23,13 L11.455,10.267 L10.8,10.891 L10.8,12.332 L11.424,12.482 L11.336,13 L8.941,13 L8.853,12.481 L8.853,12.481 Z" id="Shape" fill="#232428" fill-rule="nonzero"/><circle id="Oval" stroke="#000" stroke-width=".2" cx="10" cy="10" r="9.9"/></g></g></g><g id="1M" transform="translate(0.000000, 286.000000)"><g id="Clipped"><mask id="mask-25" fill="#fff"><use xlink:href="#path-24"/></mask><g id="Group" mask="url(#mask-25)"><g fill-rule="nonzero" id="Oval"><circle fill="#F7CC00" cx="10" cy="10" r="10"/><circle fill="#222529" cx="10" cy="10" r="10"/></g><path d="M8.1,0.1 L11.9,0.1 L11.9,3.9 L8.1,3.9 L8.1,0.1 Z M16.1,11.9 L16.1,8.1 L19.9,8.1 L19.9,11.9 L16.1,11.9 Z M0.1,11.9 L0.1,8.1 L3.9,8.1 L3.9,11.9 L0.1,11.9 Z M8.1,16.1 L11.9,16.1 L11.9,19.9 L8.1,19.9 L8.1,16.1 Z" id="Shape" stroke="#000" stroke-width=".2" fill="#FBA92A" fill-rule="nonzero"/><path d="M1.656,4.343 L4.343,1.656 L7.03,4.343 L4.343,7.03 L1.656,4.343 Z M15.656,7.03 L12.97,4.343 L15.657,1.656 L18.344,4.343 L15.656,7.03 Z M4.343,18.344 L1.656,15.657 L4.343,12.97 L7.03,15.657 L4.343,18.344 Z M12.263,14.95 L14.95,12.263 L18.344,15.657 L15.657,18.344 L12.263,14.95 Z" id="Shape" stroke="#000" stroke-width=".2" fill="#212428" fill-rule="nonzero"/><circle id="Oval" stroke="#000" stroke-width=".2" fill="#202428" fill-rule="nonzero" cx="10" cy="10" r="6.9"/><path d="M4.388,12.481 L5.236,12.332 L5.236,7.92 L4.2,7.92 L4.156,7.467 L5.672,7.054 L6.556,7.054 L6.556,12.332 L7.399,12.482 L7.311,13 L4.476,13 L4.388,12.481 L4.388,12.481 Z M8.124,7.722 L7.495,7.572 L7.583,7.054 L9.973,7.054 L11.604,11.365 L11.674,11.365 L13.244,7.055 L15.682,7.055 L15.77,7.573 L15.146,7.723 L15.146,12.332 L15.77,12.482 L15.682,13 L13.287,13 L13.199,12.481 L13.828,12.332 L13.828,8.012 L13.758,8.012 L11.894,13 L10.994,13 L9.073,8.012 L9.003,8.012 L9.003,12.332 L9.627,12.482 L9.539,13 L7.583,13 L7.495,12.481 L8.124,12.332 L8.124,7.722 L8.124,7.722 Z" id="Shape" fill="#FFF" fill-rule="nonzero"/><circle id="Oval" stroke="#000" stroke-width=".2" cx="10" cy="10" r="9.9"/></g></g></g><g id="5" transform="translate(0.000000, 312.000000)"><g id="Clipped"><mask id="mask-27" fill="#fff"><use xlink:href="#path-26"/></mask><g id="Group" mask="url(#mask-27)"><g fill-rule="nonzero" id="Oval"><circle fill="#47C762" cx="10" cy="10" r="10"/><circle fill="url(#linearGradient-3)" cx="10" cy="10" r="10"/></g><path d="M8.1,0.1 L11.9,0.1 L11.9,3.9 L8.1,3.9 L8.1,0.1 Z M16.1,11.9 L16.1,8.1 L19.9,8.1 L19.9,11.9 L16.1,11.9 Z M0.1,11.9 L0.1,8.1 L3.9,8.1 L3.9,11.9 L0.1,11.9 Z M8.1,16.1 L11.9,16.1 L11.9,19.9 L8.1,19.9 L8.1,16.1 Z M1.656,4.343 L4.343,1.656 L7.03,4.343 L4.343,7.03 L1.656,4.343 Z M15.656,7.03 L12.97,4.343 L15.657,1.656 L18.344,4.343 L15.656,7.03 Z M4.343,18.344 L1.656,15.657 L4.343,12.97 L7.03,15.657 L4.343,18.344 Z M12.263,14.95 L14.95,12.263 L18.344,15.657 L15.657,18.344 L12.263,14.95 Z" id="Shape" stroke="#000" stroke-width=".2" fill="#008D6F" fill-rule="nonzero"/><circle id="Oval" stroke="#000" stroke-width=".2" fill="#FDFDFD" fill-rule="nonzero" cx="10" cy="10" r="6.9"/><path d="M9.802,13.097 C9.509,13.097 9.2,13.062 8.875,12.991 C8.56986771,12.9241743 8.2713398,12.8301314 7.983,12.71 L7.983,11.493 L8.708,11.457 L8.976,12.31 C9.2511363,12.400623 9.53934137,12.4452221 9.829,12.442 C10.133,12.442 10.375,12.335 10.554,12.122 C10.732,11.907 10.822,11.602 10.822,11.207 C10.822,10.841 10.727,10.561 10.536,10.367 C10.346,10.174 10.065,10.077 9.692,10.077 C9.493,10.077 9.292,10.102 9.09,10.152 C8.888,10.202 8.72,10.259 8.585,10.324 L8.088,9.898 L8.251,7.054 L11.824,7.054 L11.824,8.021 L8.994,8.021 L8.906,9.611 C9.052,9.547 9.224,9.495 9.42,9.454 C9.62,9.41 9.836,9.388 10.07,9.388 C10.709,9.388 11.213,9.538 11.582,9.836 C11.954,10.135 12.14,10.558 12.14,11.106 C12.137,11.712 11.912,12.196 11.463,12.556 C11.018,12.916 10.464,13.096 9.803,13.096 L9.802,13.097 Z" id="Path" fill="#000" fill-rule="nonzero"/><circle id="Oval" stroke="#000" stroke-width=".2" cx="10" cy="10" r="9.9"/></g></g></g><g id="50" transform="translate(0.000000, 338.000000)"><g id="Clipped"><mask id="mask-29" fill="#fff"><use xlink:href="#path-28"/></mask><g id="Group" mask="url(#mask-29)"><g fill-rule="nonzero" id="Oval"><circle fill="#FC7C55" cx="10" cy="10" r="10"/><circle fill="url(#linearGradient-3)" cx="10" cy="10" r="10"/></g><path d="M8.1,0.1 L11.9,0.1 L11.9,3.9 L8.1,3.9 L8.1,0.1 Z M16.1,11.9 L16.1,8.1 L19.9,8.1 L19.9,11.9 L16.1,11.9 Z M0.1,11.9 L0.1,8.1 L3.9,8.1 L3.9,11.9 L0.1,11.9 Z M8.1,16.1 L11.9,16.1 L11.9,19.9 L8.1,19.9 L8.1,16.1 Z" id="Shape" stroke="#000" stroke-width=".2" fill="#EE582A" fill-rule="nonzero"/><path d="M1.656,4.343 L4.343,1.656 L7.03,4.343 L4.343,7.03 L1.656,4.343 Z M15.656,7.03 L12.97,4.343 L15.657,1.656 L18.344,4.343 L15.656,7.03 Z M4.343,18.344 L1.656,15.657 L4.343,12.97 L7.03,15.657 L4.343,18.344 Z M12.263,14.95 L14.95,12.263 L18.344,15.657 L15.657,18.344 L12.263,14.95 Z" id="Shape" stroke="#000" stroke-width=".2" fill="#EF582A" fill-rule="nonzero"/><circle id="Oval" stroke="#000" stroke-width=".2" fill="#FDFDFD" fill-rule="nonzero" cx="10" cy="10" r="6.9"/><path d="M7.267,13.097 C6.974,13.097 6.664,13.062 6.339,12.991 C6.03386909,12.9241691 5.73534164,12.8301263 5.447,12.71 L5.447,11.493 L6.172,11.457 L6.44,12.31 C6.71514058,12.4006051 7.00334267,12.4452038 7.293,12.442 C7.598,12.442 7.839,12.335 8.018,12.122 C8.197,11.907 8.286,11.602 8.286,11.207 C8.286,10.841 8.191,10.561 8,10.367 C7.81,10.174 7.529,10.077 7.157,10.077 C6.957,10.077 6.757,10.102 6.555,10.152 C6.352,10.202 6.184,10.259 6.049,10.324 L5.553,9.898 L5.715,7.054 L9.288,7.054 L9.288,8.021 L6.458,8.021 L6.37,9.611 C6.516,9.547 6.688,9.495 6.884,9.454 C7.084,9.41 7.3,9.388 7.534,9.388 C8.174,9.388 8.677,9.538 9.046,9.836 C9.418,10.135 9.604,10.558 9.604,11.106 C9.601,11.712 9.376,12.196 8.928,12.556 C8.482,12.916 7.928,13.096 7.266,13.096 L7.267,13.097 Z M12.07,13.097 C11.329,13.097 10.772,12.903 10.4,12.517 C10.028,12.127 9.842,11.531 9.842,10.728 L9.842,10.267 C9.842,9.197 10.049,8.378 10.462,7.81 C10.875,7.242 11.465,6.958 12.232,6.958 C13.035,6.958 13.62,7.151 13.986,7.538 C14.352,7.924 14.536,8.522 14.536,9.331 L14.536,9.788 C14.536,10.91 14.336,11.742 13.938,12.284 C13.539,12.826 12.917,13.097 12.07,13.097 L12.07,13.097 Z M13.2,9.563 C13.2,8.919 13.125,8.433 12.975,8.104 C12.825,7.776 12.564,7.612 12.189,7.612 C11.834,7.612 11.576,7.788 11.415,8.14 C11.257,8.488 11.178,9.065 11.178,9.871 L11.178,10.486 C11.178,11.151 11.258,11.644 11.415,11.963 C11.574,12.283 11.828,12.442 12.18,12.442 C12.543,12.442 12.804,12.263 12.962,11.906 C13.12,11.548 13.199,10.973 13.199,10.179 L13.199,9.563 L13.2,9.563 Z" id="Shape" fill="#000" fill-rule="nonzero"/><circle id="Oval" stroke="#000" stroke-width=".2" cx="10" cy="10" r="9.9"/></g></g></g><g id="500" transform="translate(0.000000, 364.000000)"><g id="Clipped"><mask id="mask-31" fill="#fff"><use xlink:href="#path-30"/></mask><g id="Group" mask="url(#mask-31)" fill-rule="nonzero"><g id="Oval"><circle fill="#C42A36" cx="10" cy="10" r="10"/><circle fill="url(#linearGradient-3)" cx="10" cy="10" r="10"/></g><path d="M8.1,0.1 L11.9,0.1 L11.9,3.9 L8.1,3.9 L8.1,0.1 Z M16.1,11.9 L16.1,8.1 L19.9,8.1 L19.9,11.9 L16.1,11.9 Z M0.1,11.9 L0.1,8.1 L3.9,8.1 L3.9,11.9 L0.1,11.9 Z M8.1,16.1 L11.9,16.1 L11.9,19.9 L8.1,19.9 L8.1,16.1 Z" id="Shape" stroke="#000" stroke-width=".2" fill="#9A2037"/><path d="M1.656,4.343 L4.343,1.656 L7.03,4.343 L4.343,7.03 L1.656,4.343 Z M15.656,7.03 L12.97,4.343 L15.657,1.656 L18.344,4.343 L15.656,7.03 Z M4.343,18.344 L1.656,15.657 L4.343,12.97 L7.03,15.657 L4.343,18.344 Z M12.263,14.95 L14.95,12.263 L18.344,15.657 L15.657,18.344 L12.263,14.95 Z" id="Shape" stroke="#000" stroke-width=".2" fill="#992037"/><circle id="Oval" stroke="#000" stroke-width=".2" fill="#FDFDFD" cx="10" cy="10" r="6.9"/><path d="M5.902,12.075 C5.674,12.075 5.433,12.048 5.18,11.993 C4.94292444,11.9408381 4.71099772,11.8675452 4.487,11.774 L4.487,10.828 L5.051,10.8 L5.259,11.463 C5.47283498,11.5335474 5.69684046,11.5683476 5.922,11.566 C6.13865268,11.5749336 6.34712235,11.4825269 6.486,11.316 C6.626,11.15 6.695,10.913 6.695,10.606 C6.695,10.321 6.621,10.103 6.472,9.953 C6.324,9.803 6.106,9.727 5.816,9.727 C5.661,9.727 5.506,9.747 5.348,9.785 C5.21286166,9.81600781 5.08119534,9.86056664 4.955,9.918 L4.569,9.587 L4.695,7.375 L7.474,7.375 L7.474,8.127 L5.273,8.127 L5.204,9.365 C5.49151431,9.24763167 5.79946256,9.18848929 6.11,9.191 C6.607,9.191 6.999,9.307 7.286,9.539 C7.576,9.771 7.72,10.101 7.72,10.527 C7.718,10.999 7.542,11.375 7.194,11.655 C6.847,11.935 6.417,12.075 5.902,12.075 L5.902,12.075 Z M9.638,12.075 C9.061,12.075 8.628,11.925 8.338,11.624 C8.05,11.321 7.905,10.857 7.905,10.233 L7.905,9.874 C7.905,9.042 8.065,8.405 8.387,7.964 C8.708,7.521 9.167,7.3 9.764,7.3 C10.389,7.3 10.844,7.45 11.128,7.751 C11.413,8.052 11.555,8.517 11.555,9.146 L11.555,9.501 C11.555,10.374 11.4,11.021 11.09,11.443 C10.78,11.864 10.296,12.075 9.638,12.075 Z M10.516,9.327 C10.516,8.826 10.458,8.447 10.342,8.192 C10.226,7.937 10.022,7.81 9.73,7.81 C9.454,7.81 9.254,7.946 9.128,8.22 C9.005,8.49 8.944,8.94 8.944,9.566 L8.944,10.045 C8.944,10.562 9.005,10.945 9.128,11.193 C9.23001674,11.4284978 9.46658236,11.5767986 9.723,11.566 C10.006,11.566 10.209,11.426 10.332,11.149 C10.455,10.871 10.516,10.423 10.516,9.806 L10.516,9.327 L10.516,9.327 Z M13.582,12.075 C13.006,12.075 12.572,11.925 12.283,11.624 C11.994,11.321 11.849,10.857 11.849,10.233 L11.849,9.874 C11.849,9.042 12.01,8.405 12.331,7.964 C12.653,7.521 13.111,7.3 13.709,7.3 C14.333,7.3 14.788,7.45 15.073,7.751 C15.357,8.052 15.5,8.517 15.5,9.146 L15.5,9.501 C15.5,10.374 15.345,11.021 15.035,11.443 C14.725,11.864 14.241,12.075 13.582,12.075 Z M14.461,9.327 C14.461,8.826 14.403,8.447 14.286,8.192 C14.17,7.937 13.966,7.81 13.675,7.81 C13.399,7.81 13.198,7.946 13.073,8.22 C12.95,8.49 12.889,8.94 12.889,9.566 L12.889,10.045 C12.889,10.562 12.95,10.945 13.073,11.193 C13.1750167,11.4284978 13.4115824,11.5767986 13.668,11.566 C13.95,11.566 14.153,11.426 14.276,11.149 C14.399,10.871 14.461,10.423 14.461,9.806 L14.461,9.327 L14.461,9.327 Z" id="Shape" fill="#000"/></g></g></g><g id="500B" transform="translate(0.000000, 390.000000)"><g id="Clipped"><mask id="mask-33" fill="#fff"><use xlink:href="#path-32"/></mask><g id="Group" mask="url(#mask-33)"><g fill-rule="nonzero" id="Oval"><circle fill="#F7CC00" cx="10" cy="10" r="10"/><circle fill="#232428" cx="10" cy="10" r="10"/></g><path d="M1.656,4.343 L4.343,1.656 L7.03,4.343 L4.343,7.03 L1.656,4.343 Z M15.656,7.03 L12.97,4.343 L15.657,1.656 L18.344,4.343 L15.656,7.03 Z M4.343,18.344 L1.656,15.657 L4.343,12.97 L7.03,15.657 L4.343,18.344 Z M12.263,14.95 L14.95,12.263 L18.344,15.657 L15.657,18.344 L12.263,14.95 Z" id="Shape" stroke="#000" stroke-width=".2" fill="#982137" fill-rule="nonzero"/><circle id="Oval" stroke="#000" stroke-width=".2" fill="#972137" fill-rule="nonzero" cx="10" cy="10" r="6.9"/><path d="M4.8,12.065 C4.604,12.065 4.398,12.041 4.181,11.995 C3.97777722,11.9502195 3.7789807,11.8873007 3.587,11.807 L3.587,10.995 L4.07,10.972 L4.249,11.54 C4.43221067,11.6003488 4.62411715,11.6300808 4.817,11.628 C5.00286403,11.6359742 5.18182189,11.5568482 5.301,11.414 C5.42,11.271 5.479,11.068 5.479,10.804 C5.479,10.56 5.416,10.374 5.289,10.245 C5.162,10.116 4.974,10.052 4.726,10.052 C4.594,10.052 4.46,10.068 4.325,10.102 C4.20913973,10.1286443 4.09624204,10.1668352 3.988,10.216 L3.657,9.932 L3.765,8.036 L6.147,8.036 L6.147,8.681 L4.261,8.681 L4.201,9.741 C4.44720543,9.64018668 4.71096013,9.58920316 4.977,9.591 C5.404,9.591 5.74,9.691 5.987,9.891 C6.234,10.09 6.358,10.372 6.358,10.737 C6.356,11.142 6.206,11.464 5.907,11.704 C5.61,11.944 5.241,12.064 4.8,12.064 L4.8,12.065 Z M8.002,12.065 C7.508,12.065 7.137,11.935 6.889,11.678 C6.641,11.418 6.517,11.02 6.517,10.485 L6.517,10.178 C6.517,9.465 6.654,8.918 6.93,8.54 C7.205,8.161 7.599,7.972 8.11,7.972 C8.646,7.972 9.035,8.101 9.28,8.358 C9.523,8.616 9.646,9.015 9.646,9.554 L9.646,9.858 C9.646,10.606 9.513,11.161 9.247,11.523 C8.981,11.883 8.567,12.065 8.002,12.065 L8.002,12.065 Z M8.755,9.709 C8.755,9.279 8.705,8.955 8.605,8.736 C8.505,8.518 8.331,8.408 8.081,8.408 C7.845,8.408 7.673,8.525 7.565,8.76 C7.46,8.992 7.407,9.377 7.407,9.914 L7.407,10.324 C7.407,10.768 7.46,11.096 7.565,11.309 C7.671,11.522 7.841,11.628 8.075,11.628 C8.317,11.628 8.491,11.508 8.597,11.271 C8.702,11.032 8.755,10.648 8.755,10.119 L8.755,9.709 L8.755,9.709 Z M11.383,12.065 C10.889,12.065 10.518,11.935 10.27,11.678 C10.022,11.418 9.898,11.02 9.898,10.485 L9.898,10.178 C9.898,9.465 10.035,8.918 10.311,8.54 C10.586,8.161 10.98,7.972 11.491,7.972 C12.027,7.972 12.416,8.101 12.661,8.358 C12.905,8.616 13.027,9.015 13.027,9.554 L13.027,9.858 C13.027,10.606 12.894,11.161 12.628,11.523 C12.363,11.883 11.948,12.065 11.383,12.065 Z M12.136,9.709 C12.136,9.279 12.086,8.955 11.986,8.736 C11.886,8.518 11.712,8.408 11.462,8.408 C11.226,8.408 11.054,8.525 10.947,8.76 C10.841,8.992 10.788,9.377 10.788,9.914 L10.788,10.324 C10.788,10.768 10.841,11.096 10.947,11.309 C11.052,11.522 11.222,11.628 11.457,11.628 C11.698,11.628 11.872,11.508 11.977,11.271 C12.083,11.032 12.136,10.648 12.136,10.119 L12.136,9.709 L12.136,9.709 Z M13.657,8.481 L13.237,8.381 L13.297,8.036 L14.963,8.036 C15.377,8.036 15.701,8.116 15.933,8.273 C16.1626929,8.41972368 16.2968258,8.67770087 16.285,8.95 C16.2855675,9.14949839 16.2193901,9.34345446 16.097,9.501 C15.9643509,9.6711956 15.7910379,9.80530685 15.593,9.891 L15.599,9.937 C15.863,9.982 16.071,10.082 16.223,10.237 C16.3772452,10.390731 16.4611896,10.6013156 16.455,10.819 C16.455,11.173 16.328,11.458 16.074,11.675 C15.822,11.892 15.489,12 15.074,12 L13.296,12 L13.238,11.654 L13.657,11.554 L13.657,8.481 L13.657,8.481 Z M14.536,10.161 L14.536,11.563 L14.791,11.563 C14.908,11.563 15.025,11.559 15.142,11.549 C15.262,11.539 15.376,11.519 15.488,11.49 C15.513,11.41 15.534,11.312 15.549,11.197 C15.567,11.082 15.576,10.967 15.576,10.852 C15.576,10.631 15.509,10.461 15.376,10.342 C15.244,10.221 15.065,10.16 14.84,10.16 L14.536,10.16 L14.536,10.161 Z M14.536,8.473 L14.536,9.723 L14.773,9.723 C14.953648,9.72287449 15.1332752,9.69591356 15.306,9.643 C15.371985,9.45569989 15.4057957,9.25858326 15.406,9.06 C15.406,8.849 15.352,8.697 15.245,8.607 C15.139,8.517 14.966,8.473 14.726,8.473 L14.536,8.473 L14.536,8.473 Z" id="Shape" fill="#232428" fill-rule="nonzero"/><circle id="Oval" stroke="#000" stroke-width=".2" cx="10" cy="10" r="9.9"/></g></g></g><g id="500K" transform="translate(0.000000, 416.000000)"><g id="Clipped"><mask id="mask-35" fill="#fff"><use xlink:href="#path-34"/></mask><g id="Group" mask="url(#mask-35)"><g fill-rule="nonzero" id="Oval"><circle fill="#F7CC00" cx="10" cy="10" r="10"/><circle fill="#982137" cx="10" cy="10" r="10"/></g><path d="M8.1,0.1 L11.9,0.1 L11.9,3.9 L8.1,3.9 L8.1,0.1 Z M16.1,11.9 L16.1,8.1 L19.9,8.1 L19.9,11.9 L16.1,11.9 Z M0.1,11.9 L0.1,8.1 L3.9,8.1 L3.9,11.9 L0.1,11.9 Z M8.1,16.1 L11.9,16.1 L11.9,19.9 L8.1,19.9 L8.1,16.1 Z M1.656,4.343 L4.343,1.656 L7.03,4.343 L4.343,7.03 L1.656,4.343 Z M15.656,7.03 L12.97,4.343 L15.657,1.656 L18.344,4.343 L15.656,7.03 Z M4.343,18.344 L1.656,15.657 L4.343,12.97 L7.03,15.657 L4.343,18.344 Z M12.263,14.95 L14.95,12.263 L18.344,15.657 L15.657,18.344 L12.263,14.95 Z" id="Shape" stroke="#000" stroke-width=".2" fill="#222529" fill-rule="nonzero"/><circle id="Oval" stroke="#000" stroke-width=".2" fill="#FDFDFD" fill-rule="nonzero" cx="10" cy="10" r="6.9"/><path d="M4.565,12.065 C4.37,12.065 4.164,12.041 3.947,11.995 C3.74343715,11.9502771 3.5443035,11.8873576 3.352,11.807 L3.352,10.995 L3.836,10.972 L4.014,11.54 C4.19752882,11.6004575 4.38978214,11.6301909 4.583,11.628 C4.76851851,11.6356583 4.9470389,11.5565624 5.066,11.414 C5.186,11.271 5.245,11.068 5.245,10.804 C5.245,10.56 5.181,10.374 5.055,10.245 C4.927,10.116 4.74,10.052 4.492,10.052 C4.359,10.052 4.225,10.068 4.091,10.102 C3.97514157,10.1286507 3.86224451,10.1668414 3.754,10.216 L3.423,9.932 L3.531,8.036 L5.913,8.036 L5.913,8.681 L4.026,8.681 L3.968,9.741 C4.21421303,9.64021217 4.47796258,9.58922965 4.744,9.591 C5.17,9.591 5.506,9.691 5.752,9.891 C6,10.09 6.124,10.372 6.124,10.737 C6.122,11.142 5.971,11.464 5.673,11.704 C5.376,11.944 5.007,12.064 4.565,12.064 L4.565,12.065 Z M7.768,12.065 C7.273,12.065 6.902,11.935 6.654,11.678 C6.406,11.418 6.282,11.02 6.282,10.485 L6.282,10.178 C6.282,9.465 6.42,8.918 6.695,8.54 C6.971,8.161 7.365,7.972 7.876,7.972 C8.411,7.972 8.801,8.101 9.045,8.358 C9.289,8.616 9.411,9.015 9.411,9.554 L9.411,9.858 C9.411,10.606 9.278,11.161 9.013,11.523 C8.747,11.883 8.332,12.065 7.768,12.065 Z M8.52,9.709 C8.52,9.279 8.47,8.955 8.371,8.736 C8.271,8.518 8.097,8.408 7.847,8.408 C7.61,8.408 7.438,8.525 7.331,8.76 C7.226,8.992 7.173,9.377 7.173,9.914 L7.173,10.324 C7.173,10.768 7.226,11.096 7.331,11.309 C7.437,11.522 7.606,11.628 7.841,11.628 C8.083,11.628 8.257,11.508 8.362,11.271 C8.468,11.032 8.521,10.648 8.521,10.119 L8.521,9.709 L8.52,9.709 Z M11.149,12.065 C10.655,12.065 10.283,11.935 10.035,11.678 C9.787,11.418 9.663,11.02 9.663,10.485 L9.663,10.178 C9.663,9.465 9.801,8.918 10.076,8.54 C10.352,8.161 10.746,7.972 11.257,7.972 C11.792,7.972 12.182,8.101 12.426,8.358 C12.67,8.616 12.792,9.015 12.792,9.554 L12.792,9.858 C12.792,10.606 12.659,11.161 12.394,11.523 C12.128,11.883 11.714,12.065 11.149,12.065 L11.149,12.065 Z M11.902,9.709 C11.902,9.279 11.852,8.955 11.752,8.736 C11.652,8.518 11.478,8.408 11.228,8.408 C10.991,8.408 10.82,8.525 10.712,8.76 C10.607,8.992 10.554,9.377 10.554,9.914 L10.554,10.324 C10.554,10.768 10.607,11.096 10.712,11.309 C10.818,11.522 10.988,11.628 11.222,11.628 C11.464,11.628 11.638,11.508 11.743,11.271 C11.849,11.032 11.902,10.648 11.902,10.119 L11.902,9.709 L11.902,9.709 Z M12.986,11.654 L13.405,11.554 L13.405,8.481 L12.985,8.381 L13.045,8.036 L14.641,8.036 L14.7,8.382 L14.284,8.482 L14.284,9.85 L14.324,9.867 L15.798,8.443 L15.479,8.385 L15.538,8.036 L16.85,8.036 L16.909,8.382 L16.496,8.487 L15.333,9.595 L16.627,11.569 L16.97,11.654 L16.912,12 L15.904,12 L14.72,10.178 L14.284,10.594 L14.284,11.554 L14.7,11.654 L14.641,12 L13.044,12 L12.986,11.654 L12.986,11.654 Z" id="Shape" fill="#232428" fill-rule="nonzero"/><circle id="Oval" stroke="#000" stroke-width=".2" cx="10" cy="10" r="9.9"/></g></g></g><g id="500M" transform="translate(0.000000, 442.000000)"><g id="Clipped"><mask id="mask-37" fill="#fff"><use xlink:href="#path-36"/></mask><g id="Group" mask="url(#mask-37)"><g fill-rule="nonzero" id="Oval"><circle fill="#F7CC00" cx="10" cy="10" r="10"/><circle fill="#232428" cx="10" cy="10" r="10"/></g><path d="M8.1,0.1 L11.9,0.1 L11.9,3.9 L8.1,3.9 L8.1,0.1 Z M16.1,11.9 L16.1,8.1 L19.9,8.1 L19.9,11.9 L16.1,11.9 Z M0.1,11.9 L0.1,8.1 L3.9,8.1 L3.9,11.9 L0.1,11.9 Z M8.1,16.1 L11.9,16.1 L11.9,19.9 L8.1,19.9 L8.1,16.1 Z" id="Shape" stroke="#000" stroke-width=".2" fill="#982037" fill-rule="nonzero"/><circle id="Oval" stroke="#000" stroke-width=".2" fill="#202428" fill-rule="nonzero" cx="10" cy="10" r="6.9"/><path d="M3.66,12.065 C3.465,12.065 3.259,12.041 3.042,11.995 C2.83843715,11.9502771 2.6393035,11.8873576 2.447,11.807 L2.447,10.995 L2.93,10.972 L3.11,11.54 C3.29289251,11.6002402 3.48445217,11.6299708 3.677,11.628 C3.86286403,11.6359742 4.04182189,11.5568482 4.161,11.414 C4.28,11.271 4.34,11.068 4.34,10.804 C4.34,10.56 4.276,10.374 4.15,10.245 C4.022,10.116 3.835,10.052 3.587,10.052 C3.454,10.052 3.32,10.068 3.185,10.102 C3.06913973,10.1286443 2.95624204,10.1668352 2.848,10.216 L2.518,9.932 L2.626,8.036 L5.008,8.036 L5.008,8.681 L3.12,8.681 L3.061,9.741 C3.30720543,9.64018668 3.57096013,9.58920316 3.837,9.591 C4.263,9.591 4.599,9.691 4.845,9.891 C5.093,10.09 5.218,10.372 5.218,10.737 C5.216,11.142 5.065,11.464 4.766,11.704 C4.469,11.944 4.1,12.064 3.659,12.064 L3.66,12.065 Z M6.862,12.065 C6.368,12.065 5.997,11.935 5.749,11.678 C5.501,11.418 5.377,11.02 5.377,10.485 L5.377,10.178 C5.377,9.465 5.515,8.918 5.79,8.54 C6.065,8.161 6.459,7.972 6.97,7.972 C7.506,7.972 7.895,8.101 8.14,8.358 C8.384,8.616 8.506,9.015 8.506,9.554 L8.506,9.858 C8.506,10.606 8.373,11.161 8.107,11.523 C7.842,11.883 7.427,12.065 6.862,12.065 L6.862,12.065 Z M7.615,9.709 C7.615,9.279 7.565,8.955 7.465,8.736 C7.366,8.518 7.191,8.408 6.941,8.408 C6.705,8.408 6.533,8.525 6.426,8.76 C6.32,8.992 6.268,9.377 6.268,9.914 L6.268,10.324 C6.268,10.768 6.32,11.096 6.426,11.309 C6.531,11.522 6.701,11.628 6.936,11.628 C7.178,11.628 7.352,11.508 7.457,11.271 C7.562,11.032 7.615,10.648 7.615,10.119 L7.615,9.709 L7.615,9.709 Z M10.243,12.065 C9.749,12.065 9.378,11.935 9.13,11.678 C8.882,11.418 8.758,11.02 8.758,10.485 L8.758,10.178 C8.758,9.465 8.896,8.918 9.171,8.54 C9.447,8.161 9.841,7.972 10.351,7.972 C10.887,7.972 11.277,8.101 11.521,8.358 C11.765,8.616 11.887,9.015 11.887,9.554 L11.887,9.858 C11.887,10.606 11.754,11.161 11.488,11.523 C11.223,11.883 10.808,12.065 10.243,12.065 L10.243,12.065 Z M10.996,9.709 C10.996,9.279 10.946,8.955 10.846,8.736 C10.747,8.518 10.572,8.408 10.322,8.408 C10.086,8.408 9.914,8.525 9.807,8.76 C9.701,8.992 9.649,9.377 9.649,9.914 L9.649,10.324 C9.649,10.768 9.701,11.096 9.807,11.309 C9.912,11.522 10.082,11.628 10.317,11.628 C10.559,11.628 10.733,11.508 10.838,11.271 C10.944,11.032 10.996,10.648 10.996,10.119 L10.996,9.709 L10.996,9.709 Z M12.5,8.481 L12.08,8.381 L12.14,8.036 L13.733,8.036 L14.82,10.91 L14.867,10.91 L15.913,8.036 L17.538,8.036 L17.598,8.382 L17.181,8.482 L17.181,11.555 L17.597,11.655 L17.538,12 L15.942,12 L15.883,11.654 L16.303,11.554 L16.303,8.674 L16.255,8.674 L15.013,12 L14.413,12 L13.133,8.675 L13.085,8.675 L13.085,11.555 L13.501,11.655 L13.443,12 L12.139,12 L12.081,11.654 L12.499,11.554 L12.499,8.481 L12.5,8.481 Z" id="Shape" fill="#FFF" fill-rule="nonzero"/><circle id="Oval" stroke="#000" stroke-width=".2" cx="10" cy="10" r="9.9"/></g></g></g><g id="50B" transform="translate(0.000000, 468.000000)"><g id="Clipped"><mask id="mask-39" fill="#fff"><use xlink:href="#path-38"/></mask><g id="Group" mask="url(#mask-39)"><g fill-rule="nonzero" id="Oval"><circle fill="#212428" cx="10" cy="10" r="10"/><circle fill="url(#linearGradient-3)" cx="10" cy="10" r="10"/></g><path d="M1.656,4.343 L4.343,1.656 L7.03,4.343 L4.343,7.03 L1.656,4.343 Z M15.656,7.03 L12.97,4.343 L15.657,1.656 L18.344,4.343 L15.656,7.03 Z M4.343,18.344 L1.656,15.657 L4.343,12.97 L7.03,15.657 L4.343,18.344 Z M12.263,14.95 L14.95,12.263 L18.344,15.657 L15.657,18.344 L12.263,14.95 Z" id="Shape" stroke="#000" stroke-width=".2" fill="#EF582A" fill-rule="nonzero"/><circle id="Oval" stroke="#000" stroke-width=".2" fill="#EE582A" fill-rule="nonzero" cx="10" cy="10" r="6.9"/><path d="M5.905,12.075 C5.677,12.075 5.437,12.048 5.184,11.993 C4.94658439,11.9408956 4.71432055,11.867602 4.49,11.774 L4.49,10.828 L5.054,10.8 L5.262,11.463 C5.4761531,11.5336561 5.70050543,11.5684578 5.926,11.566 C6.14230699,11.5746184 6.35033958,11.4822416 6.489,11.316 C6.629,11.15 6.698,10.913 6.698,10.606 C6.698,10.321 6.624,10.103 6.476,9.953 C6.328,9.803 6.109,9.727 5.82,9.727 C5.665,9.727 5.509,9.747 5.351,9.785 C5.21586166,9.81600781 5.08419534,9.86056664 4.958,9.918 L4.572,9.587 L4.698,7.375 L7.478,7.375 L7.478,8.127 L5.275,8.127 L5.207,9.365 C5.49451431,9.24763167 5.80246256,9.18848929 6.113,9.191 C6.609,9.191 7.001,9.307 7.288,9.539 C7.578,9.771 7.722,10.101 7.722,10.527 C7.72,10.999 7.545,11.375 7.196,11.655 C6.85,11.935 6.419,12.075 5.904,12.075 L5.905,12.075 Z M9.641,12.075 C9.065,12.075 8.631,11.925 8.342,11.624 C8.052,11.321 7.908,10.857 7.908,10.233 L7.908,9.874 C7.908,9.042 8.068,8.405 8.39,7.964 C8.711,7.521 9.17,7.3 9.768,7.3 C10.392,7.3 10.847,7.45 11.131,7.751 C11.416,8.052 11.559,8.517 11.559,9.146 L11.559,9.501 C11.559,10.374 11.404,11.021 11.094,11.443 C10.784,11.864 10.3,12.075 9.641,12.075 L9.641,12.075 Z M10.52,9.327 C10.52,8.826 10.461,8.447 10.345,8.192 C10.229,7.937 10.025,7.81 9.733,7.81 C9.458,7.81 9.257,7.946 9.132,8.22 C9.009,8.49 8.947,8.94 8.947,9.566 L8.947,10.045 C8.947,10.562 9.009,10.945 9.132,11.193 C9.23401674,11.4284978 9.47058236,11.5767986 9.727,11.566 C10.009,11.566 10.212,11.426 10.335,11.149 C10.458,10.871 10.52,10.423 10.52,9.806 L10.52,9.327 L10.52,9.327 Z M12.294,7.895 L11.805,7.779 L11.873,7.375 L13.818,7.375 C14.301,7.375 14.678,7.468 14.949,7.652 C15.223,7.835 15.359,8.098 15.359,8.442 C15.359,8.677 15.287,8.891 15.141,9.085 C14.9861061,9.28318041 14.7839224,9.43928825 14.553,9.539 L14.56,9.594 C14.868,9.646 15.11,9.762 15.288,9.942 C15.468,10.122 15.558,10.349 15.558,10.622 C15.558,11.035 15.41,11.368 15.114,11.621 C14.82,11.873 14.431,12 13.948,12 L11.873,12 L11.805,11.597 L12.294,11.48 L12.294,7.895 L12.294,7.895 Z M13.319,9.854 L13.319,11.491 L13.616,11.491 C13.753,11.491 13.89,11.485 14.026,11.474 C14.166,11.462 14.3,11.44 14.43,11.405 C14.46,11.312 14.483,11.198 14.502,11.064 C14.522,10.929 14.532,10.794 14.532,10.66 C14.532,10.403 14.455,10.204 14.3,10.065 C14.145,9.925 13.937,9.854 13.675,9.854 L13.319,9.854 Z M13.319,7.884 L13.319,9.344 L13.596,9.344 C13.696,9.344 13.8,9.336 13.907,9.32 C14.017,9.304 14.12,9.282 14.218,9.252 C14.294613,9.03346467 14.3338294,8.80357551 14.334,8.572 C14.334,8.323 14.272,8.147 14.146,8.042 C14.023,7.937 13.822,7.885 13.541,7.885 L13.319,7.885 L13.319,7.884 Z" id="Shape" fill="#1F2225" fill-rule="nonzero"/><circle id="Oval" stroke="#000" stroke-width=".2" cx="10" cy="10" r="9.9"/></g></g></g><g id="50K" transform="translate(0.000000, 494.000000)"><g id="Clipped"><mask id="mask-41" fill="#fff"><use xlink:href="#path-40"/></mask><g id="Group" mask="url(#mask-41)"><g fill-rule="nonzero" id="Oval"><circle fill="#212428" cx="10" cy="10" r="10"/><circle fill="#EB572A" cx="10" cy="10" r="10"/></g><path d="M8.1,0.1 L11.9,0.1 L11.9,3.9 L8.1,3.9 L8.1,0.1 Z M16.1,11.9 L16.1,8.1 L19.9,8.1 L19.9,11.9 L16.1,11.9 Z M0.1,11.9 L0.1,8.1 L3.9,8.1 L3.9,11.9 L0.1,11.9 Z M8.1,16.1 L11.9,16.1 L11.9,19.9 L8.1,19.9 L8.1,16.1 Z M1.656,4.343 L4.343,1.656 L7.03,4.343 L4.343,7.03 L1.656,4.343 Z M15.656,7.03 L12.97,4.343 L15.657,1.656 L18.344,4.343 L15.656,7.03 Z M4.343,18.344 L1.656,15.657 L4.343,12.97 L7.03,15.657 L4.343,18.344 Z M12.263,14.95 L14.95,12.263 L18.344,15.657 L15.657,18.344 L12.263,14.95 Z" id="Shape" stroke="#000" stroke-width=".2" fill="#222529" fill-rule="nonzero"/><circle id="Oval" stroke="#000" stroke-width=".2" fill="#FDFDFD" fill-rule="nonzero" cx="10" cy="10" r="6.9"/><path d="M5.632,12.075 C5.404,12.075 5.163,12.048 4.91,11.993 C4.67292444,11.9408381 4.44099772,11.8675452 4.217,11.774 L4.217,10.828 L4.781,10.8 L4.989,11.463 C5.20283498,11.5335474 5.42684046,11.5683476 5.652,11.566 C5.86865268,11.5749336 6.07712235,11.4825269 6.216,11.316 C6.356,11.15 6.425,10.913 6.425,10.606 C6.425,10.321 6.35,10.103 6.202,9.953 C6.054,9.803 5.836,9.727 5.546,9.727 C5.391,9.727 5.236,9.747 5.078,9.785 C4.94286166,9.81600781 4.81119534,9.86056664 4.685,9.918 L4.299,9.587 L4.425,7.375 L7.204,7.375 L7.204,8.127 L5.003,8.127 L4.934,9.365 C5.22151431,9.24763167 5.52946256,9.18848929 5.84,9.191 C6.337,9.191 6.729,9.307 7.016,9.539 C7.306,9.771 7.45,10.101 7.45,10.527 C7.448,10.999 7.272,11.375 6.924,11.655 C6.577,11.935 6.147,12.075 5.632,12.075 L5.632,12.075 Z M9.368,12.075 C8.791,12.075 8.358,11.925 8.068,11.624 C7.78,11.321 7.635,10.857 7.635,10.233 L7.635,9.874 C7.635,9.042 7.795,8.405 8.117,7.964 C8.438,7.521 8.897,7.3 9.494,7.3 C10.118,7.3 10.574,7.45 10.858,7.751 C11.143,8.052 11.285,8.517 11.285,9.146 L11.285,9.501 C11.285,10.374 11.13,11.021 10.82,11.443 C10.51,11.864 10.026,12.075 9.368,12.075 Z M10.246,9.327 C10.246,8.826 10.188,8.447 10.072,8.192 C9.956,7.937 9.752,7.81 9.46,7.81 C9.184,7.81 8.984,7.946 8.858,8.22 C8.735,8.49 8.674,8.94 8.674,9.566 L8.674,10.045 C8.674,10.562 8.735,10.945 8.858,11.193 C8.96001674,11.4284978 9.19658236,11.5767986 9.453,11.566 C9.736,11.566 9.939,11.426 10.062,11.149 C10.185,10.871 10.246,10.423 10.246,9.806 L10.246,9.327 L10.246,9.327 Z M11.511,11.597 L12,11.48 L12,7.895 L11.511,7.779 L11.579,7.375 L13.442,7.375 L13.511,7.779 L13.025,7.895 L13.025,9.491 L13.073,9.511 L14.793,7.851 L14.42,7.782 L14.488,7.375 L16.019,7.375 L16.088,7.779 L15.606,7.902 L14.249,9.194 L15.759,11.498 L16.159,11.597 L16.091,12 L14.915,12 L13.535,9.874 L13.025,10.359 L13.025,11.48 L13.511,11.597 L13.442,12 L11.58,12 L11.512,11.597 L11.511,11.597 Z" id="Shape" fill="#232428" fill-rule="nonzero"/><circle id="Oval" stroke="#000" stroke-width=".2" cx="10" cy="10" r="9.9"/></g></g></g><g id="50M" transform="translate(0.000000, 520.000000)"><g id="Clipped"><mask id="mask-43" fill="#fff"><use xlink:href="#path-42"/></mask><g id="Group" mask="url(#mask-43)"><g fill-rule="nonzero" id="Oval"><circle fill="#212428" cx="10" cy="10" r="10"/><circle fill="url(#linearGradient-3)" cx="10" cy="10" r="10"/></g><path d="M8.1,0.1 L11.9,0.1 L11.9,3.9 L8.1,3.9 L8.1,0.1 Z M16.1,11.9 L16.1,8.1 L19.9,8.1 L19.9,11.9 L16.1,11.9 Z M0.1,11.9 L0.1,8.1 L3.9,8.1 L3.9,11.9 L0.1,11.9 Z M8.1,16.1 L11.9,16.1 L11.9,19.9 L8.1,19.9 L8.1,16.1 Z" id="Shape" stroke="#000" stroke-width=".2" fill="#EE582A" fill-rule="nonzero"/><circle id="Oval" stroke="#000" stroke-width=".2" fill="#202428" fill-rule="nonzero" cx="10" cy="10" r="6.9"/><path d="M4.575,12.075 C4.348,12.075 4.107,12.048 3.855,11.993 C3.61724433,11.9409532 3.38464337,11.8676588 3.16,11.774 L3.16,10.828 L3.724,10.8 L3.933,11.463 C4.14683498,11.5335474 4.37084046,11.5683476 4.596,11.566 C4.81265268,11.5749336 5.02112235,11.4825269 5.16,11.316 C5.299,11.15 5.368,10.913 5.368,10.606 C5.368,10.321 5.294,10.103 5.146,9.953 C4.998,9.803 4.779,9.727 4.49,9.727 C4.335,9.727 4.179,9.747 4.022,9.785 C3.88686166,9.81600781 3.75519534,9.86056664 3.629,9.918 L3.242,9.587 L3.369,7.375 L6.148,7.375 L6.148,8.127 L3.947,8.127 L3.878,9.365 C4.16551431,9.24763167 4.47346256,9.18848929 4.784,9.191 C5.281,9.191 5.673,9.307 5.96,9.539 C6.25,9.771 6.394,10.101 6.394,10.527 C6.392,10.999 6.216,11.375 5.867,11.655 C5.521,11.935 5.09,12.075 4.575,12.075 L4.575,12.075 Z M8.312,12.075 C7.735,12.075 7.302,11.925 7.012,11.624 C6.723,11.321 6.579,10.857 6.579,10.233 L6.579,9.874 C6.579,9.042 6.739,8.405 7.061,7.964 C7.381,7.521 7.841,7.3 8.438,7.3 C9.062,7.3 9.517,7.45 9.802,7.751 C10.087,8.052 10.229,8.517 10.229,9.146 L10.229,9.501 C10.229,10.374 10.074,11.021 9.764,11.443 C9.454,11.864 8.97,12.075 8.312,12.075 Z M9.19,9.327 C9.19,8.826 9.132,8.447 9.016,8.192 C8.899,7.937 8.696,7.81 8.404,7.81 C8.128,7.81 7.928,7.946 7.802,8.22 C7.679,8.49 7.618,8.94 7.618,9.566 L7.618,10.045 C7.618,10.562 7.679,10.945 7.802,11.193 C7.90401674,11.4284978 8.14058236,11.5767986 8.397,11.566 C8.68,11.566 8.882,11.426 9.005,11.149 C9.128,10.871 9.19,10.423 9.19,9.806 L9.19,9.327 L9.19,9.327 Z M10.944,7.895 L10.454,7.779 L10.524,7.375 L12.383,7.375 L13.651,10.729 L13.705,10.729 L14.925,7.375 L16.823,7.375 L16.891,7.779 L16.406,7.895 L16.406,11.48 L16.891,11.597 L16.823,12 L14.96,12 L14.891,11.597 L15.381,11.48 L15.381,8.12 L15.326,8.12 L13.876,12 L13.176,12 L11.682,8.12 L11.627,8.12 L11.627,11.48 L12.113,11.597 L12.044,12 L10.524,12 L10.454,11.597 L10.944,11.48 L10.944,7.895 L10.944,7.895 Z" id="Shape" fill="#FFF" fill-rule="nonzero"/><circle id="Oval" stroke="#000" stroke-width=".2" cx="10" cy="10" r="9.9"/></g></g></g><g id="5B" transform="translate(0.000000, 546.000000)"><g id="Clipped"><mask id="mask-45" fill="#fff"><use xlink:href="#path-44"/></mask><g id="Group" mask="url(#mask-45)"><g fill-rule="nonzero" id="Oval"><circle fill="#FBA92A" cx="10" cy="10" r="10"/><circle fill="#202428" cx="10" cy="10" r="10"/></g><path d="M1.656,4.343 L4.343,1.656 L7.03,4.343 L4.343,7.03 L1.656,4.343 Z M15.656,7.03 L12.97,4.343 L15.657,1.656 L18.344,4.343 L15.656,7.03 Z M4.343,18.344 L1.656,15.657 L4.343,12.97 L7.03,15.657 L4.343,18.344 Z M12.263,14.95 L14.95,12.263 L18.344,15.657 L15.657,18.344 L12.263,14.95 Z" id="Shape" stroke="#000" stroke-width=".2" fill="#018C6E" fill-rule="nonzero"/><circle id="Oval" stroke="#000" stroke-width=".2" fill="#028C6E" fill-rule="nonzero" cx="10" cy="10" r="6.9"/><path d="M7.27,13.097 C6.978,13.097 6.669,13.062 6.344,12.991 C6.03886909,12.9241691 5.74034164,12.8301263 5.452,12.71 L5.452,11.493 L6.177,11.457 L6.445,12.31 C6.71981815,12.4005143 7.00767637,12.445112 7.297,12.442 C7.602,12.442 7.844,12.335 8.022,12.122 C8.201,11.907 8.29,11.602 8.29,11.207 C8.29,10.841 8.195,10.561 8.005,10.367 C7.815,10.174 7.533,10.077 7.161,10.077 C6.961,10.077 6.761,10.102 6.559,10.152 C6.357,10.202 6.189,10.259 6.054,10.324 L5.557,9.898 L5.72,7.054 L9.292,7.054 L9.292,8.021 L6.462,8.021 L6.374,9.611 C6.521,9.547 6.692,9.495 6.889,9.454 C7.088,9.41 7.305,9.388 7.539,9.388 C8.178,9.388 8.682,9.538 9.051,9.836 C9.423,10.135 9.609,10.558 9.609,11.106 C9.606,11.712 9.38,12.196 8.932,12.556 C8.487,12.916 7.933,13.096 7.271,13.096 L7.27,13.097 Z M10.413,7.722 L9.785,7.572 L9.873,7.054 L12.373,7.054 C12.994,7.054 13.479,7.173 13.828,7.41 C14.179,7.645 14.355,7.983 14.355,8.425 C14.355,8.727 14.262,9.002 14.074,9.251 C13.8750416,9.5063087 13.6150678,9.70747887 13.318,9.836 L13.327,9.906 C13.722,9.974 14.034,10.123 14.263,10.354 C14.494,10.586 14.61,10.877 14.61,11.229 C14.61,11.759 14.42,12.187 14.039,12.512 C13.661,12.837 13.161,13 12.54,13 L9.873,13 L9.785,12.481 L10.413,12.332 L10.413,7.722 L10.413,7.722 Z M11.732,10.24 L11.732,12.345 L12.114,12.345 C12.29,12.345 12.466,12.338 12.641,12.323 C12.821,12.309 12.993,12.279 13.16,12.235 C13.198,12.115 13.229,11.969 13.252,11.795 C13.279,11.623 13.292,11.45 13.292,11.277 C13.292,10.947 13.192,10.691 12.992,10.513 C12.794,10.331 12.526,10.24 12.189,10.24 L11.732,10.24 L11.732,10.24 Z M11.732,7.709 L11.732,9.58500001 L12.088,9.585 C12.3590775,9.58502313 12.6286656,9.5449219 12.888,9.466 C12.986736,9.18515989 13.0374459,8.88969054 13.038,8.592 C13.037,8.272 12.956,8.046 12.795,7.912 C12.637,7.776 12.378,7.709 12.017,7.709 L11.732,7.709 Z" id="Shape" fill="#202428" fill-rule="nonzero"/><circle id="Oval" stroke="#202428" stroke-width=".2" cx="10" cy="10" r="9.9"/></g></g></g><g id="5K" transform="translate(0.000000, 572.000000)"><g id="Clipped"><mask id="mask-47" fill="#fff"><use xlink:href="#path-46"/></mask><g id="Group" mask="url(#mask-47)"><g fill-rule="nonzero" id="Oval"><circle fill="#FBA92A" cx="10" cy="10" r="10"/><circle fill="#028B6E" cx="10" cy="10" r="10"/></g><path d="M8.1,0.1 L11.9,0.1 L11.9,3.9 L8.1,3.9 L8.1,0.1 Z M16.1,11.9 L16.1,8.1 L19.9,8.1 L19.9,11.9 L16.1,11.9 Z M0.1,11.9 L0.1,8.1 L3.9,8.1 L3.9,11.9 L0.1,11.9 Z M8.1,16.1 L11.9,16.1 L11.9,19.9 L8.1,19.9 L8.1,16.1 Z M1.656,4.343 L4.343,1.656 L7.03,4.343 L4.343,7.03 L1.656,4.343 Z M15.656,7.03 L12.97,4.343 L15.657,1.656 L18.344,4.343 L15.656,7.03 Z M4.343,18.344 L1.656,15.657 L4.343,12.97 L7.03,15.657 L4.343,18.344 Z M12.263,14.95 L14.95,12.263 L18.344,15.657 L15.657,18.344 L12.263,14.95 Z" id="Shape" stroke="#000" stroke-width=".2" fill="#212529" fill-rule="nonzero"/><circle id="Oval" stroke="#000" stroke-width=".2" fill="#FDFDFD" fill-rule="nonzero" cx="10" cy="10" r="6.9"/><path d="M6.92,13.097 C6.626,13.097 6.317,13.062 5.992,12.991 C5.68686909,12.9241691 5.38834164,12.8301263 5.1,12.71 L5.1,11.493 L5.825,11.457 L6.093,12.31 C6.36814058,12.4006051 6.65634267,12.4452038 6.946,12.442 C7.25,12.442 7.492,12.335 7.671,12.122 C7.85,11.907 7.939,11.602 7.939,11.207 C7.939,10.841 7.844,10.561 7.653,10.367 C7.463,10.174 7.181,10.077 6.809,10.077 C6.61,10.077 6.409,10.102 6.207,10.152 C6.005,10.202 5.837,10.259 5.702,10.324 L5.205,9.898 L5.368,7.054 L8.941,7.054 L8.941,8.021 L6.11,8.021 L6.022,9.611 C6.168,9.547 6.34,9.495 6.536,9.454 C6.736,9.41 6.952,9.388 7.186,9.388 C7.825,9.388 8.329,9.538 8.698,9.836 C9.07,10.135 9.256,10.558 9.256,11.106 C9.253,11.712 9.028,12.196 8.579,12.556 C8.134,12.916 7.58,13.096 6.919,13.096 L6.92,13.097 Z M9.407,12.481 L10.035,12.332 L10.035,7.722 L9.407,7.572 L9.495,7.054 L11.89,7.054 L11.978,7.573 L11.354,7.723 L11.354,9.774 L11.415,9.801 L13.625,7.665 L13.147,7.577 L13.235,7.054 L15.203,7.054 L15.291,7.573 L14.671,7.731 L12.927,9.392 L14.869,12.354 L15.384,12.481 L15.296,13 L13.784,13 L12.009,10.267 L11.354,10.891 L11.354,12.332 L11.978,12.482 L11.89,13 L9.495,13 L9.407,12.481 L9.407,12.481 Z" id="Shape" fill="#232428" fill-rule="nonzero"/><circle id="Oval" stroke="#028B6D" stroke-width=".2" cx="10" cy="10" r="9.9"/></g></g></g><g id="5M" transform="translate(0.000000, 598.000000)"><g id="Clipped"><mask id="mask-49" fill="#fff"><use xlink:href="#path-48"/></mask><g id="Group" mask="url(#mask-49)"><g fill-rule="nonzero" id="Oval"><circle fill="#FBA92A" cx="10" cy="10" r="10"/><circle fill="#202428" cx="10" cy="10" r="10"/></g><path d="M8.1,0.1 L11.9,0.1 L11.9,3.9 L8.1,3.9 L8.1,0.1 Z M16.1,11.9 L16.1,8.1 L19.9,8.1 L19.9,11.9 L16.1,11.9 Z M0.1,11.9 L0.1,8.1 L3.9,8.1 L3.9,11.9 L0.1,11.9 Z M8.1,16.1 L11.9,16.1 L11.9,19.9 L8.1,19.9 L8.1,16.1 Z" id="Shape" stroke="#000" stroke-width=".2" fill="#018C6E" fill-rule="nonzero"/><circle id="Oval" stroke="#000" stroke-width=".2" fill="#202428" fill-rule="nonzero" cx="10" cy="10" r="6.9"/><path d="M5.561,13.097 C5.268,13.097 4.959,13.062 4.634,12.991 C4.32886909,12.9241691 4.03034164,12.8301263 3.742,12.71 L3.742,11.493 L4.467,11.457 L4.735,12.31 C5.01014058,12.4006051 5.29834267,12.4452038 5.588,12.442 C5.892,12.442 6.134,12.335 6.313,12.122 C6.492,11.907 6.581,11.602 6.581,11.207 C6.581,10.841 6.486,10.561 6.295,10.367 C6.105,10.174 5.824,10.077 5.452,10.077 C5.252,10.077 5.052,10.102 4.849,10.152 C4.647,10.202 4.479,10.259 4.344,10.324 L3.848,9.898 L4.01,7.054 L7.583,7.054 L7.583,8.021 L4.753,8.021 L4.665,9.611 C4.811,9.547 4.983,9.495 5.179,9.454 C5.379,9.41 5.595,9.388 5.829,9.388 C6.469,9.388 6.972,9.538 7.341,9.836 C7.713,10.135 7.899,10.558 7.899,11.106 C7.896,11.712 7.671,12.196 7.223,12.556 C6.777,12.916 6.223,13.096 5.561,13.096 L5.561,13.097 Z M8.678,7.722 L8.049,7.572 L8.137,7.054 L10.527,7.054 L12.157,11.365 L12.228,11.365 L13.798,7.055 L16.236,7.055 L16.324,7.573 L15.7,7.723 L15.7,12.332 L16.324,12.482 L16.236,13 L13.841,13 L13.753,12.481 L14.382,12.332 L14.382,8.012 L14.312,8.012 L12.447,13 L11.547,13 L9.626,8.012 L9.556,8.012 L9.556,12.332 L10.179,12.482 L10.091,13 L8.136,13 L8.048,12.481 L8.677,12.332 L8.677,7.722 L8.678,7.722 Z" id="Shape" fill="#FFF" fill-rule="nonzero"/><circle id="Oval" stroke="#202428" stroke-width=".2" cx="10" cy="10" r="9.9"/></g></g></g></g></g></svg>