<svg width="26" height="26" viewBox="0 0 26 26" fill="none" xmlns="http://www.w3.org/2000/svg"><g filter="url(#filter0_d)"><mask id="mask0" mask-type="alpha" maskUnits="userSpaceOnUse" x="3" y="2" width="20" height="20"><circle cx="13" cy="12" r="10" fill="#C4C4C4"/></mask><g mask="url(#mask0)"><g filter="url(#filter1_d)"><circle cx="13" cy="12" r="10" fill="#121318"/></g><circle cx="13" cy="12" r="7" fill="#121318"/><path d="M10.0645 8.96289L9.22656 8.76367L9.34375 8.07227H12.9648C14.2031 8.07227 15.1367 8.36719 15.7656 8.95703C16.3984 9.54688 16.7148 10.4004 16.7148 11.5176V11.9746C16.7148 13.2129 16.3809 14.1934 15.7129 14.916C15.0488 15.6387 14.1523 16 13.0234 16H9.34375L9.22656 15.3086L10.0645 15.1094V8.96289ZM11.8223 8.94531V15.127H12.7656C12.9961 15.127 13.2363 15.1113 13.4863 15.0801C13.7363 15.0488 13.9609 15.0078 14.1602 14.957C14.3633 14.6758 14.5469 14.2969 14.7109 13.8203C14.875 13.3438 14.957 12.8555 14.957 12.3555V11.8047C14.957 10.8359 14.7617 10.1172 14.3711 9.64844C13.9805 9.17969 13.3809 8.94531 12.5723 8.94531H11.8223Z" fill="#FCAA2A"/></g></g><defs><filter id="filter0_d" x="0" y="0" width="26" height="26" filterUnits="userSpaceOnUse" color-interpolation-filters="sRGB"><feFlood flood-opacity="0" result="BackgroundImageFix"/><feColorMatrix in="SourceAlpha" type="matrix" values="0 0 0 0 0 0 0 0 0 0 0 0 0 0 0 0 0 0 127 0"/><feOffset dy="1"/><feGaussianBlur stdDeviation="1.5"/><feColorMatrix type="matrix" values="0 0 0 0 0 0 0 0 0 0 0 0 0 0 0 0 0 0 0.3 0"/><feBlend mode="normal" in2="BackgroundImageFix" result="effect1_dropShadow"/><feBlend mode="normal" in="SourceGraphic" in2="effect1_dropShadow" result="shape"/></filter><filter id="filter1_d" x="2" y="2" width="22" height="22" filterUnits="userSpaceOnUse" color-interpolation-filters="sRGB"><feFlood flood-opacity="0" result="BackgroundImageFix"/><feColorMatrix in="SourceAlpha" type="matrix" values="0 0 0 0 0 0 0 0 0 0 0 0 0 0 0 0 0 0 127 0"/><feOffset dy="1"/><feGaussianBlur stdDeviation=".5"/><feColorMatrix type="matrix" values="0 0 0 0 0 0 0 0 0 0 0 0 0 0 0 0 0 0 1 0"/><feBlend mode="normal" in2="BackgroundImageFix" result="effect1_dropShadow"/><feBlend mode="normal" in="SourceGraphic" in2="effect1_dropShadow" result="shape"/></filter></defs></svg>